SplineFontDB: 3.0
FontName: Luna-ExtraLight
FullName: Luna Extra Light Regular
FamilyName: Luna Extra Light
Weight: ExtraLight
Copyright: Copyright (c) 2013 - 2016, Juan Pablo del Peral [huertatipografica.com.ar], Cristiano Sobral [cssobral2013@gmail.com].
Version: 1.501;PS 001.000;hotconv 1.0.70;makeotf.lib2.5.58329 DEVELOPMENT
ItalicAngle: 0
UnderlinePosition: -348
UnderlineWidth: 40
Ascent: 1638
Descent: 410
sfntRevision: 0x00010000
LayerCount: 2
Layer: 0 1 "Back"  1
Layer: 1 1 "Fore"  0
XUID: [1021 633 1153022450 3719797]
FSType: 4
OS2Version: 3
OS2_WeightWidthSlopeOnly: 0
OS2_UseTypoMetrics: 1
CreationTime: 1386077540
ModificationTime: 1462128998
PfmFamily: 81
TTFWeight: 200
TTFWidth: 5
LineGap: 0
VLineGap: 0
Panose: 0 0 3 0 0 0 0 0 0 0
OS2TypoAscent: 1638
OS2TypoAOffset: 0
OS2TypoDescent: -410
OS2TypoDOffset: 0
OS2TypoLinegap: 0
OS2WinAscent: 2176
OS2WinAOffset: 0
OS2WinDescent: 659
OS2WinDOffset: 0
HheadAscent: 2176
HheadAOffset: 0
HheadDescent: -659
HheadDOffset: 0
OS2SubXSize: 1331
OS2SubYSize: 1229
OS2SubXOff: 0
OS2SubYOff: 154
OS2SupXSize: 1331
OS2SupYSize: 1229
OS2SupXOff: 0
OS2SupYOff: 717
OS2StrikeYSize: 41
OS2StrikeYPos: 555
OS2Vendor: 'UKWN'
OS2CodePages: 20000193.00000000
OS2UnicodeRanges: 20000007.00000000.00000000.00000000
Lookup: 1 0 0 "'aalt' Access All Alternates lookup 0"  {"'aalt' Access All Alternates lookup 0 subtable"  } ['aalt' ('DFLT' <'dflt' > 'grek' <'dflt' > 'latn' <'CAT ' 'ESP ' 'MOL ' 'NLD ' 'ROM ' 'TRK ' 'dflt' > ) ]
Lookup: 3 0 0 "'aalt' Access All Alternates lookup 1"  {"'aalt' Access All Alternates lookup 1 subtable"  } ['aalt' ('DFLT' <'dflt' > 'grek' <'dflt' > 'latn' <'CAT ' 'ESP ' 'MOL ' 'NLD ' 'ROM ' 'TRK ' 'dflt' > ) ]
Lookup: 6 0 0 "'locl' Localized Forms in Latin lookup 2"  {"'locl' Localized Forms in Latin lookup 2 contextual 0"  "'locl' Localized Forms in Latin lookup 2 contextual 1"  } ['locl' ('latn' <'CAT ' > ) ]

StartChar: exclam
Encoding: 33 33 4
Width: 575
GlyphClass: 2
Flags: W
LayerCount: 2
Fore
SplineSet
332 1520 m 1,0,-1
 312 463 l 1,1,-1
 276 463 l 1,2,-1
 266 474 l 1,3,-1
 285 1520 l 1,4,-1
 292 1526 l 1,5,-1
 325 1526 l 1,6,-1
 332 1520 l 1,0,-1
269 89 m 128,-1,8
 290 89 290 89 302.5 76.5 c 128,-1,9
 315 64 315 64 315 42.5 c 128,-1,10
 315 21 315 21 302.5 8 c 128,-1,11
 290 -5 290 -5 269 -5 c 128,-1,12
 248 -5 248 -5 235 8 c 128,-1,13
 222 21 222 21 222 42.5 c 128,-1,14
 222 64 222 64 235 76.5 c 128,-1,7
 248 89 248 89 269 89 c 128,-1,8
EndSplineSet
EndChar

StartChar: quotedbl
Encoding: 34 34 5
Width: 517
GlyphClass: 2
Flags: W
LayerCount: 2
Fore
SplineSet
185 1473 m 1,0,-1
 156 1137 l 1,1,-1
 116 1132 l 1,2,-1
 109 1141 l 1,3,-1
 138 1477 l 1,4,-1
 178 1482 l 1,5,-1
 185 1473 l 1,0,-1
410 1473 m 1,6,-1
 383 1137 l 1,7,-1
 343 1132 l 1,8,-1
 336 1141 l 1,9,-1
 364 1477 l 1,10,-1
 404 1482 l 1,11,-1
 410 1473 l 1,6,-1
EndSplineSet
EndChar

StartChar: numbersign
Encoding: 35 35 6
Width: 1120
GlyphClass: 2
Flags: W
LayerCount: 2
Fore
SplineSet
771 873 m 1,0,-1
 695 572 l 1,1,-1
 978 572 l 1,2,-1
 985 565 l 1,3,-1
 980 526 l 1,4,-1
 684 526 l 1,5,-1
 570 75 l 1,6,-1
 532 75 l 1,7,-1
 526 84 l 1,8,-1
 637 526 l 1,9,-1
 361 526 l 1,10,-1
 247 75 l 1,11,-1
 210 75 l 1,12,-1
 203 84 l 1,13,-1
 315 526 l 1,14,-1
 54 526 l 1,15,-1
 47 532 l 1,16,-1
 51 572 l 1,17,-1
 327 572 l 1,18,-1
 404 873 l 1,19,-1
 142 873 l 1,20,-1
 136 880 l 1,21,-1
 140 920 l 1,22,-1
 416 920 l 1,23,-1
 523 1343 l 1,24,-1
 561 1343 l 1,25,-1
 565 1330 l 1,26,-1
 463 920 l 1,27,-1
 738 920 l 1,28,-1
 845 1343 l 1,29,-1
 882 1343 l 1,30,-1
 887 1330 l 1,31,-1
 784 920 l 1,32,-1
 1067 920 l 1,33,-1
 1074 913 l 1,34,-1
 1069 873 l 1,35,-1
 771 873 l 1,0,-1
726 873 m 1,36,-1
 448 873 l 1,37,-1
 374 572 l 1,38,-1
 649 572 l 1,39,-1
 726 873 l 1,36,-1
EndSplineSet
EndChar

StartChar: dollar
Encoding: 36 36 7
Width: 973
GlyphClass: 2
Flags: W
LayerCount: 2
Fore
SplineSet
796 294 m 0,0,1
 796 176 796 176 703.5 89 c 128,-1,2
 611 2 611 2 465 -7 c 1,3,-1
 439 -290 l 1,4,-1
 404 -290 l 1,5,-1
 394 -280 l 1,6,-1
 418 -7 l 1,7,8
 347 -3 347 -3 273.5 18.5 c 128,-1,9
 200 40 200 40 142 78 c 1,10,-1
 145 121 l 1,11,-1
 156 124 l 1,12,13
 212 84 212 84 283.5 61.5 c 128,-1,14
 355 39 355 39 423 38 c 1,15,-1
 467 563 l 1,16,17
 427 582 427 582 404 593 c 128,-1,18
 381 604 381 604 345 623.5 c 128,-1,19
 309 643 309 643 288 659 c 128,-1,20
 267 675 267 675 242 698.5 c 128,-1,21
 217 722 217 722 203.5 746 c 128,-1,22
 190 770 190 770 180.5 801 c 128,-1,23
 171 832 171 832 171 866 c 0,24,25
 171 986 171 986 268 1068.5 c 128,-1,26
 365 1151 365 1151 516 1151 c 1,27,-1
 546 1495 l 1,28,-1
 584 1495 l 1,29,-1
 593 1482 l 1,30,-1
 565 1149 l 1,31,32
 665 1141 665 1141 757 1100 c 1,33,-1
 747 1058 l 1,34,-1
 733 1056 l 1,35,36
 648 1097 648 1097 561 1105 c 1,37,-1
 516 595 l 1,38,39
 567 572 567 572 601 554.5 c 128,-1,40
 635 537 635 537 675.5 508.5 c 128,-1,41
 716 480 716 480 739.5 451.5 c 128,-1,42
 763 423 763 423 779.5 382 c 128,-1,43
 796 341 796 341 796 294 c 0,0,1
217 862 m 0,44,45
 217 835 217 835 224.5 811 c 128,-1,46
 232 787 232 787 243.5 768.5 c 128,-1,47
 255 750 255 750 276 731 c 128,-1,48
 297 712 297 712 315 699 c 128,-1,49
 333 686 333 686 363.5 669.5 c 128,-1,50
 394 653 394 653 415 643 c 128,-1,51
 436 633 436 633 472 617 c 1,52,-1
 512 1107 l 1,53,54
 444 1107 444 1107 386.5 1085 c 128,-1,55
 329 1063 329 1063 293 1027 c 128,-1,56
 257 991 257 991 237 948 c 128,-1,57
 217 905 217 905 217 862 c 0,44,45
512 542 m 1,58,-1
 470 40 l 1,59,60
 533 44 533 44 587 67.5 c 128,-1,61
 641 91 641 91 675.5 126 c 128,-1,62
 710 161 710 161 729.5 204 c 128,-1,63
 749 247 749 247 749 292 c 0,64,65
 749 329 749 329 736 362 c 128,-1,66
 723 395 723 395 703 418.5 c 128,-1,67
 683 442 683 442 649.5 465.5 c 128,-1,68
 616 489 616 489 586 505 c 128,-1,69
 556 521 556 521 512 542 c 1,58,-1
EndSplineSet
EndChar

StartChar: percent
Encoding: 37 37 8
Width: 1849
GlyphClass: 2
Flags: W
LayerCount: 2
Fore
SplineSet
1455 1550 m 1,0,-1
 1461 1531 l 1,1,-1
 329 -210 l 1,2,-1
 308 -201 l 1,3,-1
 299 -180 l 1,4,-1
 1431 1562 l 1,5,-1
 1455 1550 l 1,0,-1
439 1490 m 0,6,7
 591 1490 591 1490 673 1386.5 c 128,-1,8
 755 1283 755 1283 755 1092 c 0,9,10
 755 899 755 899 672 795 c 128,-1,11
 589 691 589 691 434 691 c 0,12,13
 281 691 281 691 198.5 794 c 128,-1,14
 116 897 116 897 116 1090 c 0,15,16
 116 1281 116 1281 200 1385.5 c 128,-1,17
 284 1490 284 1490 439 1490 c 0,6,7
434 1446 m 0,18,19
 301 1446 301 1446 229.5 1354 c 128,-1,20
 158 1262 158 1262 158 1092 c 0,21,22
 158 919 158 919 230.5 827 c 128,-1,23
 303 735 303 735 439 735 c 0,24,25
 571 735 571 735 641.5 826.5 c 128,-1,26
 712 918 712 918 712 1090 c 256,27,28
 712 1262 712 1262 640.5 1354 c 128,-1,29
 569 1446 569 1446 434 1446 c 0,18,19
1417 791 m 0,30,31
 1569 791 1569 791 1651 688 c 128,-1,32
 1733 585 1733 585 1733 394 c 0,33,34
 1733 201 1733 201 1650.5 97 c 128,-1,35
 1568 -7 1568 -7 1412 -7 c 0,36,37
 1259 -7 1259 -7 1177.5 96 c 128,-1,38
 1096 199 1096 199 1096 390 c 0,39,40
 1096 583 1096 583 1179 687 c 128,-1,41
 1262 791 1262 791 1417 791 c 0,30,31
1412 747 m 0,42,43
 1279 747 1279 747 1208 656 c 128,-1,44
 1137 565 1137 565 1137 394 c 0,45,46
 1137 221 1137 221 1209.5 129.5 c 128,-1,47
 1282 38 1282 38 1417 38 c 0,48,49
 1549 38 1549 38 1620 129 c 128,-1,50
 1691 220 1691 220 1691 390 c 0,51,52
 1691 563 1691 563 1619.5 655 c 128,-1,53
 1548 747 1548 747 1412 747 c 0,42,43
EndSplineSet
EndChar

StartChar: ampersand
Encoding: 38 38 9
Width: 1577
GlyphClass: 2
Flags: W
LayerCount: 2
Fore
SplineSet
1130 866 m 1,0,-1
 1130 857 l 1,1,2
 1168 766 1168 766 1186.5 684.5 c 128,-1,3
 1205 603 1205 603 1205 512 c 0,4,5
 1205 364 1205 364 1149 252 c 1,6,-1
 1459 -21 l 1,7,-1
 1459 -28 l 1,8,9
 1445 -43 1445 -43 1424 -51 c 1,10,-1
 1417 -49 l 1,11,-1
 1125 207 l 1,12,13
 1059 104 1059 104 945.5 47.5 c 128,-1,14
 832 -9 832 -9 677 -9 c 0,15,16
 535 -9 535 -9 424 37.5 c 128,-1,17
 313 84 313 84 249 174 c 128,-1,18
 185 264 185 264 185 385 c 0,19,20
 185 514 185 514 253.5 616.5 c 128,-1,21
 322 719 322 719 455 791 c 1,22,-1
 455 800 l 1,23,24
 362 879 362 879 321 961.5 c 128,-1,25
 280 1044 280 1044 280 1145 c 0,26,27
 280 1313 280 1313 383.5 1407 c 128,-1,28
 487 1501 487 1501 679 1501 c 0,29,30
 863 1501 863 1501 1034 1406 c 1,31,-1
 1020 1361 l 1,32,-1
 1004 1361 l 1,33,34
 858 1455 858 1455 684 1455 c 256,35,36
 510 1455 510 1455 418.5 1371.5 c 128,-1,37
 327 1288 327 1288 327 1141 c 0,38,39
 327 1049 327 1049 367 973.5 c 128,-1,40
 407 898 407 898 499 822 c 1,41,-1
 1112 285 l 1,42,43
 1158 384 1158 384 1158 512 c 0,44,45
 1158 697 1158 697 1065 866 c 1,46,-1
 880 866 l 1,47,-1
 871 876 l 1,48,-1
 880 913 l 1,49,-1
 1539 913 l 1,50,-1
 1546 904 l 1,51,-1
 1537 866 l 1,52,-1
 1130 866 l 1,0,-1
679 38 m 0,53,54
 822 38 822 38 926 91 c 128,-1,55
 1030 144 1030 144 1090 241 c 1,56,-1
 497 766 l 1,57,58
 372 704 372 704 301.5 608 c 128,-1,59
 231 512 231 512 231 390 c 0,60,61
 231 282 231 282 290 201.5 c 128,-1,62
 349 121 349 121 450 79.5 c 128,-1,63
 551 38 551 38 679 38 c 0,53,54
EndSplineSet
EndChar

StartChar: quotesingle
Encoding: 39 39 10
Width: 291
GlyphClass: 2
Flags: W
LayerCount: 2
Fore
SplineSet
185 1473 m 1,0,-1
 156 1137 l 1,1,-1
 116 1132 l 1,2,-1
 109 1141 l 1,3,-1
 138 1477 l 1,4,-1
 178 1482 l 1,5,-1
 185 1473 l 1,0,-1
EndSplineSet
Substitution2: "'locl' Localized Forms in Latin lookup 12 subtable" puso
Substitution2: "'locl' Localized Forms in Latin lookup 10 subtable" puso
Substitution2: "'aalt' Access All Alternates lookup 0 subtable" puso
EndChar

StartChar: parenleft
Encoding: 40 40 11
Width: 655
GlyphClass: 2
Flags: W
LayerCount: 2
Fore
SplineSet
642 1522 m 1,0,-1
 642 1513 l 1,1,2
 505 1415 505 1415 424.5 1294 c 128,-1,3
 344 1173 344 1173 307 1008 c 128,-1,4
 270 843 270 843 269 606 c 1,5,6
 270 370 270 370 307 205.5 c 128,-1,7
 344 41 344 41 424.5 -80 c 128,-1,8
 505 -201 505 -201 642 -299 c 1,9,-1
 642 -308 l 1,10,-1
 621 -334 l 1,11,-1
 612 -334 l 1,12,13
 469 -231 469 -231 385 -105.5 c 128,-1,14
 301 20 301 20 262 191 c 128,-1,15
 223 362 223 362 222 606 c 1,16,17
 223 851 223 851 262 1022 c 128,-1,18
 301 1193 301 1193 385 1319.5 c 128,-1,19
 469 1446 469 1446 612 1548 c 1,20,-1
 621 1548 l 1,21,-1
 642 1522 l 1,0,-1
EndSplineSet
EndChar

StartChar: parenright
Encoding: 41 41 12
Width: 655
GlyphClass: 2
Flags: W
LayerCount: 2
Fore
SplineSet
14 -308 m 1,0,-1
 14 -299 l 1,1,2
 151 -201 151 -201 231.5 -80 c 128,-1,3
 312 41 312 41 349 205.5 c 128,-1,4
 386 370 386 370 388 606 c 1,5,6
 386 843 386 843 349 1008 c 128,-1,7
 312 1173 312 1173 231.5 1294 c 128,-1,8
 151 1415 151 1415 14 1513 c 1,9,-1
 14 1522 l 1,10,-1
 35 1548 l 1,11,-1
 44 1548 l 1,12,13
 187 1446 187 1446 271 1319.5 c 128,-1,14
 355 1193 355 1193 394 1022 c 128,-1,15
 433 851 433 851 434 606 c 1,16,17
 433 362 433 362 394 191 c 128,-1,18
 355 20 355 20 271 -105.5 c 128,-1,19
 187 -231 187 -231 44 -334 c 1,20,-1
 35 -334 l 1,21,-1
 14 -308 l 1,0,-1
EndSplineSet
EndChar

StartChar: asterisk
Encoding: 42 42 13
Width: 849
GlyphClass: 2
Flags: W
LayerCount: 2
Fore
SplineSet
465 1664 m 1,0,-1
 439 1401 l 1,1,-1
 406 1396 l 1,2,-1
 399 1408 l 1,3,-1
 410 1662 l 1,4,5
 434 1669 434 1669 459 1669 c 1,6,-1
 465 1664 l 1,0,-1
352 1361 m 1,7,-1
 345 1328 l 1,8,-1
 334 1326 l 1,9,-1
 96 1415 l 1,10,11
 96 1447 96 1447 103 1464 c 1,12,-1
 109 1468 l 1,13,-1
 352 1361 l 1,7,-1
497 1370 m 1,14,-1
 740 1439 l 1,15,16
 755 1420 755 1420 764 1394 c 1,17,-1
 762 1390 l 1,18,-1
 502 1330 l 1,19,-1
 490 1361 l 1,20,-1
 497 1370 l 1,14,-1
492 1265 m 1,21,-1
 633 1056 l 1,22,23
 615 1031 615 1031 597 1020 c 1,24,-1
 591 1020 l 1,25,-1
 455 1249 l 1,26,-1
 481 1270 l 1,27,-1
 492 1265 l 1,21,-1
392 1252 m 1,28,-1
 390 1237 l 1,29,-1
 234 1039 l 1,30,31
 211 1045 211 1045 189 1062 c 1,32,-1
 187 1069 l 1,33,-1
 364 1268 l 1,34,-1
 392 1252 l 1,28,-1
EndSplineSet
EndChar

StartChar: plus
Encoding: 43 43 14
Width: 1120
GlyphClass: 2
Flags: W
LayerCount: 2
Fore
SplineSet
584 1092 m 1,0,-1
 584 653 l 1,1,-1
 1023 653 l 1,2,-1
 1029 646 l 1,3,-1
 1025 606 l 1,4,-1
 584 606 l 1,5,-1
 584 165 l 1,6,-1
 544 161 l 1,7,-1
 537 168 l 1,8,-1
 537 606 l 1,9,-1
 98 606 l 1,10,-1
 91 614 l 1,11,-1
 96 653 l 1,12,-1
 537 653 l 1,13,-1
 537 1096 l 1,14,-1
 577 1100 l 1,15,-1
 584 1092 l 1,0,-1
EndSplineSet
EndChar

StartChar: comma
Encoding: 44 44 15
Width: 536
GlyphClass: 2
Flags: W
LayerCount: 2
Fore
SplineSet
259 96 m 1,0,1
 348 54 348 54 348 -16 c 0,2,3
 348 -63 348 -63 308.5 -119.5 c 128,-1,4
 269 -176 269 -176 194 -234 c 1,5,-1
 171 -207 l 1,6,-1
 173 -201 l 1,7,8
 234 -156 234 -156 266.5 -108.5 c 128,-1,9
 299 -61 299 -61 299 -18 c 0,10,11
 299 28 299 28 229 60 c 1,12,-1
 229 70 l 1,13,14
 243 88 243 88 259 96 c 1,0,1
EndSplineSet
EndChar

StartChar: hyphen
Encoding: 45 45 16
Width: 725
GlyphClass: 2
Flags: W
LayerCount: 2
Fore
SplineSet
653 646 m 1,0,-1
 653 610 l 1,1,-1
 82 532 l 1,2,-1
 72 542 l 1,3,-1
 72 579 l 1,4,-1
 644 656 l 1,5,-1
 653 646 l 1,0,-1
EndSplineSet
EndChar

StartChar: period
Encoding: 46 46 17
Width: 536
GlyphClass: 2
Flags: W
LayerCount: 2
Fore
SplineSet
269 89 m 128,-1,1
 290 89 290 89 302.5 76.5 c 128,-1,2
 315 64 315 64 315 42.5 c 128,-1,3
 315 21 315 21 302.5 8 c 128,-1,4
 290 -5 290 -5 269 -5 c 128,-1,5
 248 -5 248 -5 235 8 c 128,-1,6
 222 21 222 21 222 42.5 c 128,-1,7
 222 64 222 64 235 76.5 c 128,-1,0
 248 89 248 89 269 89 c 128,-1,1
EndSplineSet
EndChar

StartChar: slash
Encoding: 47 47 18
Width: 678
GlyphClass: 2
Flags: W
LayerCount: 2
Fore
SplineSet
630 1564 m 1,0,-1
 154 -256 l 1,1,-1
 116 -256 l 1,2,-1
 109 -247 l 1,3,-1
 586 1575 l 1,4,-1
 624 1575 l 1,5,-1
 630 1564 l 1,0,-1
EndSplineSet
Substitution2: "'frac' Diagonal Fractions lookup 19 subtable" fraction
Substitution2: "'aalt' Access All Alternates lookup 0 subtable" fraction
EndChar

StartChar: zero
Encoding: 48 48 19
Width: 1108
GlyphClass: 2
Flags: W
LayerCount: 2
Fore
SplineSet
557 1370 m 0,0,1
 764 1370 764 1370 875.5 1192.5 c 128,-1,2
 987 1015 987 1015 987 684 c 0,3,4
 987 349 987 349 875 170 c 128,-1,5
 763 -9 763 -9 553 -9 c 0,6,7
 344 -9 344 -9 232.5 169 c 128,-1,8
 121 347 121 347 121 679.5 c 128,-1,9
 121 1012 121 1012 234 1191 c 128,-1,10
 347 1370 347 1370 557 1370 c 0,0,1
553 1324 m 0,11,12
 367 1324 367 1324 266 1157.5 c 128,-1,13
 165 991 165 991 165 684 c 0,14,15
 165 372 165 372 266.5 205 c 128,-1,16
 368 38 368 38 557 38 c 0,17,18
 742 38 742 38 842.5 204.5 c 128,-1,19
 943 371 943 371 943 679 c 0,20,21
 943 989 943 989 841.5 1156.5 c 128,-1,22
 740 1324 740 1324 553 1324 c 0,11,12
EndSplineSet
Substitution2: "'case' Case-Sensitive Forms lookup 28 subtable" zero.lf
Substitution2: "'tnum' Tabular Numbers lookup 25 subtable" zero.tosf
Substitution2: "'lnum' Lining Figures lookup 23 subtable" zero.lf
Substitution2: "'frac' Diagonal Fractions lookup 20 subtable" zero.numr
Substitution2: "'dnom' Denominators lookup 18 subtable" zero.dnom
Substitution2: "'numr' Numerators lookup 17 subtable" zero.numr
Substitution2: "'sups' Superscript lookup 16 subtable" zerosuperior
Substitution2: "'sinf' Scientific Inferiors lookup 15 subtable" zero.sinf
AlternateSubs2: "'aalt' Access All Alternates lookup 1 subtable" zero.sinf zerosuperior zero.numr zero.dnom zero.lf zero.tosf
EndChar

StartChar: one
Encoding: 49 49 20
Width: 1108
GlyphClass: 2
Flags: W
LayerCount: 2
Fore
SplineSet
610 1375 m 1,0,-1
 610 0 l 1,1,-1
 563 0 l 1,2,-1
 563 1321 l 1,3,-1
 129 1216 l 1,4,-1
 114 1223 l 1,5,-1
 114 1261 l 1,6,-1
 597 1384 l 1,7,-1
 610 1375 l 1,0,-1
EndSplineSet
Substitution2: "'ss02' Style Set 2 lookup 36 subtable" arrowleft
Substitution2: "'case' Case-Sensitive Forms lookup 28 subtable" one.lf
Substitution2: "'tnum' Tabular Numbers lookup 25 subtable" one.tosf
Substitution2: "'lnum' Lining Figures lookup 23 subtable" one.lf
Substitution2: "'frac' Diagonal Fractions lookup 20 subtable" one.numr
Substitution2: "'dnom' Denominators lookup 18 subtable" one.dnom
Substitution2: "'numr' Numerators lookup 17 subtable" one.numr
Substitution2: "'sups' Superscript lookup 16 subtable" onesuperior
Substitution2: "'sinf' Scientific Inferiors lookup 15 subtable" one.sinf
AlternateSubs2: "'aalt' Access All Alternates lookup 1 subtable" one.sinf onesuperior one.numr one.dnom one.lf one.tosf arrowleft
EndChar

StartChar: two
Encoding: 50 50 21
Width: 1108
GlyphClass: 2
Flags: W
LayerCount: 2
Fore
SplineSet
555 1375 m 0,0,1
 688 1375 688 1375 771.5 1297.5 c 128,-1,2
 855 1220 855 1220 855 1102 c 0,3,4
 855 1056 855 1056 840.5 1004.5 c 128,-1,5
 826 953 826 953 802.5 904 c 128,-1,6
 779 855 779 855 735 786.5 c 128,-1,7
 691 718 691 718 649 658.5 c 128,-1,8
 607 599 607 599 537 506 c 2,9,-1
 198 54 l 1,10,-1
 203 47 l 1,11,-1
 833 47 l 1,12,-1
 1041 49 l 1,13,-1
 1049 38 l 1,14,-1
 1039 -2 l 1,15,-1
 824 0 l 1,16,-1
 241 0 l 1,17,-1
 138 -2 l 1,18,-1
 133 2 l 1,19,-1
 133 42 l 1,20,-1
 506 542 l 2,21,22
 573 631 573 631 611.5 685 c 128,-1,23
 650 739 650 739 693 804.5 c 128,-1,24
 736 870 736 870 757.5 915 c 128,-1,25
 779 960 779 960 793.5 1008 c 128,-1,26
 808 1056 808 1056 808 1098 c 0,27,28
 808 1197 808 1197 740 1262.5 c 128,-1,29
 672 1328 672 1328 551 1328 c 0,30,31
 447 1328 447 1328 352.5 1272 c 128,-1,32
 258 1216 258 1216 180 1112 c 1,33,-1
 171 1112 l 1,34,-1
 161 1151 l 1,35,36
 234 1256 234 1256 336.5 1315.5 c 128,-1,37
 439 1375 439 1375 555 1375 c 0,0,1
EndSplineSet
Substitution2: "'ss02' Style Set 2 lookup 36 subtable" arrowup
Substitution2: "'case' Case-Sensitive Forms lookup 28 subtable" two.lf
Substitution2: "'tnum' Tabular Numbers lookup 25 subtable" two.tosf
Substitution2: "'lnum' Lining Figures lookup 23 subtable" two.lf
Substitution2: "'frac' Diagonal Fractions lookup 20 subtable" two.numr
Substitution2: "'dnom' Denominators lookup 18 subtable" two.dnom
Substitution2: "'numr' Numerators lookup 17 subtable" two.numr
Substitution2: "'sups' Superscript lookup 16 subtable" twosuperior
Substitution2: "'sinf' Scientific Inferiors lookup 15 subtable" two.sinf
AlternateSubs2: "'aalt' Access All Alternates lookup 1 subtable" two.sinf twosuperior two.numr two.dnom two.lf two.tosf arrowup
EndChar

StartChar: three
Encoding: 51 51 22
Width: 1108
GlyphClass: 2
Flags: W
LayerCount: 2
Fore
SplineSet
488 1377 m 0,0,1
 633 1377 633 1377 725 1301 c 128,-1,2
 817 1225 817 1225 817 1102 c 0,3,4
 817 995 817 995 742.5 898 c 128,-1,5
 668 801 668 801 546 749 c 1,6,-1
 546 742 l 1,7,8
 714 709 714 709 804 619.5 c 128,-1,9
 894 530 894 530 894 394 c 0,10,11
 894 278 894 278 829 187 c 128,-1,12
 764 96 764 96 645.5 45.5 c 128,-1,13
 527 -5 527 -5 374 -5 c 0,14,15
 262 -5 262 -5 154 14 c 1,16,-1
 145 54 l 1,17,-1
 154 60 l 1,18,19
 262 42 262 42 374 42 c 0,20,21
 588 42 588 42 717.5 138.5 c 128,-1,22
 847 235 847 235 847 394 c 0,23,24
 847 540 847 540 734 623 c 128,-1,25
 621 706 621 706 410 715 c 1,26,-1
 292 715 l 1,27,-1
 285 722 l 1,28,-1
 287 759 l 1,29,-1
 397 759 l 2,30,31
 455 759 455 759 520 785 c 128,-1,32
 585 811 585 811 640.5 854 c 128,-1,33
 696 897 696 897 732 961.5 c 128,-1,34
 768 1026 768 1026 768 1096 c 0,35,36
 768 1200 768 1200 691 1264 c 128,-1,37
 614 1328 614 1328 488 1328 c 0,38,39
 316 1328 316 1328 158 1181 c 1,40,-1
 147 1181 l 1,41,-1
 138 1223 l 1,42,43
 226 1303 226 1303 310 1340 c 128,-1,44
 394 1377 394 1377 488 1377 c 0,0,1
EndSplineSet
Substitution2: "'ss02' Style Set 2 lookup 36 subtable" arrowright
Substitution2: "'case' Case-Sensitive Forms lookup 28 subtable" three.lf
Substitution2: "'tnum' Tabular Numbers lookup 25 subtable" three.tosf
Substitution2: "'lnum' Lining Figures lookup 23 subtable" three.lf
Substitution2: "'frac' Diagonal Fractions lookup 20 subtable" three.numr
Substitution2: "'dnom' Denominators lookup 18 subtable" three.dnom
Substitution2: "'numr' Numerators lookup 17 subtable" three.numr
Substitution2: "'sups' Superscript lookup 16 subtable" threesuperior
Substitution2: "'sinf' Scientific Inferiors lookup 15 subtable" three.sinf
AlternateSubs2: "'aalt' Access All Alternates lookup 1 subtable" three.sinf threesuperior three.numr three.dnom three.lf three.tosf arrowright
EndChar

StartChar: four
Encoding: 52 52 23
Width: 1108
GlyphClass: 2
Flags: W
LayerCount: 2
Fore
SplineSet
987 490 m 1,0,-1
 980 450 l 1,1,-1
 815 453 l 1,2,-1
 735 453 l 1,3,-1
 735 7 l 1,4,-1
 731 0 l 1,5,-1
 693 -7 l 1,6,-1
 689 0 l 1,7,-1
 689 453 l 1,8,-1
 192 453 l 1,9,-1
 96 450 l 1,10,-1
 89 459 l 1,11,-1
 89 499 l 1,12,-1
 689 1368 l 1,13,-1
 735 1368 l 1,14,-1
 735 499 l 1,15,-1
 980 499 l 1,16,-1
 987 490 l 1,0,-1
689 499 m 1,17,-1
 689 1277 l 1,18,-1
 679 1277 l 1,19,-1
 145 499 l 1,20,-1
 689 499 l 1,17,-1
EndSplineSet
Substitution2: "'ss02' Style Set 2 lookup 36 subtable" arrowdown
Substitution2: "'case' Case-Sensitive Forms lookup 28 subtable" four.lf
Substitution2: "'tnum' Tabular Numbers lookup 25 subtable" four.tosf
Substitution2: "'lnum' Lining Figures lookup 23 subtable" four.lf
Substitution2: "'frac' Diagonal Fractions lookup 20 subtable" four.numr
Substitution2: "'dnom' Denominators lookup 18 subtable" four.dnom
Substitution2: "'numr' Numerators lookup 17 subtable" four.numr
Substitution2: "'sups' Superscript lookup 16 subtable" foursuperior
Substitution2: "'sinf' Scientific Inferiors lookup 15 subtable" four.sinf
AlternateSubs2: "'aalt' Access All Alternates lookup 1 subtable" four.sinf foursuperior four.numr four.dnom four.lf four.tosf arrowdown
EndChar

StartChar: five
Encoding: 53 53 24
Width: 1108
GlyphClass: 2
Flags: W
LayerCount: 2
Fore
SplineSet
934 1366 m 1,0,-1
 929 1324 l 1,1,-1
 920 1319 l 1,2,-1
 817 1321 l 1,3,-1
 310 1321 l 1,4,-1
 296 840 l 1,5,-1
 467 806 l 1,6,7
 702 757 702 757 813.5 666.5 c 128,-1,8
 925 576 925 576 925 432 c 0,9,10
 925 301 925 301 853 200.5 c 128,-1,11
 781 100 781 100 650 45.5 c 128,-1,12
 519 -9 519 -9 348 -9 c 0,13,14
 255 -9 255 -9 161 7 c 1,15,-1
 152 47 l 1,16,-1
 158 54 l 1,17,18
 264 38 264 38 350 38 c 0,19,20
 589 38 589 38 733.5 146 c 128,-1,21
 878 254 878 254 878 434 c 0,22,23
 878 555 878 555 774 633.5 c 128,-1,24
 670 712 670 712 450 759 c 1,25,-1
 261 798 l 1,26,-1
 250 811 l 1,27,-1
 263 1352 l 1,28,-1
 287 1370 l 1,29,-1
 413 1368 l 1,30,-1
 762 1368 l 1,31,-1
 927 1370 l 1,32,-1
 934 1366 l 1,0,-1
EndSplineSet
Substitution2: "'ss02' Style Set 2 lookup 36 subtable" arrowupleft
Substitution2: "'case' Case-Sensitive Forms lookup 28 subtable" five.lf
Substitution2: "'tnum' Tabular Numbers lookup 25 subtable" five.tosf
Substitution2: "'lnum' Lining Figures lookup 23 subtable" five.lf
Substitution2: "'frac' Diagonal Fractions lookup 20 subtable" five.numr
Substitution2: "'dnom' Denominators lookup 18 subtable" five.dnom
Substitution2: "'numr' Numerators lookup 17 subtable" five.numr
Substitution2: "'sups' Superscript lookup 16 subtable" fivesuperior
Substitution2: "'sinf' Scientific Inferiors lookup 15 subtable" five.sinf
AlternateSubs2: "'aalt' Access All Alternates lookup 1 subtable" five.sinf fivesuperior five.numr five.dnom five.lf five.tosf arrowupleft
EndChar

StartChar: six
Encoding: 54 54 25
Width: 1108
GlyphClass: 2
Flags: W
LayerCount: 2
Fore
SplineSet
593 782 m 0,0,1
 768 782 768 782 865 684.5 c 128,-1,2
 962 587 962 587 962 406 c 0,3,4
 962 202 962 202 855 94 c 128,-1,5
 748 -14 748 -14 546 -14 c 0,6,7
 355 -14 355 -14 252 114.5 c 128,-1,8
 149 243 149 243 149 481 c 0,9,10
 149 794 149 794 335 1028 c 128,-1,11
 521 1262 521 1262 862 1382 c 1,12,-1
 871 1382 l 1,13,-1
 891 1357 l 1,14,-1
 891 1347 l 1,15,16
 601 1244 601 1244 427 1064.5 c 128,-1,17
 253 885 253 885 210 644 c 1,18,-1
 214 642 l 1,19,20
 388 782 388 782 593 782 c 0,0,1
546 33 m 0,21,22
 725 33 725 33 820 129 c 128,-1,23
 915 225 915 225 915 406 c 0,24,25
 915 564 915 564 829.5 649.5 c 128,-1,26
 744 735 744 735 591 735 c 0,27,28
 385 735 385 735 201 577 c 1,29,30
 196 515 196 515 196 481 c 0,31,32
 196 265 196 265 286 149 c 128,-1,33
 376 33 376 33 546 33 c 0,21,22
EndSplineSet
Substitution2: "'ss02' Style Set 2 lookup 36 subtable" arrowupright
Substitution2: "'case' Case-Sensitive Forms lookup 28 subtable" six.lf
Substitution2: "'tnum' Tabular Numbers lookup 25 subtable" six.tosf
Substitution2: "'lnum' Lining Figures lookup 23 subtable" six.lf
Substitution2: "'frac' Diagonal Fractions lookup 20 subtable" six.numr
Substitution2: "'dnom' Denominators lookup 18 subtable" six.dnom
Substitution2: "'numr' Numerators lookup 17 subtable" six.numr
Substitution2: "'sups' Superscript lookup 16 subtable" sixsuperior
Substitution2: "'sinf' Scientific Inferiors lookup 15 subtable" six.sinf
AlternateSubs2: "'aalt' Access All Alternates lookup 1 subtable" six.sinf sixsuperior six.numr six.dnom six.lf six.tosf arrowupright
EndChar

StartChar: seven
Encoding: 55 55 26
Width: 1108
GlyphClass: 2
Flags: W
LayerCount: 2
Fore
SplineSet
287 1368 m 1,0,-1
 889 1368 l 1,1,-1
 980 1370 l 1,2,-1
 983 1328 l 1,3,-1
 418 178 l 1,4,-1
 329 -23 l 1,5,-1
 283 -9 l 1,6,-1
 280 0 l 1,7,-1
 931 1321 l 1,8,-1
 271 1321 l 1,9,-1
 127 1319 l 1,10,-1
 116 1330 l 1,11,-1
 124 1370 l 1,12,-1
 287 1368 l 1,0,-1
EndSplineSet
Substitution2: "'ss02' Style Set 2 lookup 36 subtable" arrowdownright
Substitution2: "'case' Case-Sensitive Forms lookup 28 subtable" seven.lf
Substitution2: "'tnum' Tabular Numbers lookup 25 subtable" seven.tosf
Substitution2: "'lnum' Lining Figures lookup 23 subtable" seven.lf
Substitution2: "'frac' Diagonal Fractions lookup 20 subtable" seven.numr
Substitution2: "'dnom' Denominators lookup 18 subtable" seven.dnom
Substitution2: "'numr' Numerators lookup 17 subtable" seven.numr
Substitution2: "'sups' Superscript lookup 16 subtable" sevensuperior
Substitution2: "'sinf' Scientific Inferiors lookup 15 subtable" seven.sinf
AlternateSubs2: "'aalt' Access All Alternates lookup 1 subtable" seven.sinf sevensuperior seven.numr seven.dnom seven.lf seven.tosf arrowdownright
EndChar

StartChar: eight
Encoding: 56 56 27
Width: 1108
GlyphClass: 2
Flags: W
LayerCount: 2
Fore
SplineSet
568 1375 m 0,0,1
 722 1375 722 1375 810 1292.5 c 128,-1,2
 898 1210 898 1210 898 1065 c 0,3,4
 898 1007 898 1007 882 958 c 128,-1,5
 866 909 866 909 839.5 873.5 c 128,-1,6
 813 838 813 838 773.5 807.5 c 128,-1,7
 734 777 734 777 694 756.5 c 128,-1,8
 654 736 654 736 604 717 c 1,9,-1
 604 710 l 1,10,11
 648 693 648 693 676.5 681 c 128,-1,12
 705 669 705 669 744.5 649 c 128,-1,13
 784 629 784 629 810 610 c 128,-1,14
 836 591 836 591 864.5 563.5 c 128,-1,15
 893 536 893 536 909.5 506.5 c 128,-1,16
 926 477 926 477 936.5 437 c 128,-1,17
 947 397 947 397 947 352 c 0,18,19
 947 187 947 187 834.5 89 c 128,-1,20
 722 -9 722 -9 535 -9 c 0,21,22
 355 -9 355 -9 247.5 85.5 c 128,-1,23
 140 180 140 180 140 336 c 0,24,25
 140 398 140 398 160.5 452 c 128,-1,26
 181 506 181 506 212.5 544.5 c 128,-1,27
 244 583 244 583 290 616.5 c 128,-1,28
 336 650 336 650 380 671.5 c 128,-1,29
 424 693 424 693 477 712 c 1,30,-1
 477 719 l 1,31,32
 429 739 429 739 393 759 c 128,-1,33
 357 779 357 779 320 808 c 128,-1,34
 283 837 283 837 259 870 c 128,-1,35
 235 903 235 903 220 948.5 c 128,-1,36
 205 994 205 994 205 1047 c 0,37,38
 205 1199 205 1199 306.5 1287 c 128,-1,39
 408 1375 408 1375 568 1375 c 0,0,1
568 1328 m 0,40,41
 427 1328 427 1328 339.5 1252 c 128,-1,42
 252 1176 252 1176 252 1047 c 0,43,44
 252 1009 252 1009 260.5 976 c 128,-1,45
 269 943 269 943 282.5 917.5 c 128,-1,46
 296 892 296 892 319 868.5 c 128,-1,47
 342 845 342 845 364.5 828 c 128,-1,48
 387 811 387 811 419.5 793.5 c 128,-1,49
 452 776 452 776 478 764.5 c 128,-1,50
 504 753 504 753 542 738 c 1,51,52
 593 754 593 754 633.5 771.5 c 128,-1,53
 674 789 674 789 717 817.5 c 128,-1,54
 760 846 760 846 788 879.5 c 128,-1,55
 816 913 816 913 834.5 961.5 c 128,-1,56
 853 1010 853 1010 853 1067 c 0,57,58
 853 1189 853 1189 777 1258.5 c 128,-1,59
 701 1328 701 1328 568 1328 c 0,40,41
537 691 m 1,60,61
 497 677 497 677 466.5 664 c 128,-1,62
 436 651 436 651 398 632 c 128,-1,63
 360 613 360 613 331.5 593 c 128,-1,64
 303 573 303 573 274.5 545.5 c 128,-1,65
 246 518 246 518 228 487.5 c 128,-1,66
 210 457 210 457 198.5 417.5 c 128,-1,67
 187 378 187 378 187 334 c 0,68,69
 187 200 187 200 281.5 119 c 128,-1,70
 376 38 376 38 535 38 c 0,71,72
 703 38 703 38 802.5 122.5 c 128,-1,73
 902 207 902 207 902 348 c 0,74,75
 902 389 902 389 891 425.5 c 128,-1,76
 880 462 880 462 865 488.5 c 128,-1,77
 850 515 850 515 820.5 541 c 128,-1,78
 791 567 791 567 768 583.5 c 128,-1,79
 745 600 745 600 702 620.5 c 128,-1,80
 659 641 659 641 634 651.5 c 128,-1,81
 609 662 609 662 560 682 c 0,82,83
 545 688 545 688 537 691 c 1,60,61
EndSplineSet
Substitution2: "'ss02' Style Set 2 lookup 36 subtable" arrowdownleft
Substitution2: "'case' Case-Sensitive Forms lookup 28 subtable" eight.lf
Substitution2: "'tnum' Tabular Numbers lookup 25 subtable" eight.tosf
Substitution2: "'lnum' Lining Figures lookup 23 subtable" eight.lf
Substitution2: "'frac' Diagonal Fractions lookup 20 subtable" eight.numr
Substitution2: "'dnom' Denominators lookup 18 subtable" eight.dnom
Substitution2: "'numr' Numerators lookup 17 subtable" eight.numr
Substitution2: "'sups' Superscript lookup 16 subtable" eightsuperior
Substitution2: "'sinf' Scientific Inferiors lookup 15 subtable" eight.sinf
AlternateSubs2: "'aalt' Access All Alternates lookup 1 subtable" eight.sinf eightsuperior eight.numr eight.dnom eight.lf eight.tosf arrowdownleft
EndChar

StartChar: nine
Encoding: 57 57 28
Width: 1108
GlyphClass: 2
Flags: W
LayerCount: 2
Fore
SplineSet
575 1387 m 0,0,1
 765 1387 765 1387 868 1258.5 c 128,-1,2
 971 1130 971 1130 971 891 c 0,3,4
 971 579 971 579 785 344.5 c 128,-1,5
 599 110 599 110 259 -9 c 1,6,-1
 250 -9 l 1,7,-1
 229 16 l 1,8,-1
 229 26 l 1,9,10
 520 130 520 130 693.5 309 c 128,-1,11
 867 488 867 488 911 728 c 1,12,-1
 906 731 l 1,13,14
 733 591 733 591 528 591 c 0,15,16
 353 591 353 591 255.5 688.5 c 128,-1,17
 158 786 158 786 158 967 c 0,18,19
 158 1170 158 1170 265.5 1278.5 c 128,-1,20
 373 1387 373 1387 575 1387 c 0,0,1
530 637 m 0,21,22
 736 637 736 637 920 796 c 1,23,24
 925 857 925 857 925 891 c 0,25,26
 925 1108 925 1108 834.5 1224.5 c 128,-1,27
 744 1341 744 1341 575 1341 c 0,28,29
 396 1341 396 1341 300.5 1244 c 128,-1,30
 205 1147 205 1147 205 967 c 0,31,32
 205 809 205 809 291 723 c 128,-1,33
 377 637 377 637 530 637 c 0,21,22
EndSplineSet
Substitution2: "'case' Case-Sensitive Forms lookup 28 subtable" nine.lf
Substitution2: "'tnum' Tabular Numbers lookup 25 subtable" nine.tosf
Substitution2: "'lnum' Lining Figures lookup 23 subtable" nine.lf
Substitution2: "'frac' Diagonal Fractions lookup 20 subtable" nine.numr
Substitution2: "'dnom' Denominators lookup 18 subtable" nine.dnom
Substitution2: "'numr' Numerators lookup 17 subtable" nine.numr
Substitution2: "'sups' Superscript lookup 16 subtable" ninesuperior
Substitution2: "'sinf' Scientific Inferiors lookup 15 subtable" nine.sinf
AlternateSubs2: "'aalt' Access All Alternates lookup 1 subtable" nine.sinf ninesuperior nine.numr nine.dnom nine.lf nine.tosf
EndChar

StartChar: colon
Encoding: 58 58 29
Width: 536
GlyphClass: 2
Flags: W
LayerCount: 2
Fore
SplineSet
258.5 735 m 128,-1,1
 280 735 280 735 293 722.5 c 128,-1,2
 306 710 306 710 306 688.5 c 128,-1,3
 306 667 306 667 293 654.5 c 128,-1,4
 280 642 280 642 258.5 642 c 128,-1,5
 237 642 237 642 224.5 654.5 c 128,-1,6
 212 667 212 667 212 688.5 c 128,-1,7
 212 710 212 710 224.5 722.5 c 128,-1,0
 237 735 237 735 258.5 735 c 128,-1,1
258.5 89 m 128,-1,9
 280 89 280 89 293 76.5 c 128,-1,10
 306 64 306 64 306 42.5 c 128,-1,11
 306 21 306 21 293 8 c 128,-1,12
 280 -5 280 -5 258.5 -5 c 128,-1,13
 237 -5 237 -5 224.5 8 c 128,-1,14
 212 21 212 21 212 42.5 c 128,-1,15
 212 64 212 64 224.5 76.5 c 128,-1,8
 237 89 237 89 258.5 89 c 128,-1,9
EndSplineSet
EndChar

StartChar: semicolon
Encoding: 59 59 30
Width: 536
GlyphClass: 2
Flags: W
LayerCount: 2
Fore
SplineSet
258.5 735 m 128,-1,1
 280 735 280 735 293 722.5 c 128,-1,2
 306 710 306 710 306 688.5 c 128,-1,3
 306 667 306 667 293 654.5 c 128,-1,4
 280 642 280 642 258.5 642 c 128,-1,5
 237 642 237 642 224.5 654.5 c 128,-1,6
 212 667 212 667 212 688.5 c 128,-1,7
 212 710 212 710 224.5 722.5 c 128,-1,0
 237 735 237 735 258.5 735 c 128,-1,1
250 96 m 1,8,9
 339 54 339 54 339 -16 c 0,10,11
 339 -63 339 -63 299 -119.5 c 128,-1,12
 259 -176 259 -176 185 -234 c 1,13,-1
 161 -207 l 1,14,-1
 163 -201 l 1,15,16
 224 -156 224 -156 257 -108.5 c 128,-1,17
 290 -61 290 -61 290 -18 c 0,18,19
 290 28 290 28 220 60 c 1,20,-1
 220 70 l 1,21,22
 234 88 234 88 250 96 c 1,8,9
EndSplineSet
EndChar

StartChar: less
Encoding: 60 60 31
Width: 1120
GlyphClass: 2
Flags: W
LayerCount: 2
Fore
SplineSet
1025 1029 m 1,0,-1
 1018 1018 l 1,1,-1
 154 635 l 1,2,-1
 154 626 l 1,3,-1
 1027 269 l 1,4,-1
 1013 234 l 1,5,-1
 1004 229 l 1,6,-1
 93 602 l 1,7,-1
 93 653 l 1,8,-1
 100 663 l 1,9,-1
 1009 1062 l 1,10,-1
 1025 1029 l 1,0,-1
EndSplineSet
EndChar

StartChar: equal
Encoding: 61 61 32
Width: 1120
GlyphClass: 2
Flags: W
LayerCount: 2
Fore
SplineSet
1029 815 m 1,0,-1
 1025 775 l 1,1,-1
 98 775 l 1,2,-1
 91 782 l 1,3,-1
 96 822 l 1,4,-1
 1023 822 l 1,5,-1
 1029 815 l 1,0,-1
1029 479 m 1,6,-1
 1025 439 l 1,7,-1
 98 439 l 1,8,-1
 91 446 l 1,9,-1
 96 486 l 1,10,-1
 1023 486 l 1,11,-1
 1029 479 l 1,6,-1
EndSplineSet
EndChar

StartChar: greater
Encoding: 62 62 33
Width: 1120
GlyphClass: 2
Flags: W
LayerCount: 2
Fore
SplineSet
1020 663 m 1,0,-1
 1027 653 l 1,1,-1
 1027 602 l 1,2,-1
 116 229 l 1,3,-1
 107 234 l 1,4,-1
 93 269 l 1,5,-1
 967 626 l 1,6,-1
 967 635 l 1,7,-1
 103 1018 l 1,8,-1
 96 1029 l 1,9,-1
 112 1062 l 1,10,-1
 1020 663 l 1,0,-1
EndSplineSet
EndChar

StartChar: question
Encoding: 63 63 34
Width: 751
GlyphClass: 2
Flags: W
LayerCount: 2
Fore
SplineSet
189 1520 m 1,0,-1
 203 1526 l 1,1,2
 457 1505 457 1505 592.5 1412.5 c 128,-1,3
 728 1320 728 1320 728 1167 c 0,4,5
 728 1082 728 1082 682 1005.5 c 128,-1,6
 636 929 636 929 548 869 c 2,7,-1
 325 715 l 1,8,-1
 323 708 l 1,9,-1
 334 455 l 1,10,-1
 294 453 l 1,11,-1
 287 463 l 1,12,-1
 274 719 l 1,13,-1
 285 740 l 1,14,-1
 521 902 l 1,15,16
 598 951 598 951 640 1018.5 c 128,-1,17
 682 1086 682 1086 682 1163 c 0,18,19
 682 1301 682 1301 552 1383.5 c 128,-1,20
 422 1466 422 1466 180 1480 c 1,21,-1
 176 1488 l 1,22,-1
 189 1520 l 1,0,-1
314.5 89 m 128,-1,24
 336 89 336 89 348.5 76.5 c 128,-1,25
 361 64 361 64 361 42.5 c 128,-1,26
 361 21 361 21 348.5 8 c 128,-1,27
 336 -5 336 -5 314.5 -5 c 128,-1,28
 293 -5 293 -5 281 8 c 128,-1,29
 269 21 269 21 269 42.5 c 128,-1,30
 269 64 269 64 281 76.5 c 128,-1,23
 293 89 293 89 314.5 89 c 128,-1,24
EndSplineSet
EndChar

StartChar: at
Encoding: 64 64 35
Width: 1878
GlyphClass: 2
Flags: W
LayerCount: 2
Fore
SplineSet
1029 1382 m 0,0,1
 1199 1382 1199 1382 1340 1329 c 128,-1,2
 1481 1276 1481 1276 1578 1182 c 128,-1,3
 1675 1088 1675 1088 1728.5 955 c 128,-1,4
 1782 822 1782 822 1782 663 c 0,5,6
 1782 356 1782 356 1601 184 c 128,-1,7
 1420 12 1420 12 1081 -9 c 1,8,-1
 1165 633 l 1,9,-1
 1154 633 l 1,10,11
 1050 436 1050 436 927.5 269 c 128,-1,12
 805 102 805 102 682 -9 c 1,13,-1
 656 -9 l 1,14,15
 592 38 592 38 563.5 112 c 128,-1,16
 535 186 535 186 535 320 c 0,17,18
 535 438 535 438 557 546 c 128,-1,19
 579 654 579 654 623.5 746 c 128,-1,20
 668 838 668 838 730.5 907 c 128,-1,21
 793 976 793 976 879 1018 c 128,-1,22
 965 1060 965 1060 1065 1067 c 1,23,-1
 1074 1067 l 1,24,-1
 1226 1056 l 1,25,-1
 1256 1072 l 1,26,-1
 1268 1065 l 1,27,-1
 1161 247 l 1,28,-1
 1141 38 l 1,29,30
 1430 66 1430 66 1582.5 225.5 c 128,-1,31
 1735 385 1735 385 1735 663 c 0,32,33
 1735 813 1735 813 1686 937.5 c 128,-1,34
 1637 1062 1637 1062 1546.5 1150 c 128,-1,35
 1456 1238 1456 1238 1323.5 1286.5 c 128,-1,36
 1191 1335 1191 1335 1029 1335 c 0,37,38
 834 1335 834 1335 669.5 1270 c 128,-1,39
 505 1205 505 1205 391 1089.5 c 128,-1,40
 277 974 277 974 213 810 c 128,-1,41
 149 646 149 646 149 453 c 0,42,43
 149 259 149 259 214 101.5 c 128,-1,44
 279 -56 279 -56 396.5 -163 c 128,-1,45
 514 -270 514 -270 681 -327.5 c 128,-1,46
 848 -385 848 -385 1051 -385 c 1,47,-1
 1053 -394 l 1,48,-1
 1023 -432 l 1,49,50
 818 -428 818 -428 647.5 -364 c 128,-1,51
 477 -300 477 -300 356.5 -187.5 c 128,-1,52
 236 -75 236 -75 169.5 87 c 128,-1,53
 103 249 103 249 103 443 c 0,54,55
 103 652 103 652 170 827 c 128,-1,56
 237 1002 237 1002 357.5 1124 c 128,-1,57
 478 1246 478 1246 651 1314 c 128,-1,58
 824 1382 824 1382 1029 1382 c 0,0,1
675 56 m 0,59,60
 685 56 685 56 718 86.5 c 128,-1,61
 751 117 751 117 803.5 180 c 128,-1,62
 856 243 856 243 916 327 c 128,-1,63
 976 411 976 411 1048.5 532 c 128,-1,64
 1121 653 1121 653 1186 784 c 1,65,-1
 1194 845 l 1,66,-1
 1210 1009 l 1,67,-1
 1069 1020 l 1,68,69
 980 1018 980 1018 901.5 980 c 128,-1,70
 823 942 823 942 765 876.5 c 128,-1,71
 707 811 707 811 665.5 724 c 128,-1,72
 624 637 624 637 602.5 536.5 c 128,-1,73
 581 436 581 436 581 329 c 0,74,75
 581 270 581 270 588 221.5 c 128,-1,76
 595 173 595 173 606 143 c 128,-1,77
 617 113 617 113 630 92.5 c 128,-1,78
 643 72 643 72 654.5 64 c 128,-1,79
 666 56 666 56 675 56 c 0,59,60
EndSplineSet
EndChar

StartChar: A
Encoding: 65 65 36
Width: 1292
GlyphClass: 2
Flags: W
AnchorPoint: "Anchor-1" 0 0 basechar 0
AnchorPoint: "Anchor-0" 646 1487 basechar 0
LayerCount: 2
Fore
SplineSet
1228 0 m 1,0,-1
 1174 0 l 1,1,-1
 1145 100 l 1,2,-1
 996 497 l 1,3,-1
 292 497 l 1,4,-1
 133 100 l 1,5,-1
 100 0 l 1,6,-1
 44 0 l 1,7,-1
 637 1488 l 1,8,-1
 684 1488 l 1,9,-1
 1228 0 l 1,0,-1
980 544 m 1,10,-1
 663 1408 l 1,11,-1
 653 1408 l 1,12,-1
 310 544 l 1,13,-1
 980 544 l 1,10,-1
EndSplineSet
Position2: "'cpsp' Capital Spacing lookup 0 subtable" dx=16 dy=0 dh=33 dv=0
EndChar

StartChar: B
Encoding: 66 66 37
Width: 1147
GlyphClass: 2
Flags: W
LayerCount: 2
Fore
SplineSet
702 780 m 1,0,1
 863 756 863 756 953 663.5 c 128,-1,2
 1043 571 1043 571 1043 410 c 0,3,4
 1043 212 1043 212 905.5 102.5 c 128,-1,5
 768 -7 768 -7 512 -7 c 0,6,7
 376 -7 376 -7 256 0 c 1,8,-1
 256 1488 l 1,9,-1
 544 1492 l 1,10,11
 728 1492 728 1492 827.5 1402.5 c 128,-1,12
 927 1313 927 1313 927 1147 c 0,13,14
 927 1007 927 1007 868.5 915 c 128,-1,15
 810 823 810 823 702 780 c 1,0,1
561 1443 m 2,16,-1
 303 1443 l 1,17,-1
 303 800 l 1,18,-1
 606 793 l 1,19,20
 738 820 738 820 808 911.5 c 128,-1,21
 878 1003 878 1003 878 1147 c 0,22,23
 878 1283 878 1283 792 1363 c 128,-1,24
 706 1443 706 1443 561 1443 c 2,16,-1
502 40 m 0,25,26
 739 40 739 40 867.5 137 c 128,-1,27
 996 234 996 234 996 410 c 0,28,29
 996 560 996 560 901 646.5 c 128,-1,30
 806 733 806 733 628 747 c 1,31,-1
 303 747 l 1,32,-1
 303 47 l 1,33,34
 394 40 394 40 502 40 c 0,25,26
EndSplineSet
Position2: "'cpsp' Capital Spacing lookup 0 subtable" dx=16 dy=0 dh=33 dv=0
EndChar

StartChar: C
Encoding: 67 67 38
Width: 1220
GlyphClass: 2
Flags: W
AnchorPoint: "Anchor-1" 704 0 basechar 0
AnchorPoint: "Anchor-0" 730 1487 basechar 0
LayerCount: 2
Fore
SplineSet
731 1497 m 0,0,1
 842 1497 842 1497 949 1461 c 128,-1,2
 1056 1425 1056 1425 1141 1359 c 1,3,-1
 1125 1319 l 1,4,-1
 1109 1319 l 1,5,6
 1030 1382 1030 1382 933 1416 c 128,-1,7
 836 1450 836 1450 731 1450 c 0,8,9
 453 1450 453 1450 305.5 1265.5 c 128,-1,10
 158 1081 158 1081 158 738 c 0,11,12
 158 398 158 398 299 216.5 c 128,-1,13
 440 35 440 35 702 35 c 0,14,15
 814 35 814 35 925.5 75.5 c 128,-1,16
 1037 116 1037 116 1130 192 c 1,17,-1
 1147 187 l 1,18,-1
 1141 145 l 1,19,20
 1043 70 1043 70 929 29.5 c 128,-1,21
 815 -11 815 -11 705 -11 c 0,22,23
 418 -11 418 -11 265 183 c 128,-1,24
 112 377 112 377 112 740 c 0,25,26
 112 1105 112 1105 272 1301 c 128,-1,27
 432 1497 432 1497 731 1497 c 0,0,1
EndSplineSet
Substitution2: "Single Substitution lookup 41 subtable" C.ss01
Substitution2: "'ss01' Style Set 1 lookup 35 subtable" C.ss01
Substitution2: "'aalt' Access All Alternates lookup 0 subtable" C.ss01
Position2: "'cpsp' Capital Spacing lookup 0 subtable" dx=16 dy=0 dh=33 dv=0
EndChar

StartChar: D
Encoding: 68 68 39
Width: 1486
GlyphClass: 2
Flags: W
AnchorPoint: "Anchor-1" 0 0 basechar 0
AnchorPoint: "Anchor-0" 719 1487 basechar 0
LayerCount: 2
Fore
SplineSet
256 1488 m 1,0,-1
 726 1499 l 1,1,2
 1040 1499 1040 1499 1207.5 1316 c 128,-1,3
 1375 1133 1375 1133 1375 791 c 0,4,5
 1375 404 1375 404 1200.5 196.5 c 128,-1,6
 1026 -11 1026 -11 702 -11 c 0,7,8
 656 -11 656 -11 493 -7 c 128,-1,9
 330 -3 330 -3 256 0 c 1,10,-1
 256 1488 l 1,0,-1
702 35 m 0,11,12
 1003 35 1003 35 1165.5 231 c 128,-1,13
 1328 427 1328 427 1328 791 c 0,14,15
 1328 1110 1328 1110 1172.5 1281 c 128,-1,16
 1017 1452 1017 1452 726 1452 c 0,17,18
 686 1452 686 1452 528 1448 c 128,-1,19
 370 1444 370 1444 303 1441 c 1,20,-1
 303 47 l 1,21,22
 554 35 554 35 702 35 c 0,11,12
EndSplineSet
Substitution2: "Single Substitution lookup 41 subtable" D.ss01
Substitution2: "'ss01' Style Set 1 lookup 35 subtable" D.ss01
Substitution2: "'aalt' Access All Alternates lookup 0 subtable" D.ss01
Position2: "'cpsp' Capital Spacing lookup 0 subtable" dx=16 dy=0 dh=33 dv=0
EndChar

StartChar: E
Encoding: 69 69 40
Width: 1059
GlyphClass: 2
Flags: W
AnchorPoint: "Anchor-1" 623 0 basechar 0
AnchorPoint: "Anchor-0" 621 1487 basechar 0
LayerCount: 2
Fore
SplineSet
992 38 m 1,0,-1
 983 0 l 1,1,-1
 256 0 l 1,2,-1
 256 1488 l 1,3,-1
 976 1488 l 1,4,-1
 983 1477 l 1,5,-1
 974 1441 l 1,6,-1
 303 1441 l 1,7,-1
 303 793 l 1,8,-1
 860 793 l 1,9,-1
 866 784 l 1,10,-1
 857 747 l 1,11,-1
 303 747 l 1,12,-1
 303 47 l 1,13,-1
 985 47 l 1,14,-1
 992 38 l 1,0,-1
EndSplineSet
Position2: "'cpsp' Capital Spacing lookup 0 subtable" dx=16 dy=0 dh=33 dv=0
EndChar

StartChar: F
Encoding: 70 70 41
Width: 958
GlyphClass: 2
Flags: W
LayerCount: 2
Fore
SplineSet
303 1441 m 1,0,-1
 303 771 l 1,1,-1
 833 771 l 1,2,-1
 840 762 l 1,3,-1
 831 724 l 1,4,-1
 303 724 l 1,5,-1
 303 0 l 1,6,-1
 256 0 l 1,7,-1
 256 1488 l 1,8,-1
 951 1488 l 1,9,-1
 958 1477 l 1,10,-1
 947 1441 l 1,11,-1
 303 1441 l 1,0,-1
EndSplineSet
Position2: "'cpsp' Capital Spacing lookup 0 subtable" dx=16 dy=0 dh=33 dv=0
EndChar

StartChar: G
Encoding: 71 71 42
Width: 1406
GlyphClass: 2
Flags: W
AnchorPoint: "Anchor-1" 728 0 basechar 0
AnchorPoint: "Anchor-0" 759 1487 basechar 0
LayerCount: 2
Fore
SplineSet
800 1497 m 0,0,1
 901 1497 901 1497 1009.5 1464.5 c 128,-1,2
 1118 1432 1118 1432 1221 1370 c 1,3,-1
 1207 1328 l 1,4,-1
 1190 1328 l 1,5,6
 987 1450 987 1450 800 1450 c 0,7,8
 492 1450 492 1450 325 1263.5 c 128,-1,9
 158 1077 158 1077 158 728 c 0,10,11
 158 395 158 395 303.5 215 c 128,-1,12
 449 35 449 35 717 35 c 0,13,14
 827 35 827 35 920 50 c 128,-1,15
 1013 65 1013 65 1158 105 c 1,16,-1
 1158 551 l 1,17,-1
 1205 555 l 1,18,-1
 1205 70 l 1,19,20
 1051 26 1051 26 949.5 9 c 128,-1,21
 848 -8 848 -8 719 -11 c 1,22,23
 427 -11 427 -11 269.5 181 c 128,-1,24
 112 373 112 373 112 731 c 0,25,26
 112 1100 112 1100 290.5 1298.5 c 128,-1,27
 469 1497 469 1497 800 1497 c 0,0,1
EndSplineSet
Position2: "'cpsp' Capital Spacing lookup 0 subtable" dx=16 dy=0 dh=33 dv=0
EndChar

StartChar: H
Encoding: 72 72 43
Width: 1564
GlyphClass: 2
Flags: W
AnchorPoint: "Anchor-1" 0 0 basechar 0
AnchorPoint: "Anchor-0" 770 1487 basechar 0
LayerCount: 2
Fore
SplineSet
1308 1488 m 1,0,-1
 1308 0 l 1,1,-1
 1261 0 l 1,2,-1
 1261 733 l 1,3,-1
 303 733 l 1,4,-1
 303 0 l 1,5,-1
 256 0 l 1,6,-1
 256 1488 l 1,7,-1
 303 1488 l 1,8,-1
 303 780 l 1,9,-1
 1261 780 l 1,10,-1
 1261 1488 l 1,11,-1
 1308 1488 l 1,0,-1
EndSplineSet
Position2: "'cpsp' Capital Spacing lookup 0 subtable" dx=16 dy=0 dh=33 dv=0
EndChar

StartChar: I
Encoding: 73 73 44
Width: 559
GlyphClass: 2
Flags: W
AnchorPoint: "Anchor-1" 0 0 basechar 0
AnchorPoint: "Anchor-0" 280 1487 basechar 0
LayerCount: 2
Fore
SplineSet
303 0 m 1,0,-1
 256 0 l 1,1,-1
 256 1488 l 1,2,-1
 303 1488 l 1,3,-1
 303 0 l 1,0,-1
EndSplineSet
Substitution2: "Single Substitution lookup 41 subtable" I.ss01
Substitution2: "'ss01' Style Set 1 lookup 35 subtable" I.ss01
Substitution2: "'aalt' Access All Alternates lookup 0 subtable" I.ss01
Position2: "'cpsp' Capital Spacing lookup 0 subtable" dx=16 dy=0 dh=33 dv=0
EndChar

StartChar: J
Encoding: 74 74 45
Width: 624
GlyphClass: 2
Flags: W
AnchorPoint: "Anchor-1" 0 0 basechar 0
AnchorPoint: "Anchor-0" 251 1487 basechar 0
LayerCount: 2
Fore
SplineSet
374 1488 m 1,0,-1
 374 269 l 2,1,2
 374 105 374 105 304.5 -8.5 c 128,-1,3
 235 -122 235 -122 72 -229 c 1,4,-1
 47 -203 l 1,5,-1
 47 -189 l 1,6,7
 197 -91 197 -91 262 13.5 c 128,-1,8
 327 118 327 118 327 263 c 2,9,-1
 327 1441 l 1,10,-1
 28 1441 l 1,11,-1
 18 1450 l 1,12,-1
 26 1488 l 1,13,-1
 374 1488 l 1,0,-1
EndSplineSet
Position2: "'cpsp' Capital Spacing lookup 0 subtable" dx=16 dy=0 dh=33 dv=0
EndChar

StartChar: K
Encoding: 75 75 46
Width: 1183
GlyphClass: 2
Flags: W
AnchorPoint: "Anchor-1" 639 0 basechar 0
AnchorPoint: "Anchor-0" 592 1487 basechar 0
LayerCount: 2
Fore
SplineSet
303 0 m 1,0,-1
 256 0 l 1,1,-1
 256 1488 l 1,2,-1
 303 1488 l 1,3,-1
 303 0 l 1,0,-1
1125 1488 m 1,4,-1
 434 793 l 1,5,6
 773 384 773 384 1163 11 c 1,7,-1
 1163 2 l 1,8,9
 1157 -5 1157 -5 1130 -16 c 1,10,-1
 1121 -14 l 1,11,12
 693 403 693 403 372 789 c 1,13,-1
 372 796 l 1,14,-1
 953 1377 l 1,15,-1
 1053 1488 l 1,16,-1
 1125 1488 l 1,4,-1
EndSplineSet
Position2: "'cpsp' Capital Spacing lookup 0 subtable" dx=16 dy=0 dh=33 dv=0
EndChar

StartChar: L
Encoding: 76 76 47
Width: 929
GlyphClass: 2
Flags: W
AnchorPoint: "Anchor-1" 550 0 basechar 0
AnchorPoint: "Anchor-0" 457 1487 basechar 0
LayerCount: 2
Fore
SplineSet
918 38 m 1,0,-1
 909 0 l 1,1,-1
 254 0 l 1,2,-1
 254 1488 l 1,3,-1
 301 1488 l 1,4,-1
 301 47 l 1,5,-1
 911 47 l 1,6,-1
 918 38 l 1,0,-1
EndSplineSet
Substitution2: "Single Substitution lookup 41 subtable" L.ss01
Substitution2: "'ss01' Style Set 1 lookup 35 subtable" L.ss01
Substitution2: "'aalt' Access All Alternates lookup 0 subtable" L.ss01
Position2: "'cpsp' Capital Spacing lookup 0 subtable" dx=16 dy=0 dh=33 dv=0
EndChar

StartChar: M
Encoding: 77 77 48
Width: 1822
GlyphClass: 2
Flags: W
LayerCount: 2
Fore
SplineSet
1646 0 m 1,0,-1
 1597 0 l 1,1,-1
 1550 455 l 1,2,-1
 1448 1375 l 1,3,-1
 1436 1375 l 1,4,-1
 936 189 l 1,5,-1
 878 189 l 1,6,-1
 388 1375 l 1,7,-1
 376 1375 l 1,8,-1
 276 455 l 1,9,-1
 227 0 l 1,10,-1
 178 0 l 1,11,-1
 341 1488 l 1,12,-1
 394 1488 l 1,13,-1
 488 1256 l 1,14,-1
 902 256 l 1,15,-1
 911 256 l 1,16,-1
 1347 1281 l 1,17,-1
 1433 1488 l 1,18,-1
 1488 1488 l 1,19,-1
 1646 0 l 1,0,-1
EndSplineSet
Substitution2: "Single Substitution lookup 41 subtable" M.ss01
Substitution2: "'ss01' Style Set 1 lookup 35 subtable" M.ss01
Substitution2: "'aalt' Access All Alternates lookup 0 subtable" M.ss01
Position2: "'cpsp' Capital Spacing lookup 0 subtable" dx=16 dy=0 dh=33 dv=0
EndChar

StartChar: N
Encoding: 78 78 49
Width: 1564
GlyphClass: 2
Flags: W
AnchorPoint: "Anchor-1" 770 0 basechar 0
AnchorPoint: "Anchor-0" 772 1487 basechar 0
LayerCount: 2
Fore
SplineSet
1305 410 m 1,0,-1
 1303 0 l 1,1,-1
 1259 0 l 1,2,-1
 315 1390 l 1,3,-1
 306 1390 l 1,4,-1
 303 465 l 1,5,-1
 303 0 l 1,6,-1
 256 0 l 1,7,-1
 256 443 l 1,8,-1
 259 1488 l 1,9,-1
 303 1488 l 1,10,-1
 1247 98 l 1,11,-1
 1256 98 l 1,12,-1
 1261 1485 l 1,13,-1
 1308 1490 l 1,14,-1
 1305 410 l 1,0,-1
EndSplineSet
Position2: "'cpsp' Capital Spacing lookup 0 subtable" dx=16 dy=0 dh=33 dv=0
EndChar

StartChar: O
Encoding: 79 79 50
Width: 1463
GlyphClass: 2
Flags: W
AnchorPoint: "Anchor-1" 0 0 basechar 0
AnchorPoint: "Anchor-0" 733 1487 basechar 0
LayerCount: 2
Fore
SplineSet
742 1499 m 0,0,1
 1036 1499 1036 1499 1194 1310 c 128,-1,2
 1352 1121 1352 1121 1352 768 c 0,3,4
 1352 392 1352 392 1188 190.5 c 128,-1,5
 1024 -11 1024 -11 719 -11 c 0,6,7
 427 -11 427 -11 269.5 183.5 c 128,-1,8
 112 378 112 378 112 740 c 0,9,10
 112 1106 112 1106 275 1302.5 c 128,-1,11
 438 1499 438 1499 742 1499 c 0,0,1
742 1452 m 0,12,13
 460 1452 460 1452 309 1267.5 c 128,-1,14
 158 1083 158 1083 158 740 c 0,15,16
 158 401 158 401 304 218 c 128,-1,17
 450 35 450 35 719 35 c 0,18,19
 1002 35 1002 35 1153.5 225 c 128,-1,20
 1305 415 1305 415 1305 768 c 0,21,22
 1305 1098 1305 1098 1159 1275 c 128,-1,23
 1013 1452 1013 1452 742 1452 c 0,12,13
EndSplineSet
Position2: "'cpsp' Capital Spacing lookup 0 subtable" dx=16 dy=0 dh=33 dv=0
EndChar

StartChar: P
Encoding: 80 80 51
Width: 1129
GlyphClass: 2
Flags: W
LayerCount: 2
Fore
SplineSet
256 1488 m 1,0,-1
 586 1492 l 1,1,2
 790 1492 790 1492 899.5 1384 c 128,-1,3
 1009 1276 1009 1276 1009 1074 c 0,4,5
 1009 835 1009 835 880.5 708 c 128,-1,6
 752 581 752 581 512 581 c 2,7,-1
 303 581 l 1,8,-1
 303 0 l 1,9,-1
 256 0 l 1,10,-1
 256 1488 l 1,0,-1
303 628 m 1,11,-1
 581 628 l 1,12,13
 764 645 764 645 863 762.5 c 128,-1,14
 962 880 962 880 962 1074 c 0,15,16
 962 1246 962 1246 868.5 1342.5 c 128,-1,17
 775 1439 775 1439 602 1446 c 1,18,-1
 303 1443 l 1,19,-1
 303 628 l 1,11,-1
EndSplineSet
Position2: "'cpsp' Capital Spacing lookup 0 subtable" dx=16 dy=0 dh=33 dv=0
EndChar

StartChar: Q
Encoding: 81 81 52
Width: 1466
GlyphClass: 2
Flags: W
LayerCount: 2
Fore
SplineSet
845 -2 m 1,0,1
 1025 -157 1025 -157 1246.5 -256 c 128,-1,2
 1468 -355 1468 -355 1702 -383 c 1,3,-1
 1702 -397 l 1,4,-1
 1684 -425 l 1,5,-1
 1671 -425 l 1,6,7
 1432 -395 1432 -395 1203 -287.5 c 128,-1,8
 974 -180 974 -180 784 -9 c 1,9,10
 764 -11 764 -11 719 -11 c 0,11,12
 427 -11 427 -11 269.5 183.5 c 128,-1,13
 112 378 112 378 112 740 c 0,14,15
 112 1106 112 1106 275 1302.5 c 128,-1,16
 438 1499 438 1499 742 1499 c 0,17,18
 1036 1499 1036 1499 1194 1310 c 128,-1,19
 1352 1121 1352 1121 1352 768 c 0,20,21
 1352 433 1352 433 1221.5 235.5 c 128,-1,22
 1091 38 1091 38 845 -2 c 1,0,1
158 740 m 0,23,24
 158 401 158 401 304 218 c 128,-1,25
 450 35 450 35 719 35 c 0,26,27
 1002 35 1002 35 1153.5 225 c 128,-1,28
 1305 415 1305 415 1305 768 c 0,29,30
 1305 1098 1305 1098 1159 1275 c 128,-1,31
 1013 1452 1013 1452 742 1452 c 0,32,33
 460 1452 460 1452 309 1267.5 c 128,-1,34
 158 1083 158 1083 158 740 c 0,23,24
EndSplineSet
Substitution2: "Single Substitution lookup 41 subtable" Q.corta
Position2: "'cpsp' Capital Spacing lookup 0 subtable" dx=16 dy=0 dh=33 dv=0
EndChar

StartChar: R
Encoding: 82 82 53
Width: 1208
GlyphClass: 2
Flags: W
AnchorPoint: "Anchor-1" 604 0 basechar 0
AnchorPoint: "Anchor-0" 604 1487 basechar 0
LayerCount: 2
Fore
SplineSet
666 624 m 1,0,1
 858 311 858 311 1088 11 c 1,2,-1
 1088 2 l 1,3,4
 1075 -10 1075 -10 1060 -16 c 1,5,-1
 1047 -11 l 1,6,7
 801 311 801 311 617 614 c 1,8,-1
 303 614 l 1,9,-1
 303 0 l 1,10,-1
 256 0 l 1,11,-1
 256 1488 l 1,12,-1
 586 1492 l 1,13,14
 790 1492 790 1492 899.5 1386 c 128,-1,15
 1009 1280 1009 1280 1009 1083 c 0,16,17
 1009 911 1009 911 920.5 792.5 c 128,-1,18
 832 674 832 674 666 624 c 1,0,1
303 661 m 1,19,-1
 635 661 l 1,20,21
 792 701 792 701 877 811 c 128,-1,22
 962 921 962 921 962 1083 c 0,23,24
 962 1251 962 1251 869 1345 c 128,-1,25
 776 1439 776 1439 602 1446 c 1,26,-1
 303 1443 l 1,27,-1
 303 661 l 1,19,-1
EndSplineSet
Position2: "'cpsp' Capital Spacing lookup 0 subtable" dx=16 dy=0 dh=33 dv=0
EndChar

StartChar: S
Encoding: 83 83 54
Width: 1038
GlyphClass: 2
Flags: W
AnchorPoint: "Anchor-1" 499 0 basechar 0
AnchorPoint: "Anchor-0" 543 1487 basechar 0
LayerCount: 2
Fore
SplineSet
575 1495 m 0,0,1
 714 1495 714 1495 860 1426 c 1,2,-1
 849 1384 l 1,3,-1
 833 1382 l 1,4,5
 769 1415 769 1415 698.5 1431.5 c 128,-1,6
 628 1448 628 1448 570 1448 c 0,7,8
 484 1448 484 1448 412 1418.5 c 128,-1,9
 340 1389 340 1389 295 1341 c 128,-1,10
 250 1293 250 1293 225.5 1236 c 128,-1,11
 201 1179 201 1179 201 1121 c 128,-1,12
 201 1063 201 1063 225 1014 c 128,-1,13
 249 965 249 965 290 929.5 c 128,-1,14
 331 894 331 894 384.5 863 c 128,-1,15
 438 832 438 832 497 803.5 c 128,-1,16
 556 775 556 775 615 746 c 128,-1,17
 674 717 674 717 727 681.5 c 128,-1,18
 780 646 780 646 821 604.5 c 128,-1,19
 862 563 862 563 886.5 505.5 c 128,-1,20
 911 448 911 448 911 378 c 0,21,22
 911 301 911 301 878.5 230.5 c 128,-1,23
 846 160 846 160 789.5 107 c 128,-1,24
 733 54 733 54 651.5 22.5 c 128,-1,25
 570 -9 570 -9 477 -9 c 0,26,27
 386 -9 386 -9 290 19.5 c 128,-1,28
 194 48 194 48 121 100 c 1,29,-1
 124 145 l 1,30,-1
 136 149 l 1,31,32
 206 94 206 94 297 66 c 128,-1,33
 388 38 388 38 474 38 c 0,34,35
 561 38 561 38 636 67.5 c 128,-1,36
 711 97 711 97 760 145.5 c 128,-1,37
 809 194 809 194 836.5 254.5 c 128,-1,38
 864 315 864 315 864 378 c 0,39,40
 864 440 864 440 840 491.5 c 128,-1,41
 816 543 816 543 774.5 580 c 128,-1,42
 733 617 733 617 680 649.5 c 128,-1,43
 627 682 627 682 568 710.5 c 128,-1,44
 509 739 509 739 450 767.5 c 128,-1,45
 391 796 391 796 338 831 c 128,-1,46
 285 866 285 866 243.5 906.5 c 128,-1,47
 202 947 202 947 178 1003.5 c 128,-1,48
 154 1060 154 1060 154 1127 c 0,49,50
 154 1202 154 1202 185 1269.5 c 128,-1,51
 216 1337 216 1337 270.5 1386.5 c 128,-1,52
 325 1436 325 1436 404 1465.5 c 128,-1,53
 483 1495 483 1495 575 1495 c 0,0,1
EndSplineSet
Position2: "'cpsp' Capital Spacing lookup 0 subtable" dx=16 dy=0 dh=33 dv=0
EndChar

StartChar: T
Encoding: 84 84 55
Width: 1108
GlyphClass: 2
Flags: W
AnchorPoint: "Anchor-1" 536 0 basechar 0
AnchorPoint: "Anchor-0" 565 1487 basechar 0
LayerCount: 2
Fore
SplineSet
1043 1477 m 1,0,-1
 1034 1441 l 1,1,-1
 579 1441 l 1,2,-1
 579 0 l 1,3,-1
 532 0 l 1,4,-1
 532 1441 l 1,5,-1
 72 1441 l 1,6,-1
 65 1450 l 1,7,-1
 75 1488 l 1,8,-1
 1036 1488 l 1,9,-1
 1043 1477 l 1,0,-1
EndSplineSet
Position2: "'cpsp' Capital Spacing lookup 0 subtable" dx=16 dy=0 dh=33 dv=0
EndChar

StartChar: U
Encoding: 85 85 56
Width: 1428
GlyphClass: 2
Flags: W
AnchorPoint: "Anchor-1" 0 0 basechar 0
AnchorPoint: "Anchor-0" 723 1487 basechar 0
LayerCount: 2
Fore
SplineSet
1228 1488 m 1,0,-1
 1228 535 l 1,1,2
 1235 278 1235 278 1099.5 134.5 c 128,-1,3
 964 -9 964 -9 715 -9 c 0,4,5
 465 -9 465 -9 333 131.5 c 128,-1,6
 201 272 201 272 201 535 c 2,7,-1
 201 1488 l 1,8,-1
 247 1488 l 1,9,-1
 247 535 l 1,10,11
 246 294 246 294 366.5 166 c 128,-1,12
 487 38 487 38 715 38 c 0,13,14
 940 38 940 38 1060.5 166 c 128,-1,15
 1181 294 1181 294 1181 535 c 2,16,-1
 1181 1488 l 1,17,-1
 1228 1488 l 1,0,-1
EndSplineSet
Position2: "'cpsp' Capital Spacing lookup 0 subtable" dx=16 dy=0 dh=33 dv=0
EndChar

StartChar: V
Encoding: 86 86 57
Width: 1255
GlyphClass: 2
Flags: W
LayerCount: 2
Fore
SplineSet
637 0 m 1,0,-1
 591 0 l 1,1,-1
 47 1488 l 1,2,-1
 100 1488 l 1,3,-1
 131 1387 l 1,4,-1
 612 80 l 1,5,-1
 621 80 l 1,6,-1
 1141 1387 l 1,7,-1
 1174 1488 l 1,8,-1
 1230 1488 l 1,9,-1
 637 0 l 1,0,-1
EndSplineSet
Substitution2: "Single Substitution lookup 41 subtable" V.ss01
Substitution2: "'ss01' Style Set 1 lookup 35 subtable" V.ss01
Substitution2: "'aalt' Access All Alternates lookup 0 subtable" V.ss01
Position2: "'cpsp' Capital Spacing lookup 0 subtable" dx=16 dy=0 dh=33 dv=0
EndChar

StartChar: W
Encoding: 87 87 58
Width: 2063
GlyphClass: 2
Flags: W
AnchorPoint: "Anchor-1" 0 0 basechar 0
AnchorPoint: "Anchor-0" 1013 1487 basechar 0
LayerCount: 2
Fore
SplineSet
1452 0 m 1,0,-1
 1406 0 l 1,1,-1
 1041 1023 l 1,2,-1
 1032 1023 l 1,3,-1
 635 0 l 1,4,-1
 588 0 l 1,5,-1
 54 1488 l 1,6,-1
 107 1488 l 1,7,-1
 138 1387 l 1,8,-1
 610 80 l 1,9,-1
 619 80 l 1,10,-1
 1013 1100 l 1,11,-1
 873 1488 l 1,12,-1
 925 1488 l 1,13,-1
 955 1387 l 1,14,-1
 1426 80 l 1,15,-1
 1436 80 l 1,16,-1
 1947 1387 l 1,17,-1
 1980 1488 l 1,18,-1
 2034 1488 l 1,19,-1
 1452 0 l 1,0,-1
EndSplineSet
Position2: "'cpsp' Capital Spacing lookup 0 subtable" dx=16 dy=0 dh=33 dv=0
EndChar

StartChar: X
Encoding: 88 88 59
Width: 1321
GlyphClass: 2
Flags: W
LayerCount: 2
Fore
SplineSet
675 771 m 1,0,-1
 1214 0 l 1,1,-1
 1151 0 l 1,2,-1
 1096 89 l 1,3,-1
 644 733 l 1,4,-1
 194 84 l 1,5,-1
 142 0 l 1,6,-1
 80 0 l 1,7,-1
 614 771 l 1,8,-1
 112 1488 l 1,9,-1
 178 1488 l 1,10,-1
 229 1406 l 1,11,-1
 644 808 l 1,12,-1
 1051 1394 l 1,13,-1
 1107 1488 l 1,14,-1
 1170 1488 l 1,15,-1
 675 771 l 1,0,-1
EndSplineSet
Substitution2: "Single Substitution lookup 41 subtable" X.ss01
Substitution2: "'ss01' Style Set 1 lookup 35 subtable" X.ss01
Substitution2: "'aalt' Access All Alternates lookup 0 subtable" X.ss01
Position2: "'cpsp' Capital Spacing lookup 0 subtable" dx=16 dy=0 dh=33 dv=0
EndChar

StartChar: Y
Encoding: 89 89 60
Width: 1154
GlyphClass: 2
Flags: W
AnchorPoint: "Anchor-1" 0 0 basechar 0
AnchorPoint: "Anchor-0" 557 1487 basechar 0
LayerCount: 2
Fore
SplineSet
579 572 m 1,0,-1
 579 0 l 1,1,-1
 532 0 l 1,2,-1
 532 575 l 1,3,-1
 60 1488 l 1,4,-1
 121 1488 l 1,5,-1
 147 1426 l 1,6,-1
 551 646 l 1,7,-1
 563 646 l 1,8,-1
 1002 1426 l 1,9,-1
 1027 1488 l 1,10,-1
 1088 1488 l 1,11,-1
 579 572 l 1,0,-1
EndSplineSet
Position2: "'cpsp' Capital Spacing lookup 0 subtable" dx=16 dy=0 dh=33 dv=0
EndChar

StartChar: Z
Encoding: 90 90 61
Width: 1183
GlyphClass: 2
Flags: W
AnchorPoint: "Anchor-1" 0 0 basechar 0
AnchorPoint: "Anchor-0" 609 1487 basechar 0
LayerCount: 2
Fore
SplineSet
1074 1448 m 1,0,-1
 138 47 l 1,1,-1
 911 47 l 1,2,-1
 1069 49 l 1,3,-1
 1078 38 l 1,4,-1
 1072 0 l 1,5,-1
 158 0 l 1,6,-1
 75 -2 l 1,7,-1
 75 40 l 1,8,-1
 1011 1441 l 1,9,-1
 263 1441 l 1,10,-1
 129 1439 l 1,11,-1
 119 1450 l 1,12,-1
 127 1490 l 1,13,-1
 278 1488 l 1,14,-1
 987 1488 l 1,15,-1
 1074 1490 l 1,16,-1
 1074 1448 l 1,0,-1
EndSplineSet
Position2: "'cpsp' Capital Spacing lookup 0 subtable" dx=16 dy=0 dh=33 dv=0
EndChar

StartChar: bracketleft
Encoding: 91 91 62
Width: 655
GlyphClass: 2
Flags: W
LayerCount: 2
Fore
SplineSet
624 1499 m 1,0,-1
 624 1464 l 1,1,-1
 320 1443 l 1,2,-1
 320 -245 l 1,3,-1
 624 -266 l 1,4,-1
 624 -301 l 1,5,-1
 614 -310 l 1,6,-1
 274 -287 l 1,7,-1
 274 1485 l 1,8,-1
 614 1508 l 1,9,-1
 624 1499 l 1,0,-1
EndSplineSet
EndChar

StartChar: backslash
Encoding: 92 92 63
Width: 678
GlyphClass: 2
Flags: W
LayerCount: 2
Fore
SplineSet
93 1575 m 1,0,-1
 570 -247 l 1,1,-1
 563 -256 l 1,2,-1
 526 -256 l 1,3,-1
 49 1564 l 1,4,-1
 56 1575 l 1,5,-1
 93 1575 l 1,0,-1
EndSplineSet
EndChar

StartChar: bracketright
Encoding: 93 93 64
Width: 655
GlyphClass: 2
Flags: W
LayerCount: 2
Fore
SplineSet
33 -301 m 1,0,-1
 33 -266 l 1,1,-1
 336 -245 l 1,2,-1
 336 1443 l 1,3,-1
 33 1464 l 1,4,-1
 33 1499 l 1,5,-1
 42 1508 l 1,6,-1
 383 1485 l 1,7,-1
 383 -287 l 1,8,-1
 42 -310 l 1,9,-1
 33 -301 l 1,0,-1
EndSplineSet
EndChar

StartChar: asciicircum
Encoding: 94 94 65
Width: 949
GlyphClass: 2
Flags: W
LayerCount: 2
Fore
SplineSet
891 283 m 1,0,-1
 887 274 l 1,1,-1
 853 261 l 1,2,-1
 495 1078 l 1,3,-1
 486 1078 l 1,4,-1
 103 271 l 1,5,-1
 91 263 l 1,6,-1
 58 280 l 1,7,-1
 457 1130 l 1,8,-1
 467 1137 l 1,9,-1
 519 1137 l 1,10,-1
 891 283 l 1,0,-1
EndSplineSet
EndChar

StartChar: underscore
Encoding: 95 95 66
Width: 1061
GlyphClass: 2
Flags: W
LayerCount: 2
Fore
SplineSet
1098 -207 m 1,0,-1
 1092 -247 l 1,1,-1
 -28 -247 l 1,2,-1
 -35 -241 l 1,3,-1
 -31 -201 l 1,4,-1
 1090 -201 l 1,5,-1
 1098 -207 l 1,0,-1
EndSplineSet
EndChar

StartChar: grave
Encoding: 96 96 67
Width: 909
GlyphClass: 2
Flags: W
LayerCount: 2
Fore
SplineSet
292 1560 m 1,0,-1
 303 1562 l 1,1,2
 478 1384 478 1384 644 1243 c 1,3,-1
 619 1212 l 1,4,-1
 606 1210 l 1,5,6
 432 1363 432 1363 271 1524 c 1,7,-1
 269 1537 l 1,8,-1
 292 1560 l 1,0,-1
EndSplineSet
EndChar

StartChar: a
Encoding: 97 97 68
Width: 1031
GlyphClass: 2
Flags: W
AnchorPoint: "Anchor-1" 0 0 basechar 0
AnchorPoint: "Anchor-0" 492 1055 basechar 0
LayerCount: 2
Fore
SplineSet
502 1067 m 0,0,1
 635 1067 635 1067 706 998.5 c 128,-1,2
 777 930 777 930 777 804 c 0,3,4
 777 775 777 775 766 488 c 128,-1,5
 755 201 755 201 755 171 c 0,6,7
 755 103 755 103 774.5 71.5 c 128,-1,8
 794 40 794 40 838 40 c 0,9,10
 892 40 892 40 936 75 c 1,11,-1
 951 67 l 1,12,-1
 940 26 l 1,13,14
 891 -7 891 -7 836 -7 c 0,15,16
 771 -7 771 -7 740.5 34.5 c 128,-1,17
 710 76 710 76 708 171 c 1,18,-1
 700 171 l 1,19,20
 630 89 630 89 550 40.5 c 128,-1,21
 470 -8 470 -8 394 -11 c 1,22,23
 269 -11 269 -11 200 57.5 c 128,-1,24
 131 126 131 126 131 250 c 0,25,26
 131 334 131 334 182 392 c 128,-1,27
 233 450 233 450 323 472 c 1,28,-1
 724 565 l 1,29,-1
 731 793 l 1,30,31
 731 902 731 902 671 961 c 128,-1,32
 611 1020 611 1020 499 1020 c 0,33,34
 429 1020 429 1020 346.5 981 c 128,-1,35
 264 942 264 942 180 869 c 1,36,-1
 165 873 l 1,37,-1
 154 909 l 1,38,39
 241 985 241 985 331 1026 c 128,-1,40
 421 1067 421 1067 502 1067 c 0,0,1
722 516 m 1,41,-1
 334 425 l 2,42,43
 259 408 259 408 218.5 363 c 128,-1,44
 178 318 178 318 178 250 c 0,45,46
 178 148 178 148 234 91.5 c 128,-1,47
 290 35 290 35 392 35 c 0,48,49
 469 35 469 35 553 91 c 128,-1,50
 637 147 637 147 710 247 c 1,51,-1
 722 516 l 1,41,-1
EndSplineSet
Substitution2: "'ss02' Style Set 2 lookup 36 subtable" left
Substitution2: "'case' Case-Sensitive Forms lookup 28 subtable" A
Substitution2: "'ordn' Ordinals lookup 22 subtable" a.sups
Substitution2: "'sups' Superscript lookup 16 subtable" a.sups
AlternateSubs2: "'aalt' Access All Alternates lookup 1 subtable" a.sups A left
EndChar

StartChar: b
Encoding: 98 98 69
Width: 1169
GlyphClass: 2
Flags: W
LayerCount: 2
Fore
SplineSet
644 1065 m 0,0,1
 831 1065 831 1065 935 930.5 c 128,-1,2
 1039 796 1039 796 1039 553 c 0,3,4
 1039 283 1039 283 909.5 134.5 c 128,-1,5
 780 -14 780 -14 544 -14 c 0,6,7
 403 -14 403 -14 287 16 c 1,8,-1
 256 0 l 1,9,-1
 245 7 l 1,10,-1
 245 1630 l 1,11,-1
 292 1639 l 1,12,-1
 292 898 l 1,13,-1
 299 898 l 1,14,15
 367 977 367 977 457.5 1021 c 128,-1,16
 548 1065 548 1065 644 1065 c 0,0,1
544 33 m 0,17,18
 758 33 758 33 875 168.5 c 128,-1,19
 992 304 992 304 992 553 c 0,20,21
 992 775 992 775 901.5 896.5 c 128,-1,22
 811 1018 811 1018 644 1018 c 0,23,24
 546 1018 546 1018 455 968 c 128,-1,25
 364 918 364 918 292 824 c 1,26,-1
 292 65 l 1,27,28
 441 33 441 33 544 33 c 0,17,18
EndSplineSet
Substitution2: "'ss02' Style Set 2 lookup 36 subtable" up
Substitution2: "'case' Case-Sensitive Forms lookup 28 subtable" B
Substitution2: "'ordn' Ordinals lookup 22 subtable" b.sups
Substitution2: "'sups' Superscript lookup 16 subtable" b.sups
AlternateSubs2: "'aalt' Access All Alternates lookup 1 subtable" b.sups B up
EndChar

StartChar: c
Encoding: 99 99 70
Width: 900
GlyphClass: 2
Flags: W
AnchorPoint: "Anchor-1" 541 0 basechar 0
AnchorPoint: "Anchor-0" 543 1055 basechar 0
LayerCount: 2
Fore
SplineSet
544 1067 m 0,0,1
 623 1067 623 1067 704.5 1040 c 128,-1,2
 786 1013 786 1013 845 969 c 1,3,-1
 829 929 l 1,4,-1
 815 929 l 1,5,6
 763 968 763 968 689.5 994 c 128,-1,7
 616 1020 616 1020 544 1020 c 0,8,9
 377 1020 377 1020 277.5 884 c 128,-1,10
 178 748 178 748 178 519 c 0,11,12
 178 299 178 299 277 167 c 128,-1,13
 376 35 376 35 544 35 c 0,14,15
 620 35 620 35 700 62.5 c 128,-1,16
 780 90 780 90 840 136 c 1,17,-1
 855 131 l 1,18,-1
 849 89 l 1,19,20
 787 44 787 44 705.5 16.5 c 128,-1,21
 624 -11 624 -11 542 -11 c 0,22,23
 355 -11 355 -11 243 133.5 c 128,-1,24
 131 278 131 278 131 519 c 0,25,26
 131 769 131 769 243.5 918 c 128,-1,27
 356 1067 356 1067 544 1067 c 0,0,1
EndSplineSet
Substitution2: "Single Substitution lookup 41 subtable" C.ss01
Substitution2: "'ss02' Style Set 2 lookup 36 subtable" right
Substitution2: "'ss01' Style Set 1 lookup 35 subtable" C.ss01
Substitution2: "'case' Case-Sensitive Forms lookup 28 subtable" C
Substitution2: "'ordn' Ordinals lookup 22 subtable" c.sups
Substitution2: "'sups' Superscript lookup 16 subtable" c.sups
AlternateSubs2: "'aalt' Access All Alternates lookup 1 subtable" c.sups C C.ss01 right
EndChar

StartChar: d
Encoding: 100 100 71
Width: 1183
GlyphClass: 2
Flags: W
LayerCount: 2
Fore
SplineSet
925 1639 m 1,0,-1
 925 176 l 2,1,2
 925 105 925 105 944 72.5 c 128,-1,3
 963 40 963 40 1007 40 c 0,4,5
 1058 40 1058 40 1102 75 c 1,6,-1
 1116 67 l 1,7,-1
 1107 26 l 1,8,9
 1057 -7 1057 -7 1004 -7 c 0,10,11
 942 -7 942 -7 910.5 33 c 128,-1,12
 879 73 879 73 878 161 c 1,13,-1
 871 161 l 1,14,15
 797 75 797 75 715.5 32 c 128,-1,16
 634 -11 634 -11 535 -11 c 0,17,18
 352 -11 352 -11 241.5 126.5 c 128,-1,19
 131 264 131 264 131 506 c 0,20,21
 131 774 131 774 260.5 920.5 c 128,-1,22
 390 1067 390 1067 626 1067 c 0,23,24
 746 1067 746 1067 878 1027 c 1,25,-1
 878 1630 l 1,26,-1
 925 1639 l 1,0,-1
626 1020 m 0,27,28
 412 1020 412 1020 295 886 c 128,-1,29
 178 752 178 752 178 506 c 0,30,31
 178 286 178 286 276.5 160.5 c 128,-1,32
 375 35 375 35 537 35 c 0,33,34
 734 35 734 35 878 236 c 1,35,-1
 878 976 l 1,36,37
 750 1020 750 1020 626 1020 c 0,27,28
EndSplineSet
Substitution2: "Single Substitution lookup 41 subtable" D.ss01
Substitution2: "'ss02' Style Set 2 lookup 36 subtable" down
Substitution2: "'ss01' Style Set 1 lookup 35 subtable" D.ss01
Substitution2: "'case' Case-Sensitive Forms lookup 28 subtable" D
Substitution2: "'ordn' Ordinals lookup 22 subtable" d.sups
Substitution2: "'sups' Superscript lookup 16 subtable" d.sups
AlternateSubs2: "'aalt' Access All Alternates lookup 1 subtable" d.sups D D.ss01 down
EndChar

StartChar: e
Encoding: 101 101 72
Width: 1010
GlyphClass: 2
Flags: W
AnchorPoint: "Anchor-1" 539 0 basechar 0
AnchorPoint: "Anchor-0" 536 1055 basechar 0
LayerCount: 2
Fore
SplineSet
565 1067 m 0,0,1
 725 1067 725 1067 817 966.5 c 128,-1,2
 909 866 909 866 909 691 c 0,3,4
 909 665 909 665 904 628 c 1,5,-1
 889 612 l 1,6,-1
 180 588 l 1,7,8
 178 565 178 565 178 516 c 0,9,10
 178 297 178 297 278 166 c 128,-1,11
 378 35 378 35 555 35 c 0,12,13
 635 35 635 35 711 63 c 128,-1,14
 787 91 787 91 842 142 c 1,15,-1
 857 138 l 1,16,-1
 849 91 l 1,17,18
 715 -11 715 -11 551 -11 c 0,19,20
 356 -11 356 -11 243.5 132 c 128,-1,21
 131 275 131 275 131 516 c 0,22,23
 131 768 131 768 249.5 917.5 c 128,-1,24
 368 1067 368 1067 565 1067 c 0,0,1
860 659 m 1,25,-1
 862 691 l 1,26,27
 862 844 862 844 782 932 c 128,-1,28
 702 1020 702 1020 563 1020 c 0,29,30
 413 1020 413 1020 312.5 917 c 128,-1,31
 212 814 212 814 187 635 c 1,32,-1
 860 659 l 1,25,-1
EndSplineSet
Substitution2: "'ss02' Style Set 2 lookup 36 subtable" square1
Substitution2: "'case' Case-Sensitive Forms lookup 28 subtable" E
Substitution2: "'ordn' Ordinals lookup 22 subtable" e.sups
Substitution2: "'sups' Superscript lookup 16 subtable" e.sups
AlternateSubs2: "'aalt' Access All Alternates lookup 1 subtable" e.sups E square1
EndChar

StartChar: f
Encoding: 102 102 73
Width: 644
GlyphClass: 2
Flags: W
LayerCount: 2
Fore
SplineSet
557 1644 m 0,0,1
 625 1644 625 1644 717 1622 c 1,2,-1
 712 1578 l 1,3,-1
 705 1573 l 1,4,5
 634 1597 634 1597 557 1597 c 0,6,7
 442 1597 442 1597 381 1522.5 c 128,-1,8
 320 1448 320 1448 320 1308 c 2,9,-1
 320 1056 l 1,10,-1
 612 1056 l 1,11,-1
 619 1047 l 1,12,-1
 612 1009 l 1,13,-1
 320 1009 l 1,14,-1
 320 0 l 1,15,-1
 274 0 l 1,16,-1
 274 1009 l 1,17,-1
 116 1009 l 1,18,-1
 107 1018 l 1,19,-1
 114 1056 l 1,20,-1
 274 1056 l 1,21,-1
 274 1308 l 2,22,23
 274 1470 274 1470 346.5 1557 c 128,-1,24
 419 1644 419 1644 557 1644 c 0,0,1
EndSplineSet
Substitution2: "Single Substitution lookup 41 subtable" f.t
Substitution2: "Single Substitution lookup 40 subtable" f.l
Substitution2: "Single Substitution lookup 39 subtable" f.f
Substitution2: "'ss02' Style Set 2 lookup 36 subtable" square2
Substitution2: "'case' Case-Sensitive Forms lookup 28 subtable" F
Substitution2: "'ordn' Ordinals lookup 22 subtable" f.sups
Substitution2: "'sups' Superscript lookup 16 subtable" f.sups
AlternateSubs2: "'aalt' Access All Alternates lookup 1 subtable" f.sups F square2
EndChar

StartChar: g
Encoding: 103 103 74
Width: 1101
GlyphClass: 2
Flags: W
AnchorPoint: "Anchor-1" 0 0 basechar 0
AnchorPoint: "Anchor-0" 552 1031 basechar 0
LayerCount: 2
Fore
SplineSet
1062 1067 m 1,0,-1
 1062 1025 l 1,1,2
 935 993 935 993 808 971 c 1,3,-1
 804 964 l 1,4,5
 894 871 894 871 894 710 c 0,6,7
 894 543 894 543 796 446.5 c 128,-1,8
 698 350 698 350 528 350 c 0,9,10
 431 350 431 350 352 383 c 1,11,12
 279 337 279 337 252 306.5 c 128,-1,13
 225 276 225 276 225 250 c 0,14,15
 225 216 225 216 257 192 c 128,-1,16
 289 168 289 168 341 156 c 128,-1,17
 393 144 393 144 460 132 c 128,-1,18
 527 120 527 120 597 110.5 c 128,-1,19
 667 101 667 101 733.5 82.5 c 128,-1,20
 800 64 800 64 852.5 40 c 128,-1,21
 905 16 905 16 937 -27.5 c 128,-1,22
 969 -71 969 -71 969 -129 c 0,23,24
 969 -213 969 -213 905.5 -286.5 c 128,-1,25
 842 -360 842 -360 734 -404 c 128,-1,26
 626 -448 626 -448 504 -448 c 0,27,28
 338 -448 338 -448 239 -373 c 128,-1,29
 140 -298 140 -298 140 -180 c 1,30,31
 152 -100 152 -100 208.5 -38 c 128,-1,32
 265 24 265 24 378 89 c 1,33,-1
 378 100 l 1,34,35
 281 122 281 122 228.5 158.5 c 128,-1,36
 176 195 176 195 176 259 c 1,37,38
 187 317 187 317 308 399 c 1,39,-1
 308 406 l 1,40,41
 239 452 239 452 202 527.5 c 128,-1,42
 165 603 165 603 165 702 c 0,43,44
 165 872 165 872 263 968.5 c 128,-1,45
 361 1065 361 1065 535 1065 c 0,46,47
 665 1065 665 1065 755 1007 c 1,48,49
 911 1035 911 1035 1053 1074 c 1,50,-1
 1062 1067 l 1,0,-1
528 397 m 0,51,52
 676 397 676 397 762.5 480 c 128,-1,53
 849 563 849 563 849 710 c 0,54,55
 849 855 849 855 765 936.5 c 128,-1,56
 681 1018 681 1018 535 1018 c 0,57,58
 384 1018 384 1018 297 934 c 128,-1,59
 210 850 210 850 210 702 c 0,60,61
 210 559 210 559 294.5 478 c 128,-1,62
 379 397 379 397 528 397 c 0,51,52
922 -129 m 0,63,64
 922 -105 922 -105 914.5 -84 c 128,-1,65
 907 -63 907 -63 895 -46.5 c 128,-1,66
 883 -30 883 -30 862 -16 c 128,-1,67
 841 -2 841 -2 820.5 8 c 128,-1,68
 800 18 800 18 769.5 27.5 c 128,-1,69
 739 37 739 37 714 43 c 128,-1,70
 689 49 689 49 652.5 55.5 c 128,-1,71
 616 62 616 62 589.5 66 c 128,-1,72
 563 70 563 70 523.5 76.5 c 128,-1,73
 484 83 484 83 459 87 c 1,74,75
 398 55 398 55 352 25.5 c 128,-1,76
 306 -4 306 -4 267 -39 c 128,-1,77
 228 -74 228 -74 207.5 -112.5 c 128,-1,78
 187 -151 187 -151 187 -192 c 0,79,80
 187 -277 187 -277 273 -339 c 128,-1,81
 359 -401 359 -401 504 -401 c 0,82,83
 615 -401 615 -401 712.5 -362 c 128,-1,84
 810 -323 810 -323 866 -260 c 128,-1,85
 922 -197 922 -197 922 -129 c 0,63,64
EndSplineSet
Substitution2: "'ss02' Style Set 2 lookup 36 subtable" circle1
Substitution2: "'case' Case-Sensitive Forms lookup 28 subtable" G
Substitution2: "'ordn' Ordinals lookup 22 subtable" g.sups
Substitution2: "'sups' Superscript lookup 16 subtable" g.sups
AlternateSubs2: "'aalt' Access All Alternates lookup 1 subtable" g.sups G circle1
EndChar

StartChar: h
Encoding: 104 104 75
Width: 1181
GlyphClass: 2
Flags: W
AnchorPoint: "Anchor-1" 269 0 basechar 0
AnchorPoint: "Anchor-0" 269 1494 basechar 0
LayerCount: 2
Fore
SplineSet
666 1067 m 0,0,1
 813 1067 813 1067 893 983.5 c 128,-1,2
 973 900 973 900 971 749 c 2,3,-1
 969 453 l 1,4,-1
 967 0 l 1,5,-1
 920 0 l 1,6,-1
 925 747 l 2,7,8
 925 876 925 876 856.5 948 c 128,-1,9
 788 1020 788 1020 666 1020 c 0,10,11
 576 1020 576 1020 478 961 c 128,-1,12
 380 902 380 902 292 796 c 1,13,-1
 292 0 l 1,14,-1
 245 0 l 1,15,-1
 245 1630 l 1,16,-1
 292 1639 l 1,17,-1
 292 873 l 1,18,-1
 301 873 l 1,19,20
 386 966 386 966 482 1016.5 c 128,-1,21
 578 1067 578 1067 666 1067 c 0,0,1
EndSplineSet
Substitution2: "'ss02' Style Set 2 lookup 36 subtable" circle2
Substitution2: "'case' Case-Sensitive Forms lookup 28 subtable" H
Substitution2: "'ordn' Ordinals lookup 22 subtable" h.sups
Substitution2: "'sups' Superscript lookup 16 subtable" h.sups
AlternateSubs2: "'aalt' Access All Alternates lookup 1 subtable" h.sups H circle2
EndChar

StartChar: i
Encoding: 105 105 76
Width: 517
GlyphClass: 2
Flags: W
AnchorPoint: "Anchor-1" 258 0 basechar 0
AnchorPoint: "Anchor-0" 258 1055 basechar 0
LayerCount: 2
Fore
SplineSet
258.5 1473 m 128,-1,1
 280 1473 280 1473 293 1460.5 c 128,-1,2
 306 1448 306 1448 306 1426.5 c 128,-1,3
 306 1405 306 1405 293 1392 c 128,-1,4
 280 1379 280 1379 258.5 1379 c 128,-1,5
 237 1379 237 1379 224.5 1392 c 128,-1,6
 212 1405 212 1405 212 1426.5 c 128,-1,7
 212 1448 212 1448 224.5 1460.5 c 128,-1,0
 237 1473 237 1473 258.5 1473 c 128,-1,1
283 0 m 1,8,-1
 236 0 l 1,9,-1
 236 1049 l 1,10,-1
 283 1058 l 1,11,-1
 283 0 l 1,8,-1
EndSplineSet
Substitution2: "Single Substitution lookup 41 subtable" I.ss01
Substitution2: "'ss01' Style Set 1 lookup 35 subtable" I.ss01
Substitution2: "'case' Case-Sensitive Forms lookup 28 subtable" I
Substitution2: "'ordn' Ordinals lookup 22 subtable" i.sups
Substitution2: "'sups' Superscript lookup 16 subtable" i.sups
Substitution2: "'locl' Localized Forms in Latin lookup 9 subtable" idotaccent
Substitution2: "'locl' Localized Forms in Latin lookup 8 subtable" idotaccent
Substitution2: "'locl' Localized Forms in Latin lookup 7 subtable" idotaccent
Substitution2: "'locl' Localized Forms in Latin lookup 6 subtable" idotaccent
Substitution2: "'locl' Localized Forms in Latin lookup 5 subtable" idotaccent
AlternateSubs2: "'aalt' Access All Alternates lookup 1 subtable" idotaccent i.sups I I.ss01
EndChar

StartChar: j
Encoding: 106 106 77
Width: 517
GlyphClass: 2
Flags: W
AnchorPoint: "Anchor-1" 0 0 basechar 0
AnchorPoint: "Anchor-0" 240 1055 basechar 0
LayerCount: 2
Fore
SplineSet
240.5 1473 m 128,-1,1
 262 1473 262 1473 274.5 1460.5 c 128,-1,2
 287 1448 287 1448 287 1426.5 c 128,-1,3
 287 1405 287 1405 274.5 1392 c 128,-1,4
 262 1379 262 1379 240.5 1379 c 128,-1,5
 219 1379 219 1379 206.5 1392 c 128,-1,6
 194 1405 194 1405 194 1426.5 c 128,-1,7
 194 1448 194 1448 206.5 1460.5 c 128,-1,0
 219 1473 219 1473 240.5 1473 c 128,-1,1
299 1053 m 1,8,-1
 299 28 l 2,9,10
 299 -95 299 -95 278.5 -176.5 c 128,-1,11
 258 -258 258 -258 212.5 -320.5 c 128,-1,12
 167 -383 167 -383 82 -448 c 1,13,-1
 58 -425 l 1,14,-1
 58 -410 l 1,15,16
 170 -323 170 -323 211 -232 c 128,-1,17
 252 -141 252 -141 252 18 c 2,18,-1
 252 1009 l 1,19,-1
 56 1009 l 1,20,-1
 47 1018 l 1,21,-1
 54 1056 l 1,22,-1
 247 1056 l 1,23,-1
 294 1058 l 1,24,-1
 299 1053 l 1,8,-1
EndSplineSet
Substitution2: "'case' Case-Sensitive Forms lookup 28 subtable" J
Substitution2: "'ordn' Ordinals lookup 22 subtable" j.sups
Substitution2: "'sups' Superscript lookup 16 subtable" j.sups
AlternateSubs2: "'aalt' Access All Alternates lookup 1 subtable" j.sups J
EndChar

StartChar: k
Encoding: 107 107 78
Width: 975
GlyphClass: 2
Flags: W
AnchorPoint: "Anchor-1" 555 0 basechar 0
AnchorPoint: "Anchor-0" 269 1588 basechar 0
LayerCount: 2
Fore
SplineSet
292 0 m 1,0,-1
 245 0 l 1,1,-1
 245 1630 l 1,2,-1
 292 1639 l 1,3,-1
 292 0 l 1,0,-1
915 1056 m 1,4,-1
 423 563 l 1,5,6
 687 267 687 267 953 11 c 1,7,-1
 953 2 l 1,8,9
 951 -1 951 -1 946 -4 c 128,-1,10
 941 -7 941 -7 937.5 -8.5 c 128,-1,11
 934 -10 934 -10 927 -12.5 c 128,-1,12
 920 -15 920 -15 918 -16 c 1,13,-1
 909 -14 l 1,14,15
 609 278 609 278 361 555 c 1,16,-1
 361 568 l 1,17,-1
 775 976 l 1,18,-1
 842 1056 l 1,19,-1
 915 1056 l 1,4,-1
EndSplineSet
Substitution2: "'case' Case-Sensitive Forms lookup 28 subtable" K
Substitution2: "'ordn' Ordinals lookup 22 subtable" k.sups
Substitution2: "'sups' Superscript lookup 16 subtable" k.sups
AlternateSubs2: "'aalt' Access All Alternates lookup 1 subtable" k.sups K
EndChar

StartChar: l
Encoding: 108 108 79
Width: 536
GlyphClass: 2
Flags: W
AnchorPoint: "Anchor-1" 269 0 basechar 0
AnchorPoint: "Anchor-0" 269 1588 basechar 0
LayerCount: 2
Fore
SplineSet
292 0 m 1,0,-1
 245 0 l 1,1,-1
 245 1630 l 1,2,-1
 292 1639 l 1,3,-1
 292 0 l 1,0,-1
EndSplineSet
Substitution2: "Single Substitution lookup 41 subtable" L.ss01
Substitution2: "'ss01' Style Set 1 lookup 35 subtable" L.ss01
Substitution2: "'case' Case-Sensitive Forms lookup 28 subtable" L
Substitution2: "'ordn' Ordinals lookup 22 subtable" l.sups
Substitution2: "'sups' Superscript lookup 16 subtable" l.sups
AlternateSubs2: "'aalt' Access All Alternates lookup 1 subtable" l.sups L L.ss01
EndChar

StartChar: m
Encoding: 109 109 80
Width: 1841
GlyphClass: 2
Flags: W
LayerCount: 2
Fore
SplineSet
1328 1067 m 0,0,1
 1473 1067 1473 1067 1552.5 983.5 c 128,-1,2
 1632 900 1632 900 1632 749 c 2,3,-1
 1632 453 l 1,4,-1
 1627 0 l 1,5,-1
 1580 0 l 1,6,-1
 1586 747 l 1,7,8
 1586 876 1586 876 1517.5 948 c 128,-1,9
 1449 1020 1449 1020 1328 1020 c 0,10,11
 1238 1020 1238 1020 1141.5 964 c 128,-1,12
 1045 908 1045 908 958 806 c 1,13,14
 960 788 960 788 960 749 c 2,15,-1
 960 453 l 1,16,-1
 955 0 l 1,17,-1
 909 0 l 1,18,-1
 913 747 l 2,19,20
 913 876 913 876 845 948 c 128,-1,21
 777 1020 777 1020 656 1020 c 0,22,23
 566 1020 566 1020 468.5 961 c 128,-1,24
 371 902 371 902 283 796 c 1,25,-1
 285 457 l 1,26,-1
 283 0 l 1,27,-1
 236 0 l 1,28,-1
 236 1049 l 1,29,-1
 283 1058 l 1,30,-1
 283 873 l 1,31,-1
 294 873 l 1,32,33
 379 966 379 966 473.5 1016.5 c 128,-1,34
 568 1067 568 1067 656 1067 c 0,35,36
 771 1067 771 1067 844.5 1015 c 128,-1,37
 918 963 918 963 945 864 c 1,38,-1
 958 864 l 1,39,40
 1044 960 1044 960 1142 1013.5 c 128,-1,41
 1240 1067 1240 1067 1328 1067 c 0,0,1
EndSplineSet
Substitution2: "Single Substitution lookup 41 subtable" M.ss01
Substitution2: "'ss01' Style Set 1 lookup 35 subtable" M.ss01
Substitution2: "'case' Case-Sensitive Forms lookup 28 subtable" M
Substitution2: "'ordn' Ordinals lookup 22 subtable" m.sups
Substitution2: "'sups' Superscript lookup 16 subtable" m.sups
AlternateSubs2: "'aalt' Access All Alternates lookup 1 subtable" m.sups M M.ss01
EndChar

StartChar: n
Encoding: 110 110 81
Width: 1171
GlyphClass: 2
Flags: W
AnchorPoint: "Anchor-1" 583 0 basechar 0
AnchorPoint: "Anchor-0" 614 1055 basechar 0
LayerCount: 2
Fore
SplineSet
656 1067 m 0,0,1
 802 1067 802 1067 882 983.5 c 128,-1,2
 962 900 962 900 962 749 c 2,3,-1
 962 0 l 1,4,-1
 911 0 l 1,5,-1
 915 747 l 2,6,7
 915 876 915 876 846.5 948 c 128,-1,8
 778 1020 778 1020 656 1020 c 0,9,10
 566 1020 566 1020 468.5 961 c 128,-1,11
 371 902 371 902 283 796 c 1,12,-1
 283 0 l 1,13,-1
 236 0 l 1,14,-1
 236 1049 l 1,15,-1
 283 1058 l 1,16,-1
 283 873 l 1,17,-1
 292 873 l 1,18,19
 377 966 377 966 472.5 1016.5 c 128,-1,20
 568 1067 568 1067 656 1067 c 0,0,1
EndSplineSet
Substitution2: "'case' Case-Sensitive Forms lookup 28 subtable" N
Substitution2: "'ordn' Ordinals lookup 22 subtable" n.sups
Substitution2: "'sups' Superscript lookup 16 subtable" n.sups
AlternateSubs2: "'aalt' Access All Alternates lookup 1 subtable" n.sups N
EndChar

StartChar: o
Encoding: 111 111 82
Width: 1136
GlyphClass: 2
Flags: W
AnchorPoint: "Anchor-1" 0 0 basechar 0
AnchorPoint: "Anchor-0" 567 1055 basechar 0
LayerCount: 2
Fore
SplineSet
575 1067 m 0,0,1
 774 1067 774 1067 888 925.5 c 128,-1,2
 1002 784 1002 784 1002 537 c 0,3,4
 1002 281 1002 281 883 135 c 128,-1,5
 764 -11 764 -11 557 -11 c 0,6,7
 358 -11 358 -11 244.5 130 c 128,-1,8
 131 271 131 271 131 519 c 0,9,10
 131 774 131 774 249.5 920.5 c 128,-1,11
 368 1067 368 1067 575 1067 c 0,0,1
575 1020 m 0,12,13
 389 1020 389 1020 283.5 886.5 c 128,-1,14
 178 753 178 753 178 519 c 0,15,16
 178 293 178 293 279 164 c 128,-1,17
 380 35 380 35 557 35 c 0,18,19
 743 35 743 35 849 169 c 128,-1,20
 955 303 955 303 955 537 c 0,21,22
 955 762 955 762 853.5 891 c 128,-1,23
 752 1020 752 1020 575 1020 c 0,12,13
EndSplineSet
Substitution2: "'case' Case-Sensitive Forms lookup 28 subtable" O
Substitution2: "'ordn' Ordinals lookup 22 subtable" o.sups
Substitution2: "'sups' Superscript lookup 16 subtable" o.sups
AlternateSubs2: "'aalt' Access All Alternates lookup 1 subtable" o.sups O
EndChar

StartChar: p
Encoding: 112 112 83
Width: 1159
GlyphClass: 2
Flags: W
LayerCount: 2
Fore
SplineSet
635 1067 m 0,0,1
 822 1067 822 1067 925.5 933 c 128,-1,2
 1029 799 1029 799 1029 555 c 0,3,4
 1029 286 1029 286 899.5 137.5 c 128,-1,5
 770 -11 770 -11 535 -11 c 0,6,7
 397 -11 397 -11 283 11 c 1,8,-1
 283 -432 l 1,9,-1
 236 -432 l 1,10,-1
 236 1049 l 1,11,-1
 283 1058 l 1,12,-1
 283 902 l 1,13,-1
 290 902 l 1,14,15
 358 981 358 981 448.5 1024 c 128,-1,16
 539 1067 539 1067 635 1067 c 0,0,1
535 35 m 0,17,18
 749 35 749 35 866 171 c 128,-1,19
 983 307 983 307 983 555 c 0,20,21
 983 778 983 778 892.5 899 c 128,-1,22
 802 1020 802 1020 635 1020 c 0,23,24
 537 1020 537 1020 446 970 c 128,-1,25
 355 920 355 920 283 826 c 1,26,-1
 283 63 l 1,27,28
 426 35 426 35 535 35 c 0,17,18
EndSplineSet
Substitution2: "'case' Case-Sensitive Forms lookup 28 subtable" P
Substitution2: "'ordn' Ordinals lookup 22 subtable" p.sups
Substitution2: "'sups' Superscript lookup 16 subtable" p.sups
AlternateSubs2: "'aalt' Access All Alternates lookup 1 subtable" p.sups P
EndChar

StartChar: q
Encoding: 113 113 84
Width: 1159
GlyphClass: 2
Flags: W
LayerCount: 2
Fore
SplineSet
915 1062 m 1,0,-1
 925 1056 l 1,1,-1
 925 -432 l 1,2,-1
 878 -432 l 1,3,-1
 878 161 l 1,4,-1
 871 161 l 1,5,6
 797 75 797 75 715.5 32 c 128,-1,7
 634 -11 634 -11 535 -11 c 0,8,9
 351 -11 351 -11 241 127 c 128,-1,10
 131 265 131 265 131 512 c 0,11,12
 131 775 131 775 260.5 921 c 128,-1,13
 390 1067 390 1067 617 1067 c 0,14,15
 706 1067 706 1067 878 1032 c 1,16,-1
 915 1062 l 1,0,-1
624 1020 m 0,17,18
 413 1020 413 1020 295.5 886 c 128,-1,19
 178 752 178 752 178 508 c 0,20,21
 178 285 178 285 276.5 160 c 128,-1,22
 375 35 375 35 537 35 c 0,23,24
 736 35 736 35 878 236 c 1,25,-1
 878 980 l 1,26,27
 732 1020 732 1020 624 1020 c 0,17,18
EndSplineSet
Substitution2: "'case' Case-Sensitive Forms lookup 28 subtable" Q
Substitution2: "'ordn' Ordinals lookup 22 subtable" q.sups
Substitution2: "'sups' Superscript lookup 16 subtable" q.sups
AlternateSubs2: "'aalt' Access All Alternates lookup 1 subtable" q.sups Q
EndChar

StartChar: r
Encoding: 114 114 85
Width: 695
GlyphClass: 2
Flags: W
AnchorPoint: "Anchor-1" 261 0 basechar 0
AnchorPoint: "Anchor-0" 434 1055 basechar 0
LayerCount: 2
Fore
SplineSet
610 1056 m 0,0,1
 641 1056 641 1056 673 1051 c 1,2,-1
 673 1007 l 1,3,-1
 661 1002 l 1,4,5
 627 1009 627 1009 597 1009 c 0,6,7
 517 1009 517 1009 440 934 c 128,-1,8
 363 859 363 859 283 702 c 1,9,-1
 283 0 l 1,10,-1
 236 0 l 1,11,-1
 236 1049 l 1,12,-1
 283 1058 l 1,13,-1
 283 798 l 1,14,-1
 292 798 l 1,15,16
 364 930 364 930 441.5 993 c 128,-1,17
 519 1056 519 1056 610 1056 c 0,0,1
EndSplineSet
Substitution2: "'case' Case-Sensitive Forms lookup 28 subtable" R
Substitution2: "'ordn' Ordinals lookup 22 subtable" r.sups
Substitution2: "'sups' Superscript lookup 16 subtable" r.sups
AlternateSubs2: "'aalt' Access All Alternates lookup 1 subtable" r.sups R
EndChar

StartChar: s
Encoding: 115 115 86
Width: 833
GlyphClass: 2
Flags: W
AnchorPoint: "Anchor-1" 373 0 basechar 0
AnchorPoint: "Anchor-0" 408 1055 basechar 0
LayerCount: 2
Fore
SplineSet
450 1062 m 0,0,1
 559 1062 559 1062 670 1016 c 1,2,-1
 659 971 l 1,3,-1
 644 969 l 1,4,5
 549 1016 549 1016 448 1016 c 0,6,7
 332 1016 332 1016 259.5 952.5 c 128,-1,8
 187 889 187 889 187 798 c 0,9,10
 187 760 187 760 201.5 727 c 128,-1,11
 216 694 216 694 241 670.5 c 128,-1,12
 266 647 266 647 299 624.5 c 128,-1,13
 332 602 332 602 369 585 c 128,-1,14
 406 568 406 568 445.5 549 c 128,-1,15
 485 530 485 530 522.5 512 c 128,-1,16
 560 494 560 494 593 469.5 c 128,-1,17
 626 445 626 445 651 418 c 128,-1,18
 676 391 676 391 690.5 354 c 128,-1,19
 705 317 705 317 705 274 c 0,20,21
 705 155 705 155 611.5 72 c 128,-1,22
 518 -11 518 -11 374 -11 c 0,23,24
 302 -11 302 -11 230 10 c 128,-1,25
 158 31 158 31 105 70 c 1,26,-1
 112 109 l 1,27,-1
 124 116 l 1,28,29
 233 35 233 35 372 35 c 0,30,31
 438 35 438 35 493 55.5 c 128,-1,32
 548 76 548 76 584 109 c 128,-1,33
 620 142 620 142 639.5 184 c 128,-1,34
 659 226 659 226 659 271 c 0,35,36
 659 313 659 313 641 348 c 128,-1,37
 623 383 623 383 593 408.5 c 128,-1,38
 563 434 563 434 524.5 456.5 c 128,-1,39
 486 479 486 479 443 498.5 c 128,-1,40
 400 518 400 518 357 538.5 c 128,-1,41
 314 559 314 559 275 584 c 128,-1,42
 236 609 236 609 206 638.5 c 128,-1,43
 176 668 176 668 158 709.5 c 128,-1,44
 140 751 140 751 140 800 c 0,45,46
 140 915 140 915 225.5 988.5 c 128,-1,47
 311 1062 311 1062 450 1062 c 0,0,1
EndSplineSet
Substitution2: "'case' Case-Sensitive Forms lookup 28 subtable" S
Substitution2: "'ordn' Ordinals lookup 22 subtable" s.sups
Substitution2: "'sups' Superscript lookup 16 subtable" s.sups
AlternateSubs2: "'aalt' Access All Alternates lookup 1 subtable" s.sups S
EndChar

StartChar: t
Encoding: 116 116 87
Width: 695
GlyphClass: 2
Flags: W
AnchorPoint: "Anchor-1" 441 0 basechar 0
AnchorPoint: "Anchor-0" 0 0 basechar 0
LayerCount: 2
Fore
SplineSet
467 38 m 0,0,1
 557 38 557 38 649 98 c 1,2,-1
 659 91 l 1,3,-1
 653 49 l 1,4,5
 553 -9 553 -9 467 -9 c 0,6,7
 362 -9 362 -9 304.5 61 c 128,-1,8
 247 131 247 131 247 261 c 2,9,-1
 247 1009 l 1,10,-1
 103 1009 l 1,11,-1
 93 1018 l 1,12,-1
 100 1056 l 1,13,-1
 247 1056 l 1,14,-1
 247 1308 l 1,15,-1
 285 1321 l 1,16,-1
 294 1314 l 1,17,-1
 294 1056 l 1,18,-1
 656 1056 l 1,19,-1
 663 1047 l 1,20,-1
 656 1009 l 1,21,-1
 294 1009 l 1,22,-1
 294 263 l 2,23,24
 294 155 294 155 339 96.5 c 128,-1,25
 384 38 384 38 467 38 c 0,0,1
EndSplineSet
Substitution2: "'case' Case-Sensitive Forms lookup 28 subtable" T
Substitution2: "'ordn' Ordinals lookup 22 subtable" t.sups
Substitution2: "'sups' Superscript lookup 16 subtable" t.sups
AlternateSubs2: "'aalt' Access All Alternates lookup 1 subtable" t.sups T
EndChar

StartChar: u
Encoding: 117 117 88
Width: 1176
GlyphClass: 2
Flags: W
AnchorPoint: "Anchor-1" 0 0 basechar 0
AnchorPoint: "Anchor-0" 592 1055 basechar 0
LayerCount: 2
Fore
SplineSet
915 1058 m 1,0,-1
 915 185 l 2,1,2
 915 110 915 110 935.5 75 c 128,-1,3
 956 40 956 40 1000 40 c 0,4,5
 1051 40 1051 40 1096 75 c 1,6,-1
 1109 67 l 1,7,-1
 1100 26 l 1,8,9
 1051 -7 1051 -7 994 -7 c 0,10,11
 931 -7 931 -7 900 38.5 c 128,-1,12
 869 84 869 84 869 185 c 1,13,-1
 860 185 l 1,14,15
 682 -9 682 -9 486 -9 c 0,16,17
 352 -9 352 -9 281 73 c 128,-1,18
 210 155 210 155 210 308 c 2,19,-1
 210 1049 l 1,20,-1
 256 1058 l 1,21,-1
 256 310 l 2,22,23
 256 179 256 179 317.5 108.5 c 128,-1,24
 379 38 379 38 492 38 c 0,25,26
 584 38 584 38 680 92 c 128,-1,27
 776 146 776 146 869 252 c 1,28,-1
 869 1049 l 1,29,-1
 915 1058 l 1,0,-1
EndSplineSet
Substitution2: "'case' Case-Sensitive Forms lookup 28 subtable" U
Substitution2: "'ordn' Ordinals lookup 22 subtable" u.sups
Substitution2: "'sups' Superscript lookup 16 subtable" u.sups
AlternateSubs2: "'aalt' Access All Alternates lookup 1 subtable" u.sups U
EndChar

StartChar: v
Encoding: 118 118 89
Width: 942
GlyphClass: 2
Flags: W
LayerCount: 2
Fore
SplineSet
147 955 m 1,0,-1
 450 72 l 1,1,-1
 459 72 l 1,2,-1
 813 955 l 1,3,-1
 847 1056 l 1,4,-1
 904 1056 l 1,5,-1
 479 0 l 1,6,-1
 428 0 l 1,7,-1
 67 1051 l 1,8,-1
 116 1060 l 1,9,-1
 147 955 l 1,0,-1
EndSplineSet
Substitution2: "Single Substitution lookup 41 subtable" V.ss01
Substitution2: "'ss01' Style Set 1 lookup 35 subtable" V.ss01
Substitution2: "'case' Case-Sensitive Forms lookup 28 subtable" V
Substitution2: "'ordn' Ordinals lookup 22 subtable" v.sups
Substitution2: "'sups' Superscript lookup 16 subtable" v.sups
AlternateSubs2: "'aalt' Access All Alternates lookup 1 subtable" v.sups V V.ss01
EndChar

StartChar: w
Encoding: 119 119 90
Width: 1521
GlyphClass: 2
Flags: W
AnchorPoint: "Anchor-1" 0 0 basechar 0
AnchorPoint: "Anchor-0" 766 1055 basechar 0
LayerCount: 2
Fore
SplineSet
145 955 m 1,0,-1
 406 75 l 1,1,-1
 416 75 l 1,2,-1
 715 955 l 1,3,-1
 747 1056 l 1,4,-1
 800 1056 l 1,5,-1
 826 955 l 1,6,-1
 1085 75 l 1,7,-1
 1096 75 l 1,8,-1
 1396 955 l 1,9,-1
 1428 1056 l 1,10,-1
 1482 1056 l 1,11,-1
 1114 0 l 1,12,-1
 1062 0 l 1,13,-1
 775 971 l 1,14,-1
 766 971 l 1,15,-1
 434 0 l 1,16,-1
 383 0 l 1,17,-1
 67 1051 l 1,18,-1
 116 1060 l 1,19,-1
 145 955 l 1,0,-1
EndSplineSet
Substitution2: "'case' Case-Sensitive Forms lookup 28 subtable" W
Substitution2: "'ordn' Ordinals lookup 22 subtable" w.sups
Substitution2: "'sups' Superscript lookup 16 subtable" w.sups
AlternateSubs2: "'aalt' Access All Alternates lookup 1 subtable" w.sups W
EndChar

StartChar: x
Encoding: 120 120 91
Width: 954
GlyphClass: 2
Flags: W
LayerCount: 2
Fore
SplineSet
192 987 m 1,0,-1
 477 579 l 1,1,-1
 755 976 l 1,2,-1
 804 1056 l 1,3,-1
 866 1056 l 1,4,-1
 504 539 l 1,5,-1
 880 7 l 1,6,-1
 824 -5 l 1,7,-1
 773 78 l 1,8,-1
 474 504 l 1,9,-1
 173 72 l 1,10,-1
 127 0 l 1,11,-1
 63 0 l 1,12,-1
 446 544 l 1,13,-1
 91 1049 l 1,14,-1
 147 1060 l 1,15,-1
 192 987 l 1,0,-1
EndSplineSet
Substitution2: "Single Substitution lookup 41 subtable" X.ss01
Substitution2: "'ss01' Style Set 1 lookup 35 subtable" X.ss01
Substitution2: "'case' Case-Sensitive Forms lookup 28 subtable" X
Substitution2: "'ordn' Ordinals lookup 22 subtable" x.sups
Substitution2: "'sups' Superscript lookup 16 subtable" x.sups
AlternateSubs2: "'aalt' Access All Alternates lookup 1 subtable" x.sups X X.ss01
EndChar

StartChar: y
Encoding: 121 121 92
Width: 945
GlyphClass: 2
Flags: W
AnchorPoint: "Anchor-1" 0 0 basechar 0
AnchorPoint: "Anchor-0" 478 1055 basechar 0
LayerCount: 2
Fore
SplineSet
127 955 m 1,0,-1
 453 84 l 1,1,-1
 465 84 l 1,2,-1
 806 955 l 1,3,-1
 840 1056 l 1,4,-1
 896 1056 l 1,5,-1
 483 0 l 2,6,7
 437 -118 437 -118 393 -193 c 128,-1,8
 349 -268 349 -268 290 -318.5 c 128,-1,9
 231 -369 231 -369 163 -396 c 128,-1,10
 95 -423 95 -423 -9 -443 c 1,11,-1
 -21 -443 l 1,12,13
 -32 -432 -32 -432 -40 -416 c 1,14,-1
 -40 -401 l 1,15,16
 65 -380 65 -380 132 -355 c 128,-1,17
 199 -330 199 -330 255.5 -284 c 128,-1,18
 312 -238 312 -238 352 -171.5 c 128,-1,19
 392 -105 392 -105 432 0 c 1,20,-1
 44 1051 l 1,21,-1
 93 1060 l 1,22,-1
 127 955 l 1,0,-1
EndSplineSet
Substitution2: "'case' Case-Sensitive Forms lookup 28 subtable" Y
Substitution2: "'ordn' Ordinals lookup 22 subtable" y.sups
Substitution2: "'sups' Superscript lookup 16 subtable" y.sups
AlternateSubs2: "'aalt' Access All Alternates lookup 1 subtable" y.sups Y
EndChar

StartChar: z
Encoding: 122 122 93
Width: 931
GlyphClass: 2
Flags: W
AnchorPoint: "Anchor-1" 0 0 basechar 0
AnchorPoint: "Anchor-0" 469 1055 basechar 0
LayerCount: 2
Fore
SplineSet
250 1056 m 1,0,-1
 773 1056 l 1,1,-1
 831 1058 l 1,2,-1
 833 1018 l 1,3,-1
 154 47 l 1,4,-1
 708 47 l 1,5,-1
 831 49 l 1,6,-1
 838 40 l 1,7,-1
 829 -2 l 1,8,-1
 695 0 l 1,9,-1
 152 0 l 1,10,-1
 89 -2 l 1,11,-1
 89 38 l 1,12,-1
 768 1009 l 1,13,-1
 236 1009 l 1,14,-1
 129 1007 l 1,15,-1
 119 1016 l 1,16,-1
 129 1058 l 1,17,-1
 250 1056 l 1,0,-1
EndSplineSet
Substitution2: "'case' Case-Sensitive Forms lookup 28 subtable" Z
Substitution2: "'ordn' Ordinals lookup 22 subtable" z.sups
Substitution2: "'sups' Superscript lookup 16 subtable" z.sups
AlternateSubs2: "'aalt' Access All Alternates lookup 1 subtable" z.sups Z
EndChar

StartChar: braceleft
Encoding: 123 123 94
Width: 655
GlyphClass: 2
Flags: W
LayerCount: 2
Fore
SplineSet
521 1524 m 0,0,1
 563 1524 563 1524 606 1513 c 1,2,-1
 614 1506 l 1,3,-1
 604 1466 l 1,4,5
 542 1477 542 1477 514 1477 c 0,6,7
 429 1477 429 1477 388.5 1428.5 c 128,-1,8
 348 1380 348 1380 348 1275 c 0,9,10
 348 1207 348 1207 370 1047.5 c 128,-1,11
 392 888 392 888 392 833 c 0,12,13
 392 653 392 653 238 593 c 1,14,-1
 238 588 l 1,15,16
 392 528 392 528 392 348 c 0,17,18
 392 293 392 293 370 133.5 c 128,-1,19
 348 -26 348 -26 348 -93 c 0,20,21
 348 -199 348 -199 388.5 -247.5 c 128,-1,22
 429 -296 429 -296 514 -296 c 0,23,24
 541 -296 541 -296 604 -285 c 1,25,-1
 614 -325 l 1,26,-1
 606 -332 l 1,27,28
 563 -343 563 -343 521 -343 c 0,29,30
 412 -343 412 -343 356.5 -280 c 128,-1,31
 301 -217 301 -217 301 -93 c 0,32,33
 301 -22 301 -22 323 137 c 128,-1,34
 345 296 345 296 345 348 c 0,35,36
 345 448 345 448 292.5 502 c 128,-1,37
 240 556 240 556 127 570 c 1,38,-1
 127 612 l 1,39,40
 240 626 240 626 292.5 679.5 c 128,-1,41
 345 733 345 733 345 833 c 0,42,43
 345 885 345 885 323 1044 c 128,-1,44
 301 1203 301 1203 301 1275 c 0,45,46
 301 1398 301 1398 356.5 1461 c 128,-1,47
 412 1524 412 1524 521 1524 c 0,0,1
EndSplineSet
EndChar

StartChar: bar
Encoding: 124 124 95
Width: 746
GlyphClass: 2
Flags: W
LayerCount: 2
Fore
SplineSet
397 1842 m 1,0,-1
 397 -619 l 1,1,-1
 357 -619 l 1,2,-1
 350 -610 l 1,3,-1
 350 1842 l 1,4,-1
 392 1847 l 1,5,-1
 397 1842 l 1,0,-1
EndSplineSet
EndChar

StartChar: braceright
Encoding: 125 125 96
Width: 655
GlyphClass: 2
Flags: W
LayerCount: 2
Fore
SplineSet
136 -343 m 0,0,1
 93 -343 93 -343 49 -332 c 1,2,-1
 42 -325 l 1,3,-1
 51 -285 l 1,4,5
 114 -296 114 -296 142 -296 c 0,6,7
 227 -296 227 -296 267.5 -247.5 c 128,-1,8
 308 -199 308 -199 308 -93 c 0,9,10
 308 -26 308 -26 285.5 133.5 c 128,-1,11
 263 293 263 293 263 348 c 0,12,13
 263 528 263 528 418 588 c 1,14,-1
 418 593 l 1,15,16
 263 653 263 653 263 833 c 0,17,18
 263 888 263 888 285.5 1047.5 c 128,-1,19
 308 1207 308 1207 308 1275 c 0,20,21
 308 1380 308 1380 267.5 1428.5 c 128,-1,22
 227 1477 227 1477 142 1477 c 0,23,24
 114 1477 114 1477 51 1466 c 1,25,-1
 42 1506 l 1,26,-1
 49 1513 l 1,27,28
 93 1524 93 1524 136 1524 c 0,29,30
 355 1524 355 1524 355 1275 c 0,31,32
 355 1203 355 1203 332.5 1044 c 128,-1,33
 310 885 310 885 310 833 c 0,34,35
 310 733 310 733 363.5 679.5 c 128,-1,36
 417 626 417 626 530 612 c 1,37,-1
 530 570 l 1,38,39
 417 556 417 556 363.5 502 c 128,-1,40
 310 448 310 448 310 348 c 0,41,42
 310 296 310 296 332.5 137 c 128,-1,43
 355 -22 355 -22 355 -93 c 0,44,45
 355 -343 355 -343 136 -343 c 0,0,1
EndSplineSet
EndChar

StartChar: asciitilde
Encoding: 126 126 97
Width: 1120
GlyphClass: 2
Flags: W
LayerCount: 2
Fore
SplineSet
343 651 m 0,0,1
 334 651 334 651 324 646.5 c 128,-1,2
 314 642 314 642 299.5 631 c 128,-1,3
 285 620 285 620 273 610 c 128,-1,4
 261 600 261 600 237.5 579.5 c 128,-1,5
 214 559 214 559 196 544 c 1,6,-1
 182 544 l 1,7,-1
 165 565 l 1,8,-1
 165 577 l 1,9,-1
 315 700 l 1,10,-1
 329 708 l 1,11,12
 378 702 378 702 559 652 c 128,-1,13
 740 602 740 602 777 602 c 0,14,15
 786 602 786 602 796 606 c 128,-1,16
 806 610 806 610 821.5 621.5 c 128,-1,17
 837 633 837 633 847 642 c 128,-1,18
 857 651 857 651 883 674 c 128,-1,19
 909 697 909 697 925 710 c 1,20,-1
 938 710 l 1,21,-1
 955 686 l 1,22,-1
 955 677 l 1,23,-1
 804 551 l 1,24,-1
 789 546 l 1,25,26
 736 551 736 551 557.5 601 c 128,-1,27
 379 651 379 651 343 651 c 0,0,1
EndSplineSet
EndChar

StartChar: exclamdown
Encoding: 161 161 99
Width: 575
GlyphClass: 2
Flags: W
LayerCount: 2
Fore
SplineSet
303.5 978 m 128,-1,1
 282 978 282 978 269 990.5 c 128,-1,2
 256 1003 256 1003 256 1024.5 c 128,-1,3
 256 1046 256 1046 269 1059 c 128,-1,4
 282 1072 282 1072 303.5 1072 c 128,-1,5
 325 1072 325 1072 337.5 1059 c 128,-1,6
 350 1046 350 1046 350 1024.5 c 128,-1,7
 350 1003 350 1003 337.5 990.5 c 128,-1,0
 325 978 325 978 303.5 978 c 128,-1,1
241 -453 m 1,8,-1
 259 604 l 1,9,-1
 296 604 l 1,10,-1
 306 593 l 1,11,-1
 287 -453 l 1,12,-1
 280 -459 l 1,13,-1
 247 -459 l 1,14,-1
 241 -453 l 1,8,-1
EndSplineSet
EndChar

StartChar: cent
Encoding: 162 162 100
Width: 896
GlyphClass: 2
Flags: W
LayerCount: 2
Fore
SplineSet
842 238 m 1,0,-1
 838 196 l 1,1,2
 776 151 776 151 694.5 123.5 c 128,-1,3
 613 96 613 96 530 96 c 2,4,-1
 499 96 l 1,5,-1
 467 -266 l 1,6,-1
 432 -266 l 1,7,-1
 423 -256 l 1,8,-1
 453 103 l 1,9,10
 298 133 298 133 208.5 273 c 128,-1,11
 119 413 119 413 119 626 c 0,12,13
 119 876 119 876 232 1025 c 128,-1,14
 345 1174 345 1174 532 1174 c 2,15,-1
 544 1174 l 1,16,-1
 575 1517 l 1,17,-1
 612 1517 l 1,18,-1
 621 1506 l 1,19,-1
 593 1170 l 1,20,21
 659 1161 659 1161 722.5 1136.5 c 128,-1,22
 786 1112 786 1112 833 1076 c 1,23,-1
 817 1036 l 1,24,-1
 804 1036 l 1,25,26
 762 1068 762 1068 705 1091.5 c 128,-1,27
 648 1115 648 1115 588 1123 c 1,28,-1
 504 142 l 1,29,-1
 532 142 l 2,30,31
 609 142 609 142 688.5 169.5 c 128,-1,32
 768 197 768 197 829 243 c 1,33,-1
 842 238 l 1,0,-1
165 626 m 0,34,35
 165 434 165 434 243.5 306.5 c 128,-1,36
 322 179 322 179 457 149 c 1,37,-1
 539 1127 l 1,38,-1
 532 1127 l 2,39,40
 365 1127 365 1127 265 991 c 128,-1,41
 165 855 165 855 165 626 c 0,34,35
EndSplineSet
EndChar

StartChar: sterling
Encoding: 163 163 101
Width: 896
GlyphClass: 2
Flags: W
LayerCount: 2
Fore
SplineSet
808 38 m 1,0,-1
 800 0 l 1,1,-1
 84 0 l 1,2,-1
 75 9 l 1,3,-1
 82 42 l 1,4,5
 161 52 161 52 203 120 c 128,-1,6
 245 188 245 188 245 303 c 2,7,-1
 245 719 l 1,8,-1
 89 719 l 1,9,-1
 80 728 l 1,10,-1
 87 766 l 1,11,-1
 245 766 l 1,12,-1
 245 1043 l 2,13,14
 245 1207 245 1207 318.5 1293 c 128,-1,15
 392 1379 392 1379 535 1379 c 0,16,17
 641 1379 641 1379 766 1335 c 1,18,-1
 762 1292 l 1,19,-1
 755 1286 l 1,20,21
 660 1333 660 1333 542 1333 c 0,22,23
 292 1333 292 1333 292 1043 c 2,24,-1
 292 766 l 1,25,-1
 584 766 l 1,26,-1
 591 757 l 1,27,-1
 584 719 l 1,28,-1
 292 719 l 1,29,-1
 292 303 l 2,30,31
 292 131 292 131 198 51 c 1,32,-1
 198 47 l 1,33,-1
 637 47 l 1,34,-1
 798 49 l 1,35,-1
 808 38 l 1,0,-1
EndSplineSet
EndChar

StartChar: currency
Encoding: 164 164 102
Width: 1016
GlyphClass: 2
Flags: W
LayerCount: 2
Fore
SplineSet
864 1214 m 1,0,-1
 862 1203 l 1,1,-1
 712 1053 l 1,2,3
 787 968 787 968 787 857 c 0,4,5
 787 804 787 804 767.5 753 c 128,-1,6
 748 702 748 702 712 663 c 1,7,-1
 866 508 l 1,8,-1
 864 497 l 1,9,-1
 840 474 l 1,10,-1
 829 477 l 1,11,-1
 677 628 l 1,12,13
 638 593 638 593 587.5 573 c 128,-1,14
 537 553 537 553 483.5 553 c 128,-1,15
 430 553 430 553 379 573 c 128,-1,16
 328 593 328 593 290 628 c 1,17,-1
 136 474 l 1,18,-1
 124 477 l 1,19,-1
 100 499 l 1,20,-1
 103 512 l 1,21,-1
 254 663 l 1,22,23
 219 702 219 702 199.5 753 c 128,-1,24
 180 804 180 804 180 857 c 0,25,26
 180 968 180 968 254 1053 c 1,27,-1
 100 1207 l 1,28,-1
 103 1219 l 1,29,-1
 124 1239 l 1,30,-1
 136 1239 l 1,31,-1
 290 1085 l 1,32,33
 328 1121 328 1121 379 1141 c 128,-1,34
 430 1161 430 1161 483 1161 c 0,35,36
 589 1161 589 1161 677 1088 c 1,37,-1
 829 1239 l 1,38,-1
 840 1237 l 1,39,-1
 864 1214 l 1,0,-1
483.5 1114 m 128,-1,41
 378 1114 378 1114 302.5 1038 c 128,-1,42
 227 962 227 962 227 857 c 128,-1,43
 227 752 227 752 302.5 676 c 128,-1,44
 378 600 378 600 483 600 c 128,-1,45
 588 600 588 600 664 676 c 128,-1,46
 740 752 740 752 740 857 c 128,-1,47
 740 962 740 962 664.5 1038 c 128,-1,40
 589 1114 589 1114 483.5 1114 c 128,-1,41
EndSplineSet
EndChar

StartChar: yen
Encoding: 165 165 103
Width: 1012
GlyphClass: 2
Flags: W
LayerCount: 2
Fore
SplineSet
969 350 m 1,0,-1
 976 343 l 1,1,-1
 971 303 l 1,2,-1
 528 303 l 1,3,-1
 528 0 l 1,4,-1
 481 0 l 1,5,-1
 481 303 l 1,6,-1
 44 303 l 1,7,-1
 38 310 l 1,8,-1
 42 350 l 1,9,-1
 481 350 l 1,10,-1
 481 437 l 1,11,-1
 388 606 l 1,12,-1
 44 606 l 1,13,-1
 38 614 l 1,14,-1
 42 653 l 1,15,-1
 361 653 l 1,16,-1
 93 1147 l 1,17,-1
 152 1147 l 1,18,-1
 173 1098 l 1,19,-1
 499 506 l 1,20,-1
 508 506 l 1,21,-1
 864 1098 l 1,22,-1
 887 1147 l 1,23,-1
 945 1147 l 1,24,-1
 656 653 l 1,25,-1
 969 653 l 1,26,-1
 976 646 l 1,27,-1
 971 606 l 1,28,-1
 628 606 l 1,29,-1
 528 434 l 1,30,-1
 528 350 l 1,31,-1
 969 350 l 1,0,-1
EndSplineSet
EndChar

StartChar: brokenbar
Encoding: 166 166 104
Width: 746
GlyphClass: 2
Flags: W
LayerCount: 2
Fore
SplineSet
397 1842 m 1,0,-1
 397 860 l 1,1,-1
 357 855 l 1,2,-1
 350 862 l 1,3,-1
 350 1842 l 1,4,-1
 392 1847 l 1,5,-1
 397 1842 l 1,0,-1
397 361 m 1,6,-1
 397 -619 l 1,7,-1
 357 -619 l 1,8,-1
 350 -610 l 1,9,-1
 350 367 l 1,10,-1
 390 374 l 1,11,-1
 397 361 l 1,6,-1
EndSplineSet
EndChar

StartChar: section
Encoding: 167 167 105
Width: 949
GlyphClass: 2
Flags: W
LayerCount: 2
Fore
SplineSet
822 539 m 0,0,1
 822 454 822 454 767 380 c 128,-1,2
 712 306 712 306 606 250 c 1,3,4
 705 144 705 144 705 38 c 0,5,6
 705 -79 705 -79 610.5 -162 c 128,-1,7
 516 -245 516 -245 372 -245 c 0,8,9
 301 -245 301 -245 230 -223 c 128,-1,10
 159 -201 159 -201 105 -163 c 1,11,-1
 112 -124 l 1,12,-1
 124 -116 l 1,13,14
 234 -198 234 -198 372 -198 c 0,15,16
 438 -198 438 -198 493 -178 c 128,-1,17
 548 -158 548 -158 584 -125 c 128,-1,18
 620 -92 620 -92 639.5 -50.5 c 128,-1,19
 659 -9 659 -9 659 35 c 0,20,21
 659 88 659 88 630.5 139.5 c 128,-1,22
 602 191 602 191 556 234.5 c 128,-1,23
 510 278 510 278 455 322 c 128,-1,24
 400 366 400 366 344.5 411 c 128,-1,25
 289 456 289 456 243 502 c 128,-1,26
 197 548 197 548 168.5 605 c 128,-1,27
 140 662 140 662 140 722 c 0,28,29
 140 808 140 808 197.5 884 c 128,-1,30
 255 960 255 960 355 1016 c 1,31,32
 256 1118 256 1118 256 1223 c 0,33,34
 256 1335 256 1335 347 1415 c 128,-1,35
 438 1495 438 1495 575 1495 c 0,36,37
 677 1495 677 1495 789 1448 c 1,38,-1
 777 1403 l 1,39,-1
 764 1401 l 1,40,41
 669 1448 669 1448 570 1448 c 0,42,43
 508 1448 508 1448 456.5 1427.5 c 128,-1,44
 405 1407 405 1407 372 1374.5 c 128,-1,45
 339 1342 339 1342 321 1302 c 128,-1,46
 303 1262 303 1262 303 1221 c 0,47,48
 303 1171 303 1171 331.5 1121.5 c 128,-1,49
 360 1072 360 1072 406 1029.5 c 128,-1,50
 452 987 452 987 507.5 944 c 128,-1,51
 563 901 563 901 618 855.5 c 128,-1,52
 673 810 673 810 719 763 c 128,-1,53
 765 716 765 716 793.5 658 c 128,-1,54
 822 600 822 600 822 539 c 0,0,1
575 285 m 1,55,56
 675 334 675 334 725 399 c 128,-1,57
 775 464 775 464 775 537 c 0,58,59
 775 589 775 589 751 638.5 c 128,-1,60
 727 688 727 688 682 733 c 128,-1,61
 637 778 637 778 592 815 c 128,-1,62
 547 852 547 852 485.5 900 c 128,-1,63
 424 948 424 948 388 983 c 1,64,65
 291 932 291 932 239 861.5 c 128,-1,66
 187 791 187 791 187 719 c 0,67,68
 187 670 187 670 211.5 623 c 128,-1,69
 236 576 236 576 280.5 532 c 128,-1,70
 325 488 325 488 370.5 451.5 c 128,-1,71
 416 415 416 415 476.5 367.5 c 128,-1,72
 537 320 537 320 575 285 c 1,55,56
EndSplineSet
EndChar

StartChar: dieresis
Encoding: 168 168 106
Width: 909
GlyphClass: 2
Flags: W
LayerCount: 2
Fore
SplineSet
289.5 1436 m 128,-1,1
 311 1436 311 1436 323.5 1423.5 c 128,-1,2
 336 1411 336 1411 336 1389.5 c 128,-1,3
 336 1368 336 1368 323.5 1355.5 c 128,-1,4
 311 1343 311 1343 289.5 1343 c 128,-1,5
 268 1343 268 1343 255.5 1355.5 c 128,-1,6
 243 1368 243 1368 243 1389.5 c 128,-1,7
 243 1411 243 1411 255.5 1423.5 c 128,-1,0
 268 1436 268 1436 289.5 1436 c 128,-1,1
616.5 1436 m 128,-1,9
 638 1436 638 1436 650.5 1423.5 c 128,-1,10
 663 1411 663 1411 663 1389.5 c 128,-1,11
 663 1368 663 1368 650.5 1355.5 c 128,-1,12
 638 1343 638 1343 616.5 1343 c 128,-1,13
 595 1343 595 1343 582.5 1355.5 c 128,-1,14
 570 1368 570 1368 570 1389.5 c 128,-1,15
 570 1411 570 1411 582.5 1423.5 c 128,-1,8
 595 1436 595 1436 616.5 1436 c 128,-1,9
EndSplineSet
EndChar

StartChar: copyright
Encoding: 169 169 107
Width: 1591
GlyphClass: 2
Flags: W
LayerCount: 2
Fore
SplineSet
793.5 1396 m 128,-1,1
 945 1396 945 1396 1072 1344.5 c 128,-1,2
 1199 1293 1199 1293 1287.5 1200.5 c 128,-1,3
 1376 1108 1376 1108 1425.5 975 c 128,-1,4
 1475 842 1475 842 1475 684 c 128,-1,5
 1475 526 1475 526 1425.5 393 c 128,-1,6
 1376 260 1376 260 1287.5 167.5 c 128,-1,7
 1199 75 1199 75 1072 23.5 c 128,-1,8
 945 -28 945 -28 793.5 -28 c 128,-1,9
 642 -28 642 -28 515.5 23.5 c 128,-1,10
 389 75 389 75 300.5 167.5 c 128,-1,11
 212 260 212 260 163 392.5 c 128,-1,12
 114 525 114 525 114 684 c 128,-1,13
 114 843 114 843 163 975.5 c 128,-1,14
 212 1108 212 1108 300.5 1200.5 c 128,-1,15
 389 1293 389 1293 515.5 1344.5 c 128,-1,0
 642 1396 642 1396 793.5 1396 c 128,-1,1
793.5 1350 m 128,-1,17
 605 1350 605 1350 461 1267 c 128,-1,18
 317 1184 317 1184 239 1033 c 128,-1,19
 161 882 161 882 161 684 c 128,-1,20
 161 486 161 486 239 335 c 128,-1,21
 317 184 317 184 461 101 c 128,-1,22
 605 18 605 18 793.5 18 c 128,-1,23
 982 18 982 18 1126.5 101 c 128,-1,24
 1271 184 1271 184 1349.5 335.5 c 128,-1,25
 1428 487 1428 487 1428 684 c 128,-1,26
 1428 881 1428 881 1349.5 1032.5 c 128,-1,27
 1271 1184 1271 1184 1126.5 1267 c 128,-1,16
 982 1350 982 1350 793.5 1350 c 128,-1,17
815 1085 m 0,28,29
 939 1085 939 1085 1043 1018 c 1,30,-1
 1032 976 l 1,31,-1
 1020 976 l 1,32,33
 937 1039 937 1039 815 1039 c 0,34,35
 668 1039 668 1039 590 949 c 128,-1,36
 512 859 512 859 512 689 c 256,37,38
 512 519 512 519 587.5 429 c 128,-1,39
 663 339 663 339 804 339 c 0,40,41
 863 339 863 339 924 358 c 128,-1,42
 985 377 985 377 1034 413 c 1,43,-1
 1043 410 l 1,44,-1
 1039 367 l 1,45,46
 917 292 917 292 800 292 c 0,47,48
 636 292 636 292 550.5 394.5 c 128,-1,49
 465 497 465 497 465 689 c 0,50,51
 465 880 465 880 555 982.5 c 128,-1,52
 645 1085 645 1085 815 1085 c 0,28,29
EndSplineSet
EndChar

StartChar: ordfeminine
Encoding: 170 170 108
Width: 690
GlyphClass: 2
Flags: W
AnchorPoint: "Anchor-1" 0 0 basechar 0
AnchorPoint: "Anchor-0" 378 677 basechar 0
LayerCount: 2
Fore
SplineSet
348 1504 m 0,0,1
 438 1504 438 1504 487.5 1458.5 c 128,-1,2
 537 1413 537 1413 537 1330 c 0,3,4
 537 1312 537 1312 530 1133.5 c 128,-1,5
 523 955 523 955 523 936 c 0,6,7
 523 894 523 894 536 874.5 c 128,-1,8
 549 855 549 855 577 855 c 0,9,10
 610 855 610 855 637 876 c 1,11,-1
 646 871 l 1,12,-1
 640 833 l 1,13,14
 609 813 609 813 565.5 813 c 128,-1,15
 522 813 522 813 500 839 c 128,-1,16
 478 865 478 865 477 925 c 1,17,-1
 472 925 l 1,18,19
 428 873 428 873 375.5 842.5 c 128,-1,20
 323 812 323 812 274 811 c 1,21,22
 188 811 188 811 140.5 855.5 c 128,-1,23
 93 900 93 900 93 980 c 0,24,25
 93 1038 93 1038 127.5 1076 c 128,-1,26
 162 1114 162 1114 225 1127 c 2,27,-1
 486 1183 l 1,28,-1
 490 1321 l 1,29,30
 490 1388 490 1388 452.5 1423.5 c 128,-1,31
 415 1459 415 1459 343 1459 c 0,32,33
 248 1459 248 1459 131 1366 c 1,34,-1
 121 1368 l 1,35,-1
 112 1403 l 1,36,37
 231 1504 231 1504 348 1504 c 0,0,1
483 1147 m 1,38,-1
 241 1090 l 1,39,40
 193 1080 193 1080 167.5 1052 c 128,-1,41
 142 1024 142 1024 142 983 c 0,42,43
 142 921 142 921 177.5 887 c 128,-1,44
 213 853 213 853 278 853 c 0,45,46
 326 853 326 853 379 886 c 128,-1,47
 432 919 432 919 477 978 c 1,48,-1
 483 1147 l 1,38,-1
EndSplineSet
EndChar

StartChar: guillemetleft
Encoding: 171 171 109
Width: 849
GlyphClass: 2
Flags: W
LayerCount: 2
Fore
SplineSet
70 506 m 1,0,-1
 70 532 l 1,1,-1
 432 925 l 1,2,-1
 459 904 l 1,3,-1
 459 889 l 1,4,-1
 121 521 l 1,5,-1
 459 152 l 1,6,-1
 459 138 l 1,7,-1
 432 116 l 1,8,-1
 70 506 l 1,0,-1
410 506 m 1,9,-1
 410 532 l 1,10,-1
 773 925 l 1,11,-1
 800 904 l 1,12,-1
 800 889 l 1,13,-1
 463 521 l 1,14,-1
 800 152 l 1,15,-1
 800 138 l 1,16,-1
 773 116 l 1,17,-1
 410 506 l 1,9,-1
EndSplineSet
EndChar

StartChar: logicalnot
Encoding: 172 172 110
Width: 1120
GlyphClass: 2
Flags: W
LayerCount: 2
Fore
SplineSet
971 640 m 1,0,-1
 971 165 l 1,1,-1
 931 161 l 1,2,-1
 925 168 l 1,3,-1
 925 606 l 1,4,-1
 89 606 l 1,5,-1
 82 614 l 1,6,-1
 87 653 l 1,7,-1
 958 653 l 1,8,-1
 971 640 l 1,0,-1
EndSplineSet
EndChar

StartChar: softhyphen
Encoding: 173 173 111
Width: 725
GlyphClass: 2
Flags: W
LayerCount: 2
Fore
SplineSet
653 646 m 1,0,-1
 653 610 l 1,1,-1
 82 532 l 1,2,-1
 72 542 l 1,3,-1
 72 579 l 1,4,-1
 644 656 l 1,5,-1
 653 646 l 1,0,-1
EndSplineSet
EndChar

StartChar: registered
Encoding: 174 174 112
Width: 1007
GlyphClass: 2
Flags: W
LayerCount: 2
Fore
SplineSet
506 1639 m 0,0,1
 692 1639 692 1639 805 1526 c 128,-1,2
 918 1413 918 1413 918 1228 c 0,3,4
 918 1041 918 1041 805 928 c 128,-1,5
 692 815 692 815 506 815 c 0,6,7
 319 815 319 815 206 928 c 128,-1,8
 93 1041 93 1041 93 1228 c 0,9,10
 93 1414 93 1414 206 1526.5 c 128,-1,11
 319 1639 319 1639 506 1639 c 0,0,1
506 860 m 0,12,13
 671 860 671 860 772 960.5 c 128,-1,14
 873 1061 873 1061 873 1227.5 c 128,-1,15
 873 1394 873 1394 772.5 1494.5 c 128,-1,16
 672 1595 672 1595 506 1595 c 0,17,18
 339 1595 339 1595 238.5 1494.5 c 128,-1,19
 138 1394 138 1394 138 1227.5 c 128,-1,20
 138 1061 138 1061 238.5 960.5 c 128,-1,21
 339 860 339 860 506 860 c 0,12,13
649 1341 m 0,22,23
 649 1294 649 1294 624 1257 c 128,-1,24
 599 1220 599 1220 553 1200 c 1,25,26
 617 1101 617 1101 677 1029 c 1,27,-1
 677 1023 l 1,28,29
 672 1021 672 1021 662.5 1019 c 128,-1,30
 653 1017 653 1017 642.5 1015.5 c 128,-1,31
 632 1014 632 1014 628 1013 c 1,32,-1
 621 1018 l 1,33,34
 567 1089 567 1089 502 1190 c 1,35,-1
 421 1190 l 1,36,-1
 421 1161 l 1,37,-1
 423 1020 l 1,38,-1
 372 1020 l 1,39,-1
 372 1468 l 1,40,-1
 508 1468 l 2,41,42
 649 1468 649 1468 649 1341 c 0,22,23
421 1237 m 1,43,-1
 514 1232 l 1,44,45
 597 1260 597 1260 597 1335 c 0,46,47
 597 1377 597 1377 571.5 1400.5 c 128,-1,48
 546 1424 546 1424 497 1426 c 1,49,-1
 423 1424 l 1,50,-1
 421 1237 l 1,43,-1
EndSplineSet
EndChar

StartChar: macron
Encoding: 175 175 113
Width: 909
GlyphClass: 2
Flags: W
LayerCount: 2
Fore
SplineSet
796 1410 m 1,0,-1
 791 1370 l 1,1,-1
 121 1370 l 1,2,-1
 114 1377 l 1,3,-1
 119 1417 l 1,4,-1
 789 1417 l 1,5,-1
 796 1410 l 1,0,-1
EndSplineSet
EndChar

StartChar: degree
Encoding: 176 176 114
Width: 686
GlyphClass: 2
Flags: W
LayerCount: 2
Fore
SplineSet
343 1499 m 0,0,1
 460 1499 460 1499 543 1417.5 c 128,-1,2
 626 1336 626 1336 626 1219 c 256,3,4
 626 1102 626 1102 543.5 1021 c 128,-1,5
 461 940 461 940 343 940 c 0,6,7
 224 940 224 940 141 1021 c 128,-1,8
 58 1102 58 1102 58 1219 c 256,9,10
 58 1336 58 1336 141 1417.5 c 128,-1,11
 224 1499 224 1499 343 1499 c 0,0,1
343 1452 m 256,12,13
 248 1452 248 1452 176.5 1382.5 c 128,-1,14
 105 1313 105 1313 105 1219 c 0,15,16
 105 1126 105 1126 176.5 1056.5 c 128,-1,17
 248 987 248 987 343 987 c 256,18,19
 438 987 438 987 508.5 1056 c 128,-1,20
 579 1125 579 1125 579 1219 c 256,21,22
 579 1313 579 1313 508.5 1382.5 c 128,-1,23
 438 1452 438 1452 343 1452 c 256,12,13
EndSplineSet
EndChar

StartChar: plusminus
Encoding: 177 177 115
Width: 1120
GlyphClass: 2
Flags: W
LayerCount: 2
Fore
SplineSet
584 1092 m 1,0,-1
 584 653 l 1,1,-1
 1023 653 l 1,2,-1
 1029 646 l 1,3,-1
 1025 606 l 1,4,-1
 584 606 l 1,5,-1
 584 165 l 1,6,-1
 544 161 l 1,7,-1
 537 168 l 1,8,-1
 537 606 l 1,9,-1
 98 606 l 1,10,-1
 91 614 l 1,11,-1
 96 653 l 1,12,-1
 537 653 l 1,13,-1
 537 1096 l 1,14,-1
 577 1100 l 1,15,-1
 584 1092 l 1,0,-1
1029 -112 m 1,16,-1
 1025 -152 l 1,17,-1
 98 -152 l 1,18,-1
 91 -145 l 1,19,-1
 96 -105 l 1,20,-1
 1023 -105 l 1,21,-1
 1029 -112 l 1,16,-1
EndSplineSet
EndChar

StartChar: twosuperior
Encoding: 178 178 116
Width: 784
GlyphClass: 2
Flags: W
LayerCount: 2
Fore
SplineSet
392 1639 m 0,0,1
 485 1639 485 1639 543.5 1590 c 128,-1,2
 602 1541 602 1541 602 1464 c 0,3,4
 602 1395 602 1395 552 1313.5 c 128,-1,5
 502 1232 502 1232 388 1092 c 2,6,-1
 168 822 l 1,7,-1
 173 817 l 1,8,-1
 581 817 l 1,9,-1
 724 820 l 1,10,-1
 728 811 l 1,11,-1
 722 771 l 1,12,-1
 570 773 l 1,13,-1
 176 773 l 1,14,-1
 107 771 l 1,15,-1
 103 775 l 1,16,-1
 103 811 l 1,17,-1
 352 1116 l 2,18,19
 461 1250 461 1250 507 1323.5 c 128,-1,20
 553 1397 553 1397 553 1457 c 0,21,22
 553 1516 553 1516 509 1555.5 c 128,-1,23
 465 1595 465 1595 388 1595 c 0,24,25
 318 1595 318 1595 253.5 1560 c 128,-1,26
 189 1525 189 1525 138 1461 c 1,27,-1
 131 1461 l 1,28,-1
 121 1501 l 1,29,30
 172 1566 172 1566 242.5 1602.5 c 128,-1,31
 313 1639 313 1639 392 1639 c 0,0,1
EndSplineSet
EndChar

StartChar: threesuperior
Encoding: 179 179 117
Width: 684
GlyphClass: 2
Flags: W
LayerCount: 2
Fore
SplineSet
303 1642 m 0,0,1
 397 1642 397 1642 455.5 1593 c 128,-1,2
 514 1544 514 1544 514 1464 c 0,3,4
 514 1398 514 1398 469.5 1338 c 128,-1,5
 425 1278 425 1278 350 1245 c 1,6,-1
 350 1239 l 1,7,8
 450 1218 450 1218 503.5 1162 c 128,-1,9
 557 1106 557 1106 557 1023 c 0,10,11
 557 910 557 910 466.5 839 c 128,-1,12
 376 768 376 768 231 768 c 0,13,14
 158 768 158 768 91 782 c 1,15,-1
 87 820 l 1,16,-1
 91 824 l 1,17,18
 165 813 165 813 231 813 c 0,19,20
 358 813 358 813 435 870 c 128,-1,21
 512 927 512 927 512 1023 c 0,22,23
 512 1110 512 1110 445.5 1159.5 c 128,-1,24
 379 1209 379 1209 256 1214 c 1,25,-1
 180 1214 l 1,26,-1
 176 1219 l 1,27,-1
 178 1254 l 1,28,-1
 245 1254 l 2,29,30
 292 1254 292 1254 342.5 1279.5 c 128,-1,31
 393 1305 393 1305 429 1353.5 c 128,-1,32
 465 1402 465 1402 465 1457 c 0,33,34
 465 1520 465 1520 419 1558.5 c 128,-1,35
 373 1597 373 1597 299 1597 c 0,36,37
 200 1597 200 1597 98 1506 c 1,38,-1
 91 1506 l 1,39,-1
 82 1546 l 1,40,41
 188 1642 188 1642 303 1642 c 0,0,1
EndSplineSet
EndChar

StartChar: acute
Encoding: 180 180 118
Width: 909
GlyphClass: 2
Flags: W
LayerCount: 2
Fore
SplineSet
621 1560 m 1,0,-1
 644 1537 l 1,1,-1
 642 1524 l 1,2,3
 490 1372 490 1372 306 1210 c 1,4,-1
 294 1212 l 1,5,-1
 269 1243 l 1,6,7
 436 1384 436 1384 610 1562 c 1,8,-1
 621 1560 l 1,0,-1
EndSplineSet
EndChar

StartChar: micro
Encoding: 181 181 119
Width: 1163
GlyphClass: 2
Flags: W
LayerCount: 2
Fore
SplineSet
1118 67 m 1,0,-1
 1109 26 l 1,1,2
 1060 -7 1060 -7 1004 -7 c 0,3,4
 939 -7 939 -7 907.5 38.5 c 128,-1,5
 876 84 876 84 876 185 c 1,6,-1
 866 185 l 1,7,8
 685 -9 685 -9 488 -9 c 0,9,10
 321 -9 321 -9 256 116 c 1,11,-1
 256 -432 l 1,12,-1
 210 -432 l 1,13,-1
 210 1049 l 1,14,-1
 256 1058 l 1,15,-1
 256 310 l 2,16,17
 256 178 256 178 317.5 108 c 128,-1,18
 379 38 379 38 495 38 c 0,19,20
 685 38 685 38 876 252 c 1,21,-1
 876 1049 l 1,22,-1
 922 1058 l 1,23,-1
 922 185 l 2,24,25
 922 110 922 110 942.5 75 c 128,-1,26
 963 40 963 40 1007 40 c 0,27,28
 1060 40 1060 40 1105 75 c 1,29,-1
 1118 67 l 1,0,-1
EndSplineSet
EndChar

StartChar: paragraph
Encoding: 182 182 120
Width: 1043
GlyphClass: 2
Flags: W
LayerCount: 2
Fore
SplineSet
960 1477 m 1,0,-1
 953 1441 l 1,1,-1
 764 1441 l 1,2,-1
 764 285 l 2,3,4
 764 155 764 155 693.5 47.5 c 128,-1,5
 623 -60 623 -60 474 -158 c 1,6,-1
 450 -133 l 1,7,-1
 450 -119 l 1,8,9
 587 -30 587 -30 652 67 c 128,-1,10
 717 164 717 164 717 276 c 2,11,-1
 717 1441 l 1,12,-1
 551 1441 l 1,13,14
 367 1432 367 1432 267.5 1333.5 c 128,-1,15
 168 1235 168 1235 168 1062 c 0,16,17
 168 885 168 885 274.5 774 c 128,-1,18
 381 663 381 663 581 628 c 1,19,-1
 572 581 l 1,20,21
 355 617 355 617 238 737.5 c 128,-1,22
 121 858 121 858 121 1062 c 0,23,24
 121 1265 121 1265 237 1376.5 c 128,-1,25
 353 1488 353 1488 568 1488 c 2,26,-1
 951 1488 l 1,27,-1
 960 1477 l 1,0,-1
EndSplineSet
EndChar

StartChar: periodcentered
Encoding: 183 183 121
Width: 536
GlyphClass: 2
Flags: W
LayerCount: 2
Fore
SplineSet
269 602 m 128,-1,1
 290 602 290 602 302.5 589.5 c 128,-1,2
 315 577 315 577 315 555.5 c 128,-1,3
 315 534 315 534 302.5 521 c 128,-1,4
 290 508 290 508 269 508 c 128,-1,5
 248 508 248 508 235 521 c 128,-1,6
 222 534 222 534 222 555.5 c 128,-1,7
 222 577 222 577 235 589.5 c 128,-1,0
 248 602 248 602 269 602 c 128,-1,1
EndSplineSet
EndChar

StartChar: cedilla
Encoding: 184 184 122
Width: 909
GlyphClass: 2
Flags: W
LayerCount: 2
Fore
SplineSet
441 -129 m 1,0,-1
 514 -176 l 2,1,2
 554 -201 554 -201 572.5 -228 c 128,-1,3
 591 -255 591 -255 591 -292 c 0,4,5
 591 -348 591 -348 550 -382 c 128,-1,6
 509 -416 509 -416 450 -416 c 0,7,8
 403 -416 403 -416 368 -393 c 128,-1,9
 333 -370 333 -370 312 -339 c 1,10,-1
 327 -296 l 1,11,-1
 336 -296 l 1,12,13
 361 -333 361 -333 385.5 -351 c 128,-1,14
 410 -369 410 -369 450 -369 c 0,15,16
 493 -369 493 -369 518.5 -348.5 c 128,-1,17
 544 -328 544 -328 544 -292 c 0,18,19
 544 -266 544 -266 531 -250 c 128,-1,20
 518 -234 518 -234 488 -214 c 2,21,-1
 385 -149 l 1,22,-1
 443 26 l 1,23,-1
 490 26 l 1,24,-1
 441 -129 l 1,0,-1
EndSplineSet
EndChar

StartChar: onesuperior
Encoding: 185 185 123
Width: 559
GlyphClass: 2
Flags: W
LayerCount: 2
Fore
SplineSet
323 1637 m 1,0,-1
 323 773 l 1,1,-1
 276 773 l 1,2,-1
 276 1586 l 1,3,-1
 47 1522 l 1,4,-1
 38 1526 l 1,5,-1
 38 1564 l 1,6,-1
 315 1646 l 1,7,-1
 323 1637 l 1,0,-1
EndSplineSet
EndChar

StartChar: ordmasculine
Encoding: 186 186 124
Width: 767
GlyphClass: 2
Flags: W
AnchorPoint: "Anchor-1" 0 0 basechar 0
AnchorPoint: "Anchor-0" 422 677 basechar 0
LayerCount: 2
Fore
SplineSet
390 1504 m 0,0,1
 525 1504 525 1504 601 1413 c 128,-1,2
 677 1322 677 1322 677 1163 c 0,3,4
 677 996 677 996 598 902 c 128,-1,5
 519 808 519 808 378 808 c 0,6,7
 244 808 244 808 167.5 899 c 128,-1,8
 91 990 91 990 91 1149 c 0,9,10
 91 1316 91 1316 170.5 1410 c 128,-1,11
 250 1504 250 1504 390 1504 c 0,0,1
388 1459 m 0,12,13
 271 1459 271 1459 205.5 1378.5 c 128,-1,14
 140 1298 140 1298 140 1151 c 0,15,16
 140 1010 140 1010 203 931.5 c 128,-1,17
 266 853 266 853 378 853 c 0,18,19
 496 853 496 853 562 933.5 c 128,-1,20
 628 1014 628 1014 628 1161 c 0,21,22
 628 1302 628 1302 564 1380.5 c 128,-1,23
 500 1459 500 1459 388 1459 c 0,12,13
EndSplineSet
EndChar

StartChar: guillemetright
Encoding: 187 187 125
Width: 828
GlyphClass: 2
Flags: W
LayerCount: 2
Fore
SplineSet
428 535 m 1,0,-1
 428 508 l 1,1,-1
 65 116 l 1,2,-1
 38 138 l 1,3,-1
 38 152 l 1,4,-1
 376 521 l 1,5,-1
 38 889 l 1,6,-1
 38 904 l 1,7,-1
 65 925 l 1,8,-1
 428 535 l 1,0,-1
768 535 m 1,9,-1
 768 508 l 1,10,-1
 406 116 l 1,11,-1
 378 138 l 1,12,-1
 378 152 l 1,13,-1
 717 521 l 1,14,-1
 378 889 l 1,15,-1
 378 904 l 1,16,-1
 406 925 l 1,17,-1
 768 535 l 1,9,-1
EndSplineSet
EndChar

StartChar: onequarter
Encoding: 188 188 126
Width: 1531
GlyphClass: 2
Flags: W
LayerCount: 2
Fore
SplineSet
1232 1531 m 1,0,-1
 100 -210 l 1,1,-1
 80 -201 l 1,2,-1
 70 -180 l 1,3,-1
 1203 1562 l 1,4,-1
 1226 1550 l 1,5,-1
 1232 1531 l 1,0,-1
276 1439 m 1,6,-1
 47 1375 l 1,7,-1
 38 1379 l 1,8,-1
 38 1417 l 1,9,-1
 315 1499 l 1,10,-1
 323 1490 l 1,11,-1
 323 626 l 1,12,-1
 276 626 l 1,13,-1
 276 1439 l 1,6,-1
1439 312 m 1,14,-1
 1431 276 l 1,15,-1
 1314 278 l 1,16,-1
 1270 278 l 1,17,-1
 1272 5 l 1,18,-1
 1268 0 l 1,19,-1
 1230 -5 l 1,20,-1
 1226 0 l 1,21,-1
 1226 278 l 1,22,-1
 898 278 l 1,23,-1
 826 276 l 1,24,-1
 820 283 l 1,25,-1
 820 318 l 1,26,-1
 1226 862 l 1,27,-1
 1270 862 l 1,28,-1
 1270 320 l 1,29,-1
 1431 320 l 1,30,-1
 1439 312 l 1,14,-1
1226 320 m 1,31,-1
 1226 787 l 1,32,-1
 1219 787 l 1,33,-1
 871 320 l 1,34,-1
 1226 320 l 1,31,-1
EndSplineSet
EndChar

StartChar: onehalf
Encoding: 189 189 127
Width: 1533
GlyphClass: 2
Flags: W
LayerCount: 2
Fore
SplineSet
1226 1550 m 1,0,-1
 1232 1531 l 1,1,-1
 100 -210 l 1,2,-1
 80 -201 l 1,3,-1
 70 -180 l 1,4,-1
 1203 1562 l 1,5,-1
 1226 1550 l 1,0,-1
323 1490 m 1,6,-1
 323 626 l 1,7,-1
 276 626 l 1,8,-1
 276 1439 l 1,9,-1
 47 1375 l 1,10,-1
 38 1379 l 1,11,-1
 38 1417 l 1,12,-1
 315 1499 l 1,13,-1
 323 1490 l 1,6,-1
1141 866 m 0,14,15
 1234 866 1234 866 1293 817 c 128,-1,16
 1352 768 1352 768 1352 691 c 0,17,18
 1352 623 1352 623 1302.5 542.5 c 128,-1,19
 1253 462 1253 462 1137 320 c 2,20,-1
 918 49 l 1,21,-1
 922 44 l 1,22,-1
 1330 44 l 1,23,-1
 1473 47 l 1,24,-1
 1477 38 l 1,25,-1
 1471 -2 l 1,26,-1
 1319 0 l 1,27,-1
 925 0 l 1,28,-1
 857 -2 l 1,29,-1
 853 2 l 1,30,-1
 853 38 l 1,31,-1
 1102 343 l 2,32,33
 1211 478 1211 478 1257 551 c 128,-1,34
 1303 624 1303 624 1303 684 c 0,35,36
 1303 743 1303 743 1258.5 782.5 c 128,-1,37
 1214 822 1214 822 1137 822 c 0,38,39
 1067 822 1067 822 1002.5 787 c 128,-1,40
 938 752 938 752 887 689 c 1,41,-1
 880 689 l 1,42,-1
 871 728 l 1,43,44
 923 793 923 793 992.5 829.5 c 128,-1,45
 1062 866 1062 866 1141 866 c 0,14,15
EndSplineSet
EndChar

StartChar: threequarters
Encoding: 190 190 128
Width: 1608
GlyphClass: 2
Flags: W
LayerCount: 2
Fore
SplineSet
1310 1531 m 1,0,-1
 178 -210 l 1,1,-1
 156 -201 l 1,2,-1
 147 -180 l 1,3,-1
 1279 1562 l 1,4,-1
 1303 1550 l 1,5,-1
 1310 1531 l 1,0,-1
557 876 m 0,6,7
 557 763 557 763 466.5 692 c 128,-1,8
 376 621 376 621 231 621 c 0,9,10
 158 621 158 621 91 635 c 1,11,-1
 87 673 l 1,12,-1
 91 677 l 1,13,14
 165 666 165 666 231 666 c 0,15,16
 358 666 358 666 435 723 c 128,-1,17
 512 780 512 780 512 876 c 0,18,19
 512 963 512 963 445.5 1012.5 c 128,-1,20
 379 1062 379 1062 256 1067 c 1,21,-1
 180 1067 l 1,22,-1
 176 1072 l 1,23,-1
 178 1107 l 1,24,-1
 245 1107 l 2,25,26
 292 1107 292 1107 342.5 1132.5 c 128,-1,27
 393 1158 393 1158 429 1206.5 c 128,-1,28
 465 1255 465 1255 465 1310 c 0,29,30
 465 1373 465 1373 419 1411.5 c 128,-1,31
 373 1450 373 1450 299 1450 c 0,32,33
 200 1450 200 1450 98 1359 c 1,34,-1
 91 1359 l 1,35,-1
 82 1399 l 1,36,37
 188 1495 188 1495 303 1495 c 0,38,39
 397 1495 397 1495 455.5 1446 c 128,-1,40
 514 1397 514 1397 514 1317 c 0,41,42
 514 1251 514 1251 469.5 1191 c 128,-1,43
 425 1131 425 1131 350 1098 c 1,44,-1
 350 1092 l 1,45,46
 450 1071 450 1071 503.5 1015 c 128,-1,47
 557 959 557 959 557 876 c 0,6,7
1515 312 m 1,48,-1
 1508 276 l 1,49,-1
 1392 278 l 1,50,-1
 1347 278 l 1,51,-1
 1350 5 l 1,52,-1
 1345 0 l 1,53,-1
 1308 -5 l 1,54,-1
 1303 0 l 1,55,-1
 1303 278 l 1,56,-1
 976 278 l 1,57,-1
 904 276 l 1,58,-1
 896 283 l 1,59,-1
 896 318 l 1,60,-1
 1303 862 l 1,61,-1
 1347 862 l 1,62,-1
 1347 320 l 1,63,-1
 1508 320 l 1,64,-1
 1515 312 l 1,48,-1
1303 320 m 1,65,-1
 1303 787 l 1,66,-1
 1296 787 l 1,67,-1
 947 320 l 1,68,-1
 1303 320 l 1,65,-1
EndSplineSet
EndChar

StartChar: questiondown
Encoding: 191 191 129
Width: 751
GlyphClass: 2
Flags: W
LayerCount: 2
Fore
SplineSet
443.5 978 m 128,-1,1
 422 978 422 978 409.5 990.5 c 128,-1,2
 397 1003 397 1003 397 1024.5 c 128,-1,3
 397 1046 397 1046 409.5 1059 c 128,-1,4
 422 1072 422 1072 443.5 1072 c 128,-1,5
 465 1072 465 1072 477.5 1059 c 128,-1,6
 490 1046 490 1046 490 1024.5 c 128,-1,7
 490 1003 490 1003 477.5 990.5 c 128,-1,0
 465 978 465 978 443.5 978 c 128,-1,1
570 -453 m 1,8,-1
 555 -459 l 1,9,10
 301 -438 301 -438 166 -345.5 c 128,-1,11
 31 -253 31 -253 31 -100 c 0,12,13
 31 -15 31 -15 77 62 c 128,-1,14
 123 139 123 139 210 198 c 2,15,-1
 434 352 l 1,16,-1
 437 359 l 1,17,-1
 425 612 l 1,18,-1
 465 614 l 1,19,-1
 472 604 l 1,20,-1
 486 348 l 1,21,-1
 474 327 l 1,22,-1
 238 165 l 1,23,24
 161 116 161 116 119.5 48.5 c 128,-1,25
 78 -19 78 -19 78 -96 c 0,26,27
 78 -234 78 -234 207.5 -316.5 c 128,-1,28
 337 -399 337 -399 579 -413 c 1,29,-1
 584 -421 l 1,30,-1
 570 -453 l 1,8,-1
EndSplineSet
EndChar

StartChar: Agrave
Encoding: 192 192 130
Width: 1292
GlyphClass: 2
Flags: W
AnchorPoint: "Anchor-1" 0 0 basechar 0
AnchorPoint: "Anchor-0" 646 1487 basechar 0
LayerCount: 2
Fore
SplineSet
847 1702 m 1,0,-1
 836 1695 l 1,1,2
 591 1818 591 1818 430 1912 c 1,3,-1
 425 1924 l 1,4,-1
 441 1952 l 1,5,-1
 453 1956 l 1,6,7
 647 1841 647 1841 864 1737 c 1,8,-1
 847 1702 l 1,0,-1
1228 0 m 1,9,-1
 1174 0 l 1,10,-1
 1145 100 l 1,11,-1
 996 497 l 1,12,-1
 292 497 l 1,13,-1
 133 100 l 1,14,-1
 100 0 l 1,15,-1
 44 0 l 1,16,-1
 637 1488 l 1,17,-1
 684 1488 l 1,18,-1
 1228 0 l 1,9,-1
980 544 m 1,19,-1
 663 1408 l 1,20,-1
 653 1408 l 1,21,-1
 310 544 l 1,22,-1
 980 544 l 1,19,-1
EndSplineSet
Position2: "'cpsp' Capital Spacing lookup 0 subtable" dx=16 dy=0 dh=33 dv=0
EndChar

StartChar: Aacute
Encoding: 193 193 131
Width: 1292
GlyphClass: 2
Flags: W
AnchorPoint: "Anchor-1" 0 0 basechar 0
AnchorPoint: "Anchor-0" 646 1487 basechar 0
LayerCount: 2
Fore
SplineSet
519 1697 m 1,0,-1
 502 1733 l 1,1,2
 719 1836 719 1836 913 1952 c 1,3,-1
 925 1947 l 1,4,-1
 940 1919 l 1,5,-1
 936 1907 l 1,6,7
 775 1814 775 1814 530 1691 c 1,8,-1
 519 1697 l 1,0,-1
1228 0 m 1,9,-1
 1174 0 l 1,10,-1
 1145 100 l 1,11,-1
 996 497 l 1,12,-1
 292 497 l 1,13,-1
 133 100 l 1,14,-1
 100 0 l 1,15,-1
 44 0 l 1,16,-1
 637 1488 l 1,17,-1
 684 1488 l 1,18,-1
 1228 0 l 1,9,-1
980 544 m 1,19,-1
 663 1408 l 1,20,-1
 653 1408 l 1,21,-1
 310 544 l 1,22,-1
 980 544 l 1,19,-1
EndSplineSet
Position2: "'cpsp' Capital Spacing lookup 0 subtable" dx=16 dy=0 dh=33 dv=0
EndChar

StartChar: Acircumflex
Encoding: 194 194 132
Width: 1292
GlyphClass: 2
Flags: W
AnchorPoint: "Anchor-1" 0 0 basechar 0
AnchorPoint: "Anchor-0" 646 1487 basechar 0
LayerCount: 2
Fore
SplineSet
413 1723 m 1,0,-1
 397 1756 l 1,1,2
 502 1830 502 1830 626 1933 c 1,3,-1
 663 1933 l 1,4,5
 682 1919 682 1919 720 1889 c 128,-1,6
 758 1859 758 1859 780.5 1841.5 c 128,-1,7
 803 1824 803 1824 835.5 1799.5 c 128,-1,8
 868 1775 868 1775 896 1756 c 1,9,-1
 880 1723 l 1,10,-1
 869 1723 l 1,11,12
 768 1792 768 1792 646 1887 c 1,13,14
 516 1785 516 1785 425 1723 c 1,15,-1
 413 1723 l 1,0,-1
1228 0 m 1,16,-1
 1174 0 l 1,17,-1
 1145 100 l 1,18,-1
 996 497 l 1,19,-1
 292 497 l 1,20,-1
 133 100 l 1,21,-1
 100 0 l 1,22,-1
 44 0 l 1,23,-1
 637 1488 l 1,24,-1
 684 1488 l 1,25,-1
 1228 0 l 1,16,-1
980 544 m 1,26,-1
 663 1408 l 1,27,-1
 653 1408 l 1,28,-1
 310 544 l 1,29,-1
 980 544 l 1,26,-1
EndSplineSet
Position2: "'cpsp' Capital Spacing lookup 0 subtable" dx=16 dy=0 dh=33 dv=0
EndChar

StartChar: Atilde
Encoding: 195 195 133
Width: 1292
GlyphClass: 2
Flags: W
AnchorPoint: "Anchor-1" 0 0 basechar 0
AnchorPoint: "Anchor-0" 646 1487 basechar 0
LayerCount: 2
Fore
SplineSet
343 1749 m 1,0,-1
 323 1774 l 1,1,-1
 323 1784 l 1,2,-1
 443 1894 l 1,3,-1
 457 1898 l 1,4,5
 500 1894 500 1894 646 1851.5 c 128,-1,6
 792 1809 792 1809 822 1809 c 0,7,8
 831 1809 831 1809 843.5 1817 c 128,-1,9
 856 1825 856 1825 867 1835.5 c 128,-1,10
 878 1846 878 1846 900 1867.5 c 128,-1,11
 922 1889 922 1889 940 1905 c 1,12,-1
 951 1905 l 1,13,-1
 971 1880 l 1,14,-1
 971 1870 l 1,15,-1
 849 1760 l 1,16,-1
 836 1756 l 1,17,18
 793 1760 793 1760 647 1802.5 c 128,-1,19
 501 1845 501 1845 472 1845 c 0,20,21
 464 1845 464 1845 455.5 1840.5 c 128,-1,22
 447 1836 447 1836 436 1826.5 c 128,-1,23
 425 1817 425 1817 414.5 1807 c 128,-1,24
 404 1797 404 1797 386 1780 c 128,-1,25
 368 1763 368 1763 352 1749 c 1,26,-1
 343 1749 l 1,0,-1
1228 0 m 1,27,-1
 1174 0 l 1,28,-1
 1145 100 l 1,29,-1
 996 497 l 1,30,-1
 292 497 l 1,31,-1
 133 100 l 1,32,-1
 100 0 l 1,33,-1
 44 0 l 1,34,-1
 637 1488 l 1,35,-1
 684 1488 l 1,36,-1
 1228 0 l 1,27,-1
980 544 m 1,37,-1
 663 1408 l 1,38,-1
 653 1408 l 1,39,-1
 310 544 l 1,40,-1
 980 544 l 1,37,-1
EndSplineSet
Position2: "'cpsp' Capital Spacing lookup 0 subtable" dx=16 dy=0 dh=33 dv=0
EndChar

StartChar: Adieresis
Encoding: 196 196 134
Width: 1292
GlyphClass: 2
Flags: W
AnchorPoint: "Anchor-1" 0 0 basechar 0
AnchorPoint: "Anchor-0" 646 1487 basechar 0
LayerCount: 2
Fore
SplineSet
483.5 1774 m 128,-1,1
 462 1774 462 1774 449.5 1786.5 c 128,-1,2
 437 1799 437 1799 437 1820.5 c 128,-1,3
 437 1842 437 1842 449.5 1854.5 c 128,-1,4
 462 1867 462 1867 483.5 1867 c 128,-1,5
 505 1867 505 1867 517.5 1854.5 c 128,-1,6
 530 1842 530 1842 530 1820.5 c 128,-1,7
 530 1799 530 1799 517.5 1786.5 c 128,-1,0
 505 1774 505 1774 483.5 1774 c 128,-1,1
810.5 1774 m 128,-1,9
 789 1774 789 1774 776.5 1786.5 c 128,-1,10
 764 1799 764 1799 764 1820.5 c 128,-1,11
 764 1842 764 1842 776.5 1854.5 c 128,-1,12
 789 1867 789 1867 810.5 1867 c 128,-1,13
 832 1867 832 1867 844.5 1854.5 c 128,-1,14
 857 1842 857 1842 857 1820.5 c 128,-1,15
 857 1799 857 1799 844.5 1786.5 c 128,-1,8
 832 1774 832 1774 810.5 1774 c 128,-1,9
1228 0 m 1,16,-1
 1174 0 l 1,17,-1
 1145 100 l 1,18,-1
 996 497 l 1,19,-1
 292 497 l 1,20,-1
 133 100 l 1,21,-1
 100 0 l 1,22,-1
 44 0 l 1,23,-1
 637 1488 l 1,24,-1
 684 1488 l 1,25,-1
 1228 0 l 1,16,-1
980 544 m 1,26,-1
 663 1408 l 1,27,-1
 653 1408 l 1,28,-1
 310 544 l 1,29,-1
 980 544 l 1,26,-1
EndSplineSet
Position2: "'cpsp' Capital Spacing lookup 0 subtable" dx=16 dy=0 dh=33 dv=0
EndChar

StartChar: Aring
Encoding: 197 197 135
Width: 1292
GlyphClass: 2
Flags: W
AnchorPoint: "Anchor-1" 0 0 basechar 0
AnchorPoint: "Anchor-0" 646 1487 basechar 0
LayerCount: 2
Fore
SplineSet
642 1667 m 0,0,1
 577 1667 577 1667 528 1712 c 128,-1,2
 479 1757 479 1757 479 1831 c 0,3,4
 479 1900 479 1900 524 1946 c 128,-1,5
 569 1992 569 1992 642 1992 c 0,6,7
 718 1992 718 1992 763 1943 c 128,-1,8
 808 1894 808 1894 808 1829 c 0,9,10
 808 1755 808 1755 758 1711 c 128,-1,11
 708 1667 708 1667 642 1667 c 0,0,1
642 1945 m 0,12,13
 589 1945 589 1945 557.5 1913.5 c 128,-1,14
 526 1882 526 1882 526 1831 c 0,15,16
 526 1776 526 1776 559.5 1744.5 c 128,-1,17
 593 1713 593 1713 642 1713 c 0,18,19
 692 1713 692 1713 727 1744 c 128,-1,20
 762 1775 762 1775 762 1829 c 0,21,22
 762 1878 762 1878 730.5 1911.5 c 128,-1,23
 699 1945 699 1945 642 1945 c 0,12,13
1228 0 m 1,24,-1
 1174 0 l 1,25,-1
 1145 100 l 1,26,-1
 996 497 l 1,27,-1
 292 497 l 1,28,-1
 133 100 l 1,29,-1
 100 0 l 1,30,-1
 44 0 l 1,31,-1
 637 1488 l 1,32,-1
 684 1488 l 1,33,-1
 1228 0 l 1,24,-1
980 544 m 1,34,-1
 663 1408 l 1,35,-1
 653 1408 l 1,36,-1
 310 544 l 1,37,-1
 980 544 l 1,34,-1
EndSplineSet
Position2: "'cpsp' Capital Spacing lookup 0 subtable" dx=16 dy=0 dh=33 dv=0
EndChar

StartChar: AE
Encoding: 198 198 136
Width: 1845
GlyphClass: 2
Flags: W
AnchorPoint: "Anchor-1" 0 0 basechar 0
AnchorPoint: "Anchor-0" 1151 1487 basechar 0
LayerCount: 2
Fore
SplineSet
1789 38 m 1,0,-1
 1780 0 l 1,1,-1
 1069 0 l 1,2,-1
 1058 100 l 1,3,-1
 960 677 l 1,4,-1
 350 577 l 1,5,-1
 78 100 l 1,6,-1
 28 0 l 1,7,-1
 -35 0 l 1,8,-1
 824 1488 l 1,9,-1
 1526 1488 l 1,10,-1
 1534 1477 l 1,11,-1
 1522 1441 l 1,12,-1
 880 1441 l 1,13,-1
 1000 731 l 1,14,-1
 1550 822 l 1,15,-1
 1557 815 l 1,16,-1
 1550 775 l 1,17,-1
 1007 686 l 1,18,-1
 1114 47 l 1,19,-1
 1784 47 l 1,20,-1
 1789 38 l 1,0,-1
953 724 m 1,21,-1
 836 1406 l 1,22,-1
 829 1406 l 1,23,-1
 383 630 l 1,24,-1
 953 724 l 1,21,-1
EndSplineSet
Position2: "'cpsp' Capital Spacing lookup 0 subtable" dx=16 dy=0 dh=33 dv=0
EndChar

StartChar: Ccedilla
Encoding: 199 199 137
Width: 1220
GlyphClass: 2
Flags: W
AnchorPoint: "Anchor-1" 704 0 basechar 0
AnchorPoint: "Anchor-0" 730 1487 basechar 0
LayerCount: 2
Fore
SplineSet
1147 187 m 1,0,-1
 1141 145 l 1,1,2
 1051 75 1051 75 947.5 35.5 c 128,-1,3
 844 -4 844 -4 740 -11 c 1,4,-1
 702 -129 l 1,5,-1
 775 -176 l 2,6,7
 815 -201 815 -201 834 -228 c 128,-1,8
 853 -255 853 -255 853 -292 c 0,9,10
 853 -348 853 -348 812 -382 c 128,-1,11
 771 -416 771 -416 712 -416 c 0,12,13
 665 -416 665 -416 630 -393 c 128,-1,14
 595 -370 595 -370 575 -339 c 1,15,-1
 588 -296 l 1,16,-1
 597 -296 l 1,17,18
 622 -333 622 -333 647 -351 c 128,-1,19
 672 -369 672 -369 712 -369 c 0,20,21
 755 -369 755 -369 780.5 -348.5 c 128,-1,22
 806 -328 806 -328 806 -292 c 0,23,24
 806 -266 806 -266 792.5 -250 c 128,-1,25
 779 -234 779 -234 749 -214 c 2,26,-1
 646 -149 l 1,27,-1
 693 -11 l 1,28,29
 411 -6 411 -6 261.5 187.5 c 128,-1,30
 112 381 112 381 112 740 c 0,31,32
 112 1105 112 1105 272 1301 c 128,-1,33
 432 1497 432 1497 731 1497 c 0,34,35
 842 1497 842 1497 949 1461 c 128,-1,36
 1056 1425 1056 1425 1141 1359 c 1,37,-1
 1125 1319 l 1,38,-1
 1109 1319 l 1,39,40
 1030 1382 1030 1382 933 1416 c 128,-1,41
 836 1450 836 1450 731 1450 c 0,42,43
 453 1450 453 1450 305.5 1265.5 c 128,-1,44
 158 1081 158 1081 158 738 c 0,45,46
 158 398 158 398 299 216.5 c 128,-1,47
 440 35 440 35 702 35 c 0,48,49
 814 35 814 35 925.5 75.5 c 128,-1,50
 1037 116 1037 116 1130 192 c 1,51,-1
 1147 187 l 1,0,-1
EndSplineSet
Position2: "'cpsp' Capital Spacing lookup 0 subtable" dx=16 dy=0 dh=33 dv=0
EndChar

StartChar: Egrave
Encoding: 200 200 138
Width: 1059
GlyphClass: 2
Flags: W
AnchorPoint: "Anchor-1" 623 0 basechar 0
AnchorPoint: "Anchor-0" 621 1487 basechar 0
LayerCount: 2
Fore
SplineSet
822 1702 m 1,0,-1
 811 1695 l 1,1,2
 557 1823 557 1823 404 1912 c 1,3,-1
 399 1924 l 1,4,-1
 416 1952 l 1,5,-1
 428 1956 l 1,6,7
 627 1838 627 1838 838 1737 c 1,8,-1
 822 1702 l 1,0,-1
992 38 m 1,9,-1
 983 0 l 1,10,-1
 256 0 l 1,11,-1
 256 1488 l 1,12,-1
 976 1488 l 1,13,-1
 983 1477 l 1,14,-1
 974 1441 l 1,15,-1
 303 1441 l 1,16,-1
 303 793 l 1,17,-1
 860 793 l 1,18,-1
 866 784 l 1,19,-1
 857 747 l 1,20,-1
 303 747 l 1,21,-1
 303 47 l 1,22,-1
 985 47 l 1,23,-1
 992 38 l 1,9,-1
EndSplineSet
Position2: "'cpsp' Capital Spacing lookup 0 subtable" dx=16 dy=0 dh=33 dv=0
EndChar

StartChar: Eacute
Encoding: 201 201 139
Width: 1059
GlyphClass: 2
Flags: W
AnchorPoint: "Anchor-1" 623 0 basechar 0
AnchorPoint: "Anchor-0" 621 1487 basechar 0
LayerCount: 2
Fore
SplineSet
492 1697 m 1,0,-1
 477 1733 l 1,1,2
 688 1834 688 1834 887 1952 c 1,3,-1
 898 1947 l 1,4,-1
 915 1919 l 1,5,-1
 911 1907 l 1,6,7
 757 1818 757 1818 504 1691 c 1,8,-1
 492 1697 l 1,0,-1
992 38 m 1,9,-1
 983 0 l 1,10,-1
 256 0 l 1,11,-1
 256 1488 l 1,12,-1
 976 1488 l 1,13,-1
 983 1477 l 1,14,-1
 974 1441 l 1,15,-1
 303 1441 l 1,16,-1
 303 793 l 1,17,-1
 860 793 l 1,18,-1
 866 784 l 1,19,-1
 857 747 l 1,20,-1
 303 747 l 1,21,-1
 303 47 l 1,22,-1
 985 47 l 1,23,-1
 992 38 l 1,9,-1
EndSplineSet
Position2: "'cpsp' Capital Spacing lookup 0 subtable" dx=16 dy=0 dh=33 dv=0
EndChar

StartChar: Ecircumflex
Encoding: 202 202 140
Width: 1059
GlyphClass: 2
Flags: W
AnchorPoint: "Anchor-1" 623 0 basechar 0
AnchorPoint: "Anchor-0" 621 1487 basechar 0
LayerCount: 2
Fore
SplineSet
388 1723 m 1,0,-1
 372 1756 l 1,1,2
 471 1825 471 1825 600 1933 c 1,3,-1
 637 1933 l 1,4,5
 817 1794 817 1794 871 1756 c 1,6,-1
 855 1723 l 1,7,-1
 842 1723 l 1,8,9
 752 1785 752 1785 621 1887 c 1,10,11
 500 1792 500 1792 399 1723 c 1,12,-1
 388 1723 l 1,0,-1
992 38 m 1,13,-1
 983 0 l 1,14,-1
 256 0 l 1,15,-1
 256 1488 l 1,16,-1
 976 1488 l 1,17,-1
 983 1477 l 1,18,-1
 974 1441 l 1,19,-1
 303 1441 l 1,20,-1
 303 793 l 1,21,-1
 860 793 l 1,22,-1
 866 784 l 1,23,-1
 857 747 l 1,24,-1
 303 747 l 1,25,-1
 303 47 l 1,26,-1
 985 47 l 1,27,-1
 992 38 l 1,13,-1
EndSplineSet
Position2: "'cpsp' Capital Spacing lookup 0 subtable" dx=16 dy=0 dh=33 dv=0
EndChar

StartChar: Edieresis
Encoding: 203 203 141
Width: 1059
GlyphClass: 2
Flags: W
AnchorPoint: "Anchor-1" 623 0 basechar 0
AnchorPoint: "Anchor-0" 621 1487 basechar 0
LayerCount: 2
Fore
SplineSet
457.5 1774 m 128,-1,1
 436 1774 436 1774 423 1786.5 c 128,-1,2
 410 1799 410 1799 410 1820.5 c 128,-1,3
 410 1842 410 1842 423 1854.5 c 128,-1,4
 436 1867 436 1867 457.5 1867 c 128,-1,5
 479 1867 479 1867 491.5 1854.5 c 128,-1,6
 504 1842 504 1842 504 1820.5 c 128,-1,7
 504 1799 504 1799 491.5 1786.5 c 128,-1,0
 479 1774 479 1774 457.5 1774 c 128,-1,1
784.5 1774 m 128,-1,9
 763 1774 763 1774 750.5 1786.5 c 128,-1,10
 738 1799 738 1799 738 1820.5 c 128,-1,11
 738 1842 738 1842 750.5 1854.5 c 128,-1,12
 763 1867 763 1867 784.5 1867 c 128,-1,13
 806 1867 806 1867 818.5 1854.5 c 128,-1,14
 831 1842 831 1842 831 1820.5 c 128,-1,15
 831 1799 831 1799 818.5 1786.5 c 128,-1,8
 806 1774 806 1774 784.5 1774 c 128,-1,9
992 38 m 1,16,-1
 983 0 l 1,17,-1
 256 0 l 1,18,-1
 256 1488 l 1,19,-1
 976 1488 l 1,20,-1
 983 1477 l 1,21,-1
 974 1441 l 1,22,-1
 303 1441 l 1,23,-1
 303 793 l 1,24,-1
 860 793 l 1,25,-1
 866 784 l 1,26,-1
 857 747 l 1,27,-1
 303 747 l 1,28,-1
 303 47 l 1,29,-1
 985 47 l 1,30,-1
 992 38 l 1,16,-1
EndSplineSet
Position2: "'cpsp' Capital Spacing lookup 0 subtable" dx=16 dy=0 dh=33 dv=0
EndChar

StartChar: Igrave
Encoding: 204 204 142
Width: 559
GlyphClass: 2
Flags: W
AnchorPoint: "Anchor-1" 0 0 basechar 0
AnchorPoint: "Anchor-0" 280 1487 basechar 0
LayerCount: 2
Fore
SplineSet
75 1952 m 1,0,-1
 87 1956 l 1,1,2
 286 1838 286 1838 497 1737 c 1,3,-1
 481 1702 l 1,4,-1
 470 1695 l 1,5,6
 216 1823 216 1823 63 1912 c 1,7,-1
 58 1924 l 1,8,-1
 75 1952 l 1,0,-1
303 0 m 1,9,-1
 256 0 l 1,10,-1
 256 1488 l 1,11,-1
 303 1488 l 1,12,-1
 303 0 l 1,9,-1
EndSplineSet
Position2: "'cpsp' Capital Spacing lookup 0 subtable" dx=16 dy=0 dh=33 dv=0
EndChar

StartChar: Iacute
Encoding: 205 205 143
Width: 559
GlyphClass: 2
Flags: W
AnchorPoint: "Anchor-1" 0 0 basechar 0
AnchorPoint: "Anchor-0" 280 1487 basechar 0
LayerCount: 2
Fore
SplineSet
557 1947 m 1,0,-1
 575 1919 l 1,1,-1
 570 1907 l 1,2,3
 416 1818 416 1818 163 1691 c 1,4,-1
 152 1697 l 1,5,-1
 136 1733 l 1,6,7
 347 1834 347 1834 546 1952 c 1,8,-1
 557 1947 l 1,0,-1
303 0 m 1,9,-1
 256 0 l 1,10,-1
 256 1488 l 1,11,-1
 303 1488 l 1,12,-1
 303 0 l 1,9,-1
EndSplineSet
Position2: "'cpsp' Capital Spacing lookup 0 subtable" dx=16 dy=0 dh=33 dv=0
EndChar

StartChar: Icircumflex
Encoding: 206 206 144
Width: 559
GlyphClass: 2
Flags: W
AnchorPoint: "Anchor-1" 0 0 basechar 0
AnchorPoint: "Anchor-0" 280 1487 basechar 0
LayerCount: 2
Fore
SplineSet
47 1723 m 1,0,-1
 31 1756 l 1,1,2
 130 1825 130 1825 259 1933 c 1,3,-1
 296 1933 l 1,4,5
 476 1794 476 1794 530 1756 c 1,6,-1
 514 1723 l 1,7,-1
 502 1723 l 1,8,9
 411 1785 411 1785 280 1887 c 1,10,11
 159 1792 159 1792 58 1723 c 1,12,-1
 47 1723 l 1,0,-1
303 0 m 1,13,-1
 256 0 l 1,14,-1
 256 1488 l 1,15,-1
 303 1488 l 1,16,-1
 303 0 l 1,13,-1
EndSplineSet
Position2: "'cpsp' Capital Spacing lookup 0 subtable" dx=16 dy=0 dh=33 dv=0
EndChar

StartChar: Idieresis
Encoding: 207 207 145
Width: 559
GlyphClass: 2
Flags: W
AnchorPoint: "Anchor-1" 0 0 basechar 0
AnchorPoint: "Anchor-0" 280 1487 basechar 0
LayerCount: 2
Fore
SplineSet
163 1867 m 128,-1,1
 184 1867 184 1867 197 1854.5 c 128,-1,2
 210 1842 210 1842 210 1820.5 c 128,-1,3
 210 1799 210 1799 197 1786.5 c 128,-1,4
 184 1774 184 1774 163 1774 c 128,-1,5
 142 1774 142 1774 129 1786.5 c 128,-1,6
 116 1799 116 1799 116 1820.5 c 128,-1,7
 116 1842 116 1842 129 1854.5 c 128,-1,0
 142 1867 142 1867 163 1867 c 128,-1,1
396.5 1867 m 128,-1,9
 418 1867 418 1867 430.5 1854.5 c 128,-1,10
 443 1842 443 1842 443 1820.5 c 128,-1,11
 443 1799 443 1799 430.5 1786.5 c 128,-1,12
 418 1774 418 1774 396.5 1774 c 128,-1,13
 375 1774 375 1774 362.5 1786.5 c 128,-1,14
 350 1799 350 1799 350 1820.5 c 128,-1,15
 350 1842 350 1842 362.5 1854.5 c 128,-1,8
 375 1867 375 1867 396.5 1867 c 128,-1,9
303 0 m 1,16,-1
 256 0 l 1,17,-1
 256 1488 l 1,18,-1
 303 1488 l 1,19,-1
 303 0 l 1,16,-1
EndSplineSet
Ligature2: "'liga' Standard Ligatures lookup 30 subtable" dieresis I
Position2: "'cpsp' Capital Spacing lookup 0 subtable" dx=16 dy=0 dh=33 dv=0
EndChar

StartChar: Eth
Encoding: 208 208 146
Width: 1526
GlyphClass: 2
Flags: W
AnchorPoint: "Anchor-1" 0 0 basechar 0
AnchorPoint: "Anchor-0" 759 1487 basechar 0
LayerCount: 2
Fore
SplineSet
296 1488 m 1,0,-1
 766 1499 l 1,1,2
 1080 1499 1080 1499 1247.5 1316 c 128,-1,3
 1415 1133 1415 1133 1415 791 c 0,4,5
 1415 404 1415 404 1240.5 196.5 c 128,-1,6
 1066 -11 1066 -11 742 -11 c 0,7,8
 696 -11 696 -11 533 -7 c 128,-1,9
 370 -3 370 -3 296 0 c 1,10,-1
 296 744 l 1,11,-1
 23 744 l 1,12,-1
 18 751 l 1,13,-1
 21 791 l 1,14,-1
 296 791 l 1,15,-1
 296 1488 l 1,0,-1
742 35 m 0,16,17
 1043 35 1043 35 1205.5 231 c 128,-1,18
 1368 427 1368 427 1368 791 c 0,19,20
 1368 1110 1368 1110 1212.5 1281 c 128,-1,21
 1057 1452 1057 1452 766 1452 c 0,22,23
 726 1452 726 1452 568 1448 c 128,-1,24
 410 1444 410 1444 343 1441 c 1,25,-1
 343 791 l 1,26,-1
 744 791 l 1,27,-1
 749 784 l 1,28,-1
 747 744 l 1,29,-1
 343 744 l 1,30,-1
 343 47 l 1,31,32
 594 35 594 35 742 35 c 0,16,17
EndSplineSet
Position2: "'cpsp' Capital Spacing lookup 0 subtable" dx=16 dy=0 dh=33 dv=0
EndChar

StartChar: Ntilde
Encoding: 209 209 147
Width: 1564
GlyphClass: 2
Flags: W
AnchorPoint: "Anchor-1" 770 0 basechar 0
AnchorPoint: "Anchor-0" 772 1487 basechar 0
LayerCount: 2
Fore
SplineSet
1098 1880 m 1,0,-1
 1098 1870 l 1,1,-1
 976 1760 l 1,2,-1
 962 1756 l 1,3,4
 919 1760 919 1760 773 1802.5 c 128,-1,5
 627 1845 627 1845 597 1845 c 0,6,7
 588 1845 588 1845 575.5 1837 c 128,-1,8
 563 1829 563 1829 552.5 1818.5 c 128,-1,9
 542 1808 542 1808 519.5 1786.5 c 128,-1,10
 497 1765 497 1765 479 1749 c 1,11,-1
 470 1749 l 1,12,-1
 448 1774 l 1,13,-1
 448 1784 l 1,14,-1
 570 1894 l 1,15,-1
 584 1898 l 1,16,17
 626 1894 626 1894 772 1851.5 c 128,-1,18
 918 1809 918 1809 947 1809 c 0,19,20
 955 1809 955 1809 963.5 1813.5 c 128,-1,21
 972 1818 972 1818 983 1827.5 c 128,-1,22
 994 1837 994 1837 1004.5 1847 c 128,-1,23
 1015 1857 1015 1857 1033.5 1874 c 128,-1,24
 1052 1891 1052 1891 1067 1905 c 1,25,-1
 1076 1905 l 1,26,-1
 1098 1880 l 1,0,-1
1305 410 m 1,27,-1
 1303 0 l 1,28,-1
 1259 0 l 1,29,-1
 315 1390 l 1,30,-1
 306 1390 l 1,31,-1
 303 465 l 1,32,-1
 303 0 l 1,33,-1
 256 0 l 1,34,-1
 256 443 l 1,35,-1
 259 1488 l 1,36,-1
 303 1488 l 1,37,-1
 1247 98 l 1,38,-1
 1256 98 l 1,39,-1
 1261 1485 l 1,40,-1
 1308 1490 l 1,41,-1
 1305 410 l 1,27,-1
EndSplineSet
Position2: "'cpsp' Capital Spacing lookup 0 subtable" dx=16 dy=0 dh=33 dv=0
EndChar

StartChar: Ograve
Encoding: 210 210 148
Width: 1463
GlyphClass: 2
Flags: W
AnchorPoint: "Anchor-1" 0 0 basechar 0
AnchorPoint: "Anchor-0" 733 1487 basechar 0
LayerCount: 2
Fore
SplineSet
528 1952 m 1,0,-1
 539 1956 l 1,1,2
 734 1841 734 1841 951 1737 c 1,3,-1
 934 1702 l 1,4,-1
 922 1695 l 1,5,6
 678 1818 678 1818 516 1912 c 1,7,-1
 512 1924 l 1,8,-1
 528 1952 l 1,0,-1
742 1499 m 0,9,10
 1036 1499 1036 1499 1194 1310 c 128,-1,11
 1352 1121 1352 1121 1352 768 c 0,12,13
 1352 392 1352 392 1188 190.5 c 128,-1,14
 1024 -11 1024 -11 719 -11 c 0,15,16
 427 -11 427 -11 269.5 183.5 c 128,-1,17
 112 378 112 378 112 740 c 0,18,19
 112 1106 112 1106 275 1302.5 c 128,-1,20
 438 1499 438 1499 742 1499 c 0,9,10
742 1452 m 0,21,22
 460 1452 460 1452 309 1267.5 c 128,-1,23
 158 1083 158 1083 158 740 c 0,24,25
 158 401 158 401 304 218 c 128,-1,26
 450 35 450 35 719 35 c 0,27,28
 1002 35 1002 35 1153.5 225 c 128,-1,29
 1305 415 1305 415 1305 768 c 0,30,31
 1305 1098 1305 1098 1159 1275 c 128,-1,32
 1013 1452 1013 1452 742 1452 c 0,21,22
EndSplineSet
Position2: "'cpsp' Capital Spacing lookup 0 subtable" dx=16 dy=0 dh=33 dv=0
EndChar

StartChar: Oacute
Encoding: 211 211 149
Width: 1463
GlyphClass: 2
Flags: W
AnchorPoint: "Anchor-1" 0 0 basechar 0
AnchorPoint: "Anchor-0" 733 1487 basechar 0
LayerCount: 2
Fore
SplineSet
1011 1947 m 1,0,-1
 1027 1919 l 1,1,-1
 1023 1907 l 1,2,3
 861 1814 861 1814 617 1691 c 1,4,-1
 604 1697 l 1,5,-1
 588 1733 l 1,6,7
 805 1836 805 1836 1000 1952 c 1,8,-1
 1011 1947 l 1,0,-1
742 1499 m 0,9,10
 1036 1499 1036 1499 1194 1310 c 128,-1,11
 1352 1121 1352 1121 1352 768 c 0,12,13
 1352 392 1352 392 1188 190.5 c 128,-1,14
 1024 -11 1024 -11 719 -11 c 0,15,16
 427 -11 427 -11 269.5 183.5 c 128,-1,17
 112 378 112 378 112 740 c 0,18,19
 112 1106 112 1106 275 1302.5 c 128,-1,20
 438 1499 438 1499 742 1499 c 0,9,10
742 1452 m 0,21,22
 460 1452 460 1452 309 1267.5 c 128,-1,23
 158 1083 158 1083 158 740 c 0,24,25
 158 401 158 401 304 218 c 128,-1,26
 450 35 450 35 719 35 c 0,27,28
 1002 35 1002 35 1153.5 225 c 128,-1,29
 1305 415 1305 415 1305 768 c 0,30,31
 1305 1098 1305 1098 1159 1275 c 128,-1,32
 1013 1452 1013 1452 742 1452 c 0,21,22
EndSplineSet
Position2: "'cpsp' Capital Spacing lookup 0 subtable" dx=16 dy=0 dh=33 dv=0
EndChar

StartChar: Ocircumflex
Encoding: 212 212 150
Width: 1463
GlyphClass: 2
Flags: W
AnchorPoint: "Anchor-1" 0 0 basechar 0
AnchorPoint: "Anchor-0" 733 1487 basechar 0
LayerCount: 2
Fore
SplineSet
499 1723 m 1,0,-1
 483 1756 l 1,1,2
 589 1830 589 1830 712 1933 c 1,3,-1
 749 1933 l 1,4,5
 928 1794 928 1794 983 1756 c 1,6,-1
 967 1723 l 1,7,-1
 955 1723 l 1,8,9
 854 1792 854 1792 733 1887 c 1,10,11
 603 1785 603 1785 512 1723 c 1,12,-1
 499 1723 l 1,0,-1
742 1499 m 0,13,14
 1036 1499 1036 1499 1194 1310 c 128,-1,15
 1352 1121 1352 1121 1352 768 c 0,16,17
 1352 392 1352 392 1188 190.5 c 128,-1,18
 1024 -11 1024 -11 719 -11 c 0,19,20
 427 -11 427 -11 269.5 183.5 c 128,-1,21
 112 378 112 378 112 740 c 0,22,23
 112 1106 112 1106 275 1302.5 c 128,-1,24
 438 1499 438 1499 742 1499 c 0,13,14
742 1452 m 0,25,26
 460 1452 460 1452 309 1267.5 c 128,-1,27
 158 1083 158 1083 158 740 c 0,28,29
 158 401 158 401 304 218 c 128,-1,30
 450 35 450 35 719 35 c 0,31,32
 1002 35 1002 35 1153.5 225 c 128,-1,33
 1305 415 1305 415 1305 768 c 0,34,35
 1305 1098 1305 1098 1159 1275 c 128,-1,36
 1013 1452 1013 1452 742 1452 c 0,25,26
EndSplineSet
Position2: "'cpsp' Capital Spacing lookup 0 subtable" dx=16 dy=0 dh=33 dv=0
EndChar

StartChar: Otilde
Encoding: 213 213 151
Width: 1463
GlyphClass: 2
Flags: W
AnchorPoint: "Anchor-1" 0 0 basechar 0
AnchorPoint: "Anchor-0" 733 1487 basechar 0
LayerCount: 2
Fore
SplineSet
1058 1880 m 1,0,-1
 1058 1870 l 1,1,-1
 936 1760 l 1,2,-1
 922 1756 l 1,3,4
 880 1760 880 1760 733.5 1802.5 c 128,-1,5
 587 1845 587 1845 557 1845 c 0,6,7
 548 1845 548 1845 536 1837 c 128,-1,8
 524 1829 524 1829 513 1818.5 c 128,-1,9
 502 1808 502 1808 479.5 1786.5 c 128,-1,10
 457 1765 457 1765 439 1749 c 1,11,-1
 430 1749 l 1,12,-1
 408 1774 l 1,13,-1
 408 1784 l 1,14,-1
 530 1894 l 1,15,-1
 544 1898 l 1,16,17
 586 1894 586 1894 732.5 1851.5 c 128,-1,18
 879 1809 879 1809 909 1809 c 0,19,20
 918 1809 918 1809 930 1817 c 128,-1,21
 942 1825 942 1825 953 1835.5 c 128,-1,22
 964 1846 964 1846 986.5 1867.5 c 128,-1,23
 1009 1889 1009 1889 1027 1905 c 1,24,-1
 1036 1905 l 1,25,-1
 1058 1880 l 1,0,-1
742 1499 m 0,26,27
 1036 1499 1036 1499 1194 1310 c 128,-1,28
 1352 1121 1352 1121 1352 768 c 0,29,30
 1352 392 1352 392 1188 190.5 c 128,-1,31
 1024 -11 1024 -11 719 -11 c 0,32,33
 427 -11 427 -11 269.5 183.5 c 128,-1,34
 112 378 112 378 112 740 c 0,35,36
 112 1106 112 1106 275 1302.5 c 128,-1,37
 438 1499 438 1499 742 1499 c 0,26,27
742 1452 m 0,38,39
 460 1452 460 1452 309 1267.5 c 128,-1,40
 158 1083 158 1083 158 740 c 0,41,42
 158 401 158 401 304 218 c 128,-1,43
 450 35 450 35 719 35 c 0,44,45
 1002 35 1002 35 1153.5 225 c 128,-1,46
 1305 415 1305 415 1305 768 c 0,47,48
 1305 1098 1305 1098 1159 1275 c 128,-1,49
 1013 1452 1013 1452 742 1452 c 0,38,39
EndSplineSet
Position2: "'cpsp' Capital Spacing lookup 0 subtable" dx=16 dy=0 dh=33 dv=0
EndChar

StartChar: Odieresis
Encoding: 214 214 152
Width: 1463
GlyphClass: 2
Flags: W
AnchorPoint: "Anchor-1" 0 0 basechar 0
AnchorPoint: "Anchor-0" 733 1487 basechar 0
LayerCount: 2
Fore
SplineSet
570 1867 m 128,-1,1
 591 1867 591 1867 604 1854.5 c 128,-1,2
 617 1842 617 1842 617 1820.5 c 128,-1,3
 617 1799 617 1799 604 1786.5 c 128,-1,4
 591 1774 591 1774 570 1774 c 128,-1,5
 549 1774 549 1774 536 1786.5 c 128,-1,6
 523 1799 523 1799 523 1820.5 c 128,-1,7
 523 1842 523 1842 536 1854.5 c 128,-1,0
 549 1867 549 1867 570 1867 c 128,-1,1
896 1867 m 128,-1,9
 917 1867 917 1867 930 1854.5 c 128,-1,10
 943 1842 943 1842 943 1820.5 c 128,-1,11
 943 1799 943 1799 930 1786.5 c 128,-1,12
 917 1774 917 1774 896 1774 c 128,-1,13
 875 1774 875 1774 862 1786.5 c 128,-1,14
 849 1799 849 1799 849 1820.5 c 128,-1,15
 849 1842 849 1842 862 1854.5 c 128,-1,8
 875 1867 875 1867 896 1867 c 128,-1,9
742 1499 m 0,16,17
 1036 1499 1036 1499 1194 1310 c 128,-1,18
 1352 1121 1352 1121 1352 768 c 0,19,20
 1352 392 1352 392 1188 190.5 c 128,-1,21
 1024 -11 1024 -11 719 -11 c 0,22,23
 427 -11 427 -11 269.5 183.5 c 128,-1,24
 112 378 112 378 112 740 c 0,25,26
 112 1106 112 1106 275 1302.5 c 128,-1,27
 438 1499 438 1499 742 1499 c 0,16,17
742 1452 m 0,28,29
 460 1452 460 1452 309 1267.5 c 128,-1,30
 158 1083 158 1083 158 740 c 0,31,32
 158 401 158 401 304 218 c 128,-1,33
 450 35 450 35 719 35 c 0,34,35
 1002 35 1002 35 1153.5 225 c 128,-1,36
 1305 415 1305 415 1305 768 c 0,37,38
 1305 1098 1305 1098 1159 1275 c 128,-1,39
 1013 1452 1013 1452 742 1452 c 0,28,29
EndSplineSet
Ligature2: "'liga' Standard Ligatures lookup 30 subtable" dieresis O
Position2: "'cpsp' Capital Spacing lookup 0 subtable" dx=16 dy=0 dh=33 dv=0
EndChar

StartChar: multiply
Encoding: 215 215 153
Width: 1120
GlyphClass: 2
Flags: W
LayerCount: 2
Fore
SplineSet
904 951 m 1,0,-1
 904 940 l 1,1,-1
 593 630 l 1,2,-1
 904 320 l 1,3,-1
 904 310 l 1,4,-1
 873 285 l 1,5,-1
 561 597 l 1,6,-1
 247 285 l 1,7,-1
 217 310 l 1,8,-1
 217 320 l 1,9,-1
 528 630 l 1,10,-1
 217 940 l 1,11,-1
 217 951 l 1,12,-1
 247 976 l 1,13,-1
 561 663 l 1,14,-1
 873 976 l 1,15,-1
 904 951 l 1,0,-1
EndSplineSet
EndChar

StartChar: Oslash
Encoding: 216 216 154
Width: 1463
GlyphClass: 2
Flags: W
AnchorPoint: "Anchor-1" 0 0 basechar 0
AnchorPoint: "Anchor-0" 728 1487 basechar 0
LayerCount: 2
Fore
SplineSet
1156 1637 m 1,0,-1
 1058 1424 l 1,1,2
 1202 1341 1202 1341 1277 1175 c 128,-1,3
 1352 1009 1352 1009 1352 768 c 0,4,5
 1352 392 1352 392 1188 190.5 c 128,-1,6
 1024 -11 1024 -11 719 -11 c 0,7,8
 552 -11 552 -11 425 54 c 1,9,-1
 306 -203 l 1,10,-1
 269 -196 l 1,11,-1
 263 -187 l 1,12,-1
 385 78 l 1,13,14
 251 165 251 165 181.5 333 c 128,-1,15
 112 501 112 501 112 740 c 0,16,17
 112 1106 112 1106 275 1302.5 c 128,-1,18
 438 1499 438 1499 742 1499 c 0,19,20
 898 1499 898 1499 1016 1446 c 1,21,-1
 1114 1655 l 1,22,-1
 1151 1648 l 1,23,-1
 1156 1637 l 1,0,-1
158 740 m 0,24,25
 158 518 158 518 221.5 360.5 c 128,-1,26
 285 203 285 203 406 121 c 1,27,-1
 996 1401 l 1,28,29
 892 1452 892 1452 742 1452 c 0,30,31
 460 1452 460 1452 309 1267.5 c 128,-1,32
 158 1083 158 1083 158 740 c 0,24,25
719 35 m 0,33,34
 1002 35 1002 35 1153.5 225 c 128,-1,35
 1305 415 1305 415 1305 768 c 0,36,37
 1305 992 1305 992 1236.5 1147 c 128,-1,38
 1168 1302 1168 1302 1036 1379 c 1,39,-1
 446 98 l 1,40,41
 561 35 561 35 719 35 c 0,33,34
EndSplineSet
Position2: "'cpsp' Capital Spacing lookup 0 subtable" dx=16 dy=0 dh=33 dv=0
EndChar

StartChar: Ugrave
Encoding: 217 217 155
Width: 1428
GlyphClass: 2
Flags: W
AnchorPoint: "Anchor-1" 0 0 basechar 0
AnchorPoint: "Anchor-0" 723 1487 basechar 0
LayerCount: 2
Fore
SplineSet
519 1952 m 1,0,-1
 530 1956 l 1,1,2
 729 1838 729 1838 940 1737 c 1,3,-1
 925 1702 l 1,4,-1
 913 1695 l 1,5,6
 660 1823 660 1823 506 1912 c 1,7,-1
 502 1924 l 1,8,-1
 519 1952 l 1,0,-1
1228 1488 m 1,9,-1
 1228 535 l 1,10,11
 1235 278 1235 278 1099.5 134.5 c 128,-1,12
 964 -9 964 -9 715 -9 c 0,13,14
 465 -9 465 -9 333 131.5 c 128,-1,15
 201 272 201 272 201 535 c 2,16,-1
 201 1488 l 1,17,-1
 247 1488 l 1,18,-1
 247 535 l 1,19,20
 246 294 246 294 366.5 166 c 128,-1,21
 487 38 487 38 715 38 c 0,22,23
 940 38 940 38 1060.5 166 c 128,-1,24
 1181 294 1181 294 1181 535 c 2,25,-1
 1181 1488 l 1,26,-1
 1228 1488 l 1,9,-1
EndSplineSet
Position2: "'cpsp' Capital Spacing lookup 0 subtable" dx=16 dy=0 dh=33 dv=0
EndChar

StartChar: Uacute
Encoding: 218 218 156
Width: 1428
GlyphClass: 2
Flags: W
AnchorPoint: "Anchor-1" 0 0 basechar 0
AnchorPoint: "Anchor-0" 723 1487 basechar 0
LayerCount: 2
Fore
SplineSet
1002 1947 m 1,0,-1
 1018 1919 l 1,1,-1
 1013 1907 l 1,2,3
 860 1818 860 1818 606 1691 c 1,4,-1
 595 1697 l 1,5,-1
 579 1733 l 1,6,7
 790 1834 790 1834 990 1952 c 1,8,-1
 1002 1947 l 1,0,-1
1228 1488 m 1,9,-1
 1228 535 l 1,10,11
 1235 278 1235 278 1099.5 134.5 c 128,-1,12
 964 -9 964 -9 715 -9 c 0,13,14
 465 -9 465 -9 333 131.5 c 128,-1,15
 201 272 201 272 201 535 c 2,16,-1
 201 1488 l 1,17,-1
 247 1488 l 1,18,-1
 247 535 l 1,19,20
 246 294 246 294 366.5 166 c 128,-1,21
 487 38 487 38 715 38 c 0,22,23
 940 38 940 38 1060.5 166 c 128,-1,24
 1181 294 1181 294 1181 535 c 2,25,-1
 1181 1488 l 1,26,-1
 1228 1488 l 1,9,-1
EndSplineSet
Position2: "'cpsp' Capital Spacing lookup 0 subtable" dx=16 dy=0 dh=33 dv=0
EndChar

StartChar: Ucircumflex
Encoding: 219 219 157
Width: 1428
GlyphClass: 2
Flags: W
AnchorPoint: "Anchor-1" 0 0 basechar 0
AnchorPoint: "Anchor-0" 723 1487 basechar 0
LayerCount: 2
Fore
SplineSet
490 1723 m 1,0,-1
 474 1756 l 1,1,2
 573 1825 573 1825 702 1933 c 1,3,-1
 740 1933 l 1,4,5
 919 1794 919 1794 974 1756 c 1,6,-1
 958 1723 l 1,7,-1
 945 1723 l 1,8,9
 854 1785 854 1785 724 1887 c 1,10,11
 603 1792 603 1792 502 1723 c 1,12,-1
 490 1723 l 1,0,-1
1228 1488 m 1,13,-1
 1228 535 l 1,14,15
 1235 278 1235 278 1099.5 134.5 c 128,-1,16
 964 -9 964 -9 715 -9 c 0,17,18
 465 -9 465 -9 333 131.5 c 128,-1,19
 201 272 201 272 201 535 c 2,20,-1
 201 1488 l 1,21,-1
 247 1488 l 1,22,-1
 247 535 l 1,23,24
 246 294 246 294 366.5 166 c 128,-1,25
 487 38 487 38 715 38 c 0,26,27
 940 38 940 38 1060.5 166 c 128,-1,28
 1181 294 1181 294 1181 535 c 2,29,-1
 1181 1488 l 1,30,-1
 1228 1488 l 1,13,-1
EndSplineSet
Position2: "'cpsp' Capital Spacing lookup 0 subtable" dx=16 dy=0 dh=33 dv=0
EndChar

StartChar: Udieresis
Encoding: 220 220 158
Width: 1428
GlyphClass: 2
Flags: W
AnchorPoint: "Anchor-1" 0 0 basechar 0
AnchorPoint: "Anchor-0" 723 1487 basechar 0
LayerCount: 2
Fore
SplineSet
561 1867 m 128,-1,1
 582 1867 582 1867 594 1854.5 c 128,-1,2
 606 1842 606 1842 606 1820.5 c 128,-1,3
 606 1799 606 1799 594 1786.5 c 128,-1,4
 582 1774 582 1774 561 1774 c 128,-1,5
 540 1774 540 1774 527 1786.5 c 128,-1,6
 514 1799 514 1799 514 1820.5 c 128,-1,7
 514 1842 514 1842 527 1854.5 c 128,-1,0
 540 1867 540 1867 561 1867 c 128,-1,1
887 1867 m 128,-1,9
 908 1867 908 1867 921 1854.5 c 128,-1,10
 934 1842 934 1842 934 1820.5 c 128,-1,11
 934 1799 934 1799 921 1786.5 c 128,-1,12
 908 1774 908 1774 887 1774 c 128,-1,13
 866 1774 866 1774 853 1786.5 c 128,-1,14
 840 1799 840 1799 840 1820.5 c 128,-1,15
 840 1842 840 1842 853 1854.5 c 128,-1,8
 866 1867 866 1867 887 1867 c 128,-1,9
1228 1488 m 1,16,-1
 1228 535 l 1,17,18
 1235 278 1235 278 1099.5 134.5 c 128,-1,19
 964 -9 964 -9 715 -9 c 0,20,21
 465 -9 465 -9 333 131.5 c 128,-1,22
 201 272 201 272 201 535 c 2,23,-1
 201 1488 l 1,24,-1
 247 1488 l 1,25,-1
 247 535 l 1,26,27
 246 294 246 294 366.5 166 c 128,-1,28
 487 38 487 38 715 38 c 0,29,30
 940 38 940 38 1060.5 166 c 128,-1,31
 1181 294 1181 294 1181 535 c 2,32,-1
 1181 1488 l 1,33,-1
 1228 1488 l 1,16,-1
EndSplineSet
Position2: "'cpsp' Capital Spacing lookup 0 subtable" dx=16 dy=0 dh=33 dv=0
EndChar

StartChar: Yacute
Encoding: 221 221 159
Width: 1154
GlyphClass: 2
Flags: W
AnchorPoint: "Anchor-1" 0 0 basechar 0
AnchorPoint: "Anchor-0" 557 1487 basechar 0
LayerCount: 2
Fore
SplineSet
430 1697 m 1,0,-1
 413 1733 l 1,1,2
 630 1836 630 1836 824 1952 c 1,3,-1
 836 1947 l 1,4,-1
 853 1919 l 1,5,-1
 847 1907 l 1,6,7
 686 1814 686 1814 441 1691 c 1,8,-1
 430 1697 l 1,0,-1
579 572 m 1,9,-1
 579 0 l 1,10,-1
 532 0 l 1,11,-1
 532 575 l 1,12,-1
 60 1488 l 1,13,-1
 121 1488 l 1,14,-1
 147 1426 l 1,15,-1
 551 646 l 1,16,-1
 563 646 l 1,17,-1
 1002 1426 l 1,18,-1
 1027 1488 l 1,19,-1
 1088 1488 l 1,20,-1
 579 572 l 1,9,-1
EndSplineSet
Ligature2: "'liga' Standard Ligatures lookup 30 subtable" acute Y
Position2: "'cpsp' Capital Spacing lookup 0 subtable" dx=16 dy=0 dh=33 dv=0
EndChar

StartChar: Thorn
Encoding: 222 222 160
Width: 1136
GlyphClass: 2
Flags: W
LayerCount: 2
Fore
SplineSet
303 1200 m 1,0,-1
 586 1205 l 1,1,2
 790 1205 790 1205 899.5 1096.5 c 128,-1,3
 1009 988 1009 988 1009 787 c 0,4,5
 1009 548 1009 548 880.5 421 c 128,-1,6
 752 294 752 294 512 294 c 2,7,-1
 303 294 l 1,8,-1
 303 0 l 1,9,-1
 256 0 l 1,10,-1
 256 1488 l 1,11,-1
 303 1488 l 1,12,-1
 303 1200 l 1,0,-1
303 341 m 1,13,-1
 581 341 l 1,14,15
 765 364 765 364 863.5 479 c 128,-1,16
 962 594 962 594 962 787 c 0,17,18
 962 959 962 959 868.5 1055 c 128,-1,19
 775 1151 775 1151 602 1158 c 1,20,-1
 303 1156 l 1,21,-1
 303 341 l 1,13,-1
EndSplineSet
Position2: "'cpsp' Capital Spacing lookup 0 subtable" dx=16 dy=0 dh=33 dv=0
EndChar

StartChar: germandbls
Encoding: 223 223 161
Width: 1206
GlyphClass: 2
Flags: W
LayerCount: 2
Fore
SplineSet
666 853 m 0,0,1
 666 812 666 812 679.5 776 c 128,-1,2
 693 740 693 740 717 713 c 128,-1,3
 741 686 741 686 772.5 660 c 128,-1,4
 804 634 804 634 840 613.5 c 128,-1,5
 876 593 876 593 913.5 570.5 c 128,-1,6
 951 548 951 548 986.5 527 c 128,-1,7
 1022 506 1022 506 1053.5 479 c 128,-1,8
 1085 452 1085 452 1109 423.5 c 128,-1,9
 1133 395 1133 395 1147 357 c 128,-1,10
 1161 319 1161 319 1161 276 c 0,11,12
 1161 156 1161 156 1067.5 72.5 c 128,-1,13
 974 -11 974 -11 829 -11 c 0,14,15
 757 -11 757 -11 685.5 10 c 128,-1,16
 614 31 614 31 561 70 c 1,17,-1
 568 109 l 1,18,-1
 579 116 l 1,19,20
 688 35 688 35 826 35 c 0,21,22
 893 35 893 35 948 55.5 c 128,-1,23
 1003 76 1003 76 1039 109 c 128,-1,24
 1075 142 1075 142 1094.5 184 c 128,-1,25
 1114 226 1114 226 1114 271 c 0,26,27
 1114 309 1114 309 1100 343 c 128,-1,28
 1086 377 1086 377 1062.5 402.5 c 128,-1,29
 1039 428 1039 428 1007 453 c 128,-1,30
 975 478 975 478 939.5 498 c 128,-1,31
 904 518 904 518 866.5 541 c 128,-1,32
 829 564 829 564 793.5 585.5 c 128,-1,33
 758 607 758 607 726 635.5 c 128,-1,34
 694 664 694 664 670.5 694 c 128,-1,35
 647 724 647 724 633 764 c 128,-1,36
 619 804 619 804 619 849 c 0,37,38
 619 900 619 900 636 943.5 c 128,-1,39
 653 987 653 987 680 1019.5 c 128,-1,40
 707 1052 707 1052 739.5 1082 c 128,-1,41
 772 1112 772 1112 804.5 1142 c 128,-1,42
 837 1172 837 1172 864 1204 c 128,-1,43
 891 1236 891 1236 908 1279 c 128,-1,44
 925 1322 925 1322 925 1373 c 0,45,46
 925 1480 925 1480 854 1538.5 c 128,-1,47
 783 1597 783 1597 659 1597 c 0,48,49
 498 1597 498 1597 409 1497 c 128,-1,50
 320 1397 320 1397 320 1214 c 2,51,-1
 320 0 l 1,52,-1
 274 0 l 1,53,-1
 274 1009 l 1,54,-1
 116 1009 l 1,55,-1
 107 1018 l 1,56,-1
 114 1056 l 1,57,-1
 274 1056 l 1,58,-1
 274 1214 l 2,59,60
 274 1420 274 1420 373 1532 c 128,-1,61
 472 1644 472 1644 653 1644 c 0,62,63
 800 1644 800 1644 885.5 1573 c 128,-1,64
 971 1502 971 1502 971 1377 c 0,65,66
 971 1321 971 1321 954.5 1272.5 c 128,-1,67
 938 1224 938 1224 911 1189.5 c 128,-1,68
 884 1155 884 1155 851.5 1124 c 128,-1,69
 819 1093 819 1093 786 1064.5 c 128,-1,70
 753 1036 753 1036 726 1006 c 128,-1,71
 699 976 699 976 682.5 937 c 128,-1,72
 666 898 666 898 666 853 c 0,0,1
EndSplineSet
Substitution2: "Single Substitution lookup 41 subtable" germandbls.calt
Substitution2: "'case' Case-Sensitive Forms lookup 28 subtable" Germandbls
Substitution2: "'aalt' Access All Alternates lookup 0 subtable" Germandbls
EndChar

StartChar: agrave
Encoding: 224 224 162
Width: 1031
GlyphClass: 2
Flags: W
AnchorPoint: "Anchor-1" 0 0 basechar 0
AnchorPoint: "Anchor-0" 492 1055 basechar 0
LayerCount: 2
Fore
SplineSet
329 1560 m 1,0,-1
 341 1562 l 1,1,2
 515 1384 515 1384 682 1243 c 1,3,-1
 656 1212 l 1,4,-1
 644 1210 l 1,5,6
 460 1372 460 1372 308 1524 c 1,7,-1
 306 1537 l 1,8,-1
 329 1560 l 1,0,-1
502 1067 m 0,9,10
 635 1067 635 1067 706 998.5 c 128,-1,11
 777 930 777 930 777 804 c 0,12,13
 777 775 777 775 766 488 c 128,-1,14
 755 201 755 201 755 171 c 0,15,16
 755 103 755 103 774.5 71.5 c 128,-1,17
 794 40 794 40 838 40 c 0,18,19
 892 40 892 40 936 75 c 1,20,-1
 951 67 l 1,21,-1
 940 26 l 1,22,23
 891 -7 891 -7 836 -7 c 0,24,25
 771 -7 771 -7 740.5 34.5 c 128,-1,26
 710 76 710 76 708 171 c 1,27,-1
 700 171 l 1,28,29
 630 89 630 89 550 40.5 c 128,-1,30
 470 -8 470 -8 394 -11 c 1,31,32
 269 -11 269 -11 200 57.5 c 128,-1,33
 131 126 131 126 131 250 c 0,34,35
 131 334 131 334 182 392 c 128,-1,36
 233 450 233 450 323 472 c 1,37,-1
 724 565 l 1,38,-1
 731 793 l 1,39,40
 731 902 731 902 671 961 c 128,-1,41
 611 1020 611 1020 499 1020 c 0,42,43
 429 1020 429 1020 346.5 981 c 128,-1,44
 264 942 264 942 180 869 c 1,45,-1
 165 873 l 1,46,-1
 154 909 l 1,47,48
 241 985 241 985 331 1026 c 128,-1,49
 421 1067 421 1067 502 1067 c 0,9,10
722 516 m 1,50,-1
 334 425 l 2,51,52
 259 408 259 408 218.5 363 c 128,-1,53
 178 318 178 318 178 250 c 0,54,55
 178 148 178 148 234 91.5 c 128,-1,56
 290 35 290 35 392 35 c 0,57,58
 469 35 469 35 553 91 c 128,-1,59
 637 147 637 147 710 247 c 1,60,-1
 722 516 l 1,50,-1
EndSplineSet
Substitution2: "'case' Case-Sensitive Forms lookup 28 subtable" Agrave
Substitution2: "'aalt' Access All Alternates lookup 0 subtable" Agrave
EndChar

StartChar: aacute
Encoding: 225 225 163
Width: 1031
GlyphClass: 2
Flags: W
AnchorPoint: "Anchor-1" 0 0 basechar 0
AnchorPoint: "Anchor-0" 492 1055 basechar 0
LayerCount: 2
Fore
SplineSet
731 1560 m 1,0,-1
 755 1537 l 1,1,-1
 751 1524 l 1,2,3
 591 1363 591 1363 416 1210 c 1,4,-1
 404 1212 l 1,5,-1
 378 1243 l 1,6,7
 545 1384 545 1384 719 1562 c 1,8,-1
 731 1560 l 1,0,-1
502 1067 m 0,9,10
 635 1067 635 1067 706 998.5 c 128,-1,11
 777 930 777 930 777 804 c 0,12,13
 777 775 777 775 766 488 c 128,-1,14
 755 201 755 201 755 171 c 0,15,16
 755 103 755 103 774.5 71.5 c 128,-1,17
 794 40 794 40 838 40 c 0,18,19
 892 40 892 40 936 75 c 1,20,-1
 951 67 l 1,21,-1
 940 26 l 1,22,23
 891 -7 891 -7 836 -7 c 0,24,25
 771 -7 771 -7 740.5 34.5 c 128,-1,26
 710 76 710 76 708 171 c 1,27,-1
 700 171 l 1,28,29
 630 89 630 89 550 40.5 c 128,-1,30
 470 -8 470 -8 394 -11 c 1,31,32
 269 -11 269 -11 200 57.5 c 128,-1,33
 131 126 131 126 131 250 c 0,34,35
 131 334 131 334 182 392 c 128,-1,36
 233 450 233 450 323 472 c 1,37,-1
 724 565 l 1,38,-1
 731 793 l 1,39,40
 731 902 731 902 671 961 c 128,-1,41
 611 1020 611 1020 499 1020 c 0,42,43
 429 1020 429 1020 346.5 981 c 128,-1,44
 264 942 264 942 180 869 c 1,45,-1
 165 873 l 1,46,-1
 154 909 l 1,47,48
 241 985 241 985 331 1026 c 128,-1,49
 421 1067 421 1067 502 1067 c 0,9,10
722 516 m 1,50,-1
 334 425 l 2,51,52
 259 408 259 408 218.5 363 c 128,-1,53
 178 318 178 318 178 250 c 0,54,55
 178 148 178 148 234 91.5 c 128,-1,56
 290 35 290 35 392 35 c 0,57,58
 469 35 469 35 553 91 c 128,-1,59
 637 147 637 147 710 247 c 1,60,-1
 722 516 l 1,50,-1
EndSplineSet
Substitution2: "'case' Case-Sensitive Forms lookup 28 subtable" Aacute
Substitution2: "'aalt' Access All Alternates lookup 0 subtable" Aacute
EndChar

StartChar: acircumflex
Encoding: 226 226 164
Width: 1031
GlyphClass: 2
Flags: W
AnchorPoint: "Anchor-1" 0 0 basechar 0
AnchorPoint: "Anchor-0" 492 1055 basechar 0
LayerCount: 2
Fore
SplineSet
256 1214 m 1,0,-1
 236 1243 l 1,1,2
 319 1335 319 1335 472 1537 c 1,3,-1
 514 1537 l 1,4,5
 674 1327 674 1327 749 1243 c 1,6,-1
 728 1214 l 1,7,-1
 717 1214 l 1,8,9
 601 1343 601 1343 492 1488 c 1,10,11
 378 1336 378 1336 269 1214 c 1,12,-1
 256 1214 l 1,0,-1
502 1067 m 0,13,14
 635 1067 635 1067 706 998.5 c 128,-1,15
 777 930 777 930 777 804 c 0,16,17
 777 775 777 775 766 488 c 128,-1,18
 755 201 755 201 755 171 c 0,19,20
 755 103 755 103 774.5 71.5 c 128,-1,21
 794 40 794 40 838 40 c 0,22,23
 892 40 892 40 936 75 c 1,24,-1
 951 67 l 1,25,-1
 940 26 l 1,26,27
 891 -7 891 -7 836 -7 c 0,28,29
 771 -7 771 -7 740.5 34.5 c 128,-1,30
 710 76 710 76 708 171 c 1,31,-1
 700 171 l 1,32,33
 630 89 630 89 550 40.5 c 128,-1,34
 470 -8 470 -8 394 -11 c 1,35,36
 269 -11 269 -11 200 57.5 c 128,-1,37
 131 126 131 126 131 250 c 0,38,39
 131 334 131 334 182 392 c 128,-1,40
 233 450 233 450 323 472 c 1,41,-1
 724 565 l 1,42,-1
 731 793 l 1,43,44
 731 902 731 902 671 961 c 128,-1,45
 611 1020 611 1020 499 1020 c 0,46,47
 429 1020 429 1020 346.5 981 c 128,-1,48
 264 942 264 942 180 869 c 1,49,-1
 165 873 l 1,50,-1
 154 909 l 1,51,52
 241 985 241 985 331 1026 c 128,-1,53
 421 1067 421 1067 502 1067 c 0,13,14
722 516 m 1,54,-1
 334 425 l 2,55,56
 259 408 259 408 218.5 363 c 128,-1,57
 178 318 178 318 178 250 c 0,58,59
 178 148 178 148 234 91.5 c 128,-1,60
 290 35 290 35 392 35 c 0,61,62
 469 35 469 35 553 91 c 128,-1,63
 637 147 637 147 710 247 c 1,64,-1
 722 516 l 1,54,-1
EndSplineSet
Substitution2: "'case' Case-Sensitive Forms lookup 28 subtable" Acircumflex
Substitution2: "'aalt' Access All Alternates lookup 0 subtable" Acircumflex
EndChar

StartChar: atilde
Encoding: 227 227 165
Width: 1031
GlyphClass: 2
Flags: W
AnchorPoint: "Anchor-1" 0 0 basechar 0
AnchorPoint: "Anchor-0" 492 1055 basechar 0
LayerCount: 2
Fore
SplineSet
817 1448 m 1,0,-1
 817 1439 l 1,1,-1
 695 1328 l 1,2,-1
 682 1324 l 1,3,4
 639 1328 639 1328 493.5 1370 c 128,-1,5
 348 1412 348 1412 318 1412 c 0,6,7
 310 1412 310 1412 302 1408 c 128,-1,8
 294 1404 294 1404 282.5 1394.5 c 128,-1,9
 271 1385 271 1385 260.5 1375 c 128,-1,10
 250 1365 250 1365 232 1347.5 c 128,-1,11
 214 1330 214 1330 198 1317 c 1,12,-1
 189 1317 l 1,13,-1
 168 1343 l 1,14,-1
 168 1352 l 1,15,-1
 290 1461 l 1,16,-1
 303 1466 l 1,17,18
 346 1462 346 1462 492.5 1419.5 c 128,-1,19
 639 1377 639 1377 668 1377 c 0,20,21
 677 1377 677 1377 689.5 1385 c 128,-1,22
 702 1393 702 1393 713 1403.5 c 128,-1,23
 724 1414 724 1414 746.5 1435.5 c 128,-1,24
 769 1457 769 1457 787 1473 c 1,25,-1
 796 1473 l 1,26,-1
 817 1448 l 1,0,-1
502 1067 m 0,27,28
 635 1067 635 1067 706 998.5 c 128,-1,29
 777 930 777 930 777 804 c 0,30,31
 777 775 777 775 766 488 c 128,-1,32
 755 201 755 201 755 171 c 0,33,34
 755 103 755 103 774.5 71.5 c 128,-1,35
 794 40 794 40 838 40 c 0,36,37
 892 40 892 40 936 75 c 1,38,-1
 951 67 l 1,39,-1
 940 26 l 1,40,41
 891 -7 891 -7 836 -7 c 0,42,43
 771 -7 771 -7 740.5 34.5 c 128,-1,44
 710 76 710 76 708 171 c 1,45,-1
 700 171 l 1,46,47
 630 89 630 89 550 40.5 c 128,-1,48
 470 -8 470 -8 394 -11 c 1,49,50
 269 -11 269 -11 200 57.5 c 128,-1,51
 131 126 131 126 131 250 c 0,52,53
 131 334 131 334 182 392 c 128,-1,54
 233 450 233 450 323 472 c 1,55,-1
 724 565 l 1,56,-1
 731 793 l 1,57,58
 731 902 731 902 671 961 c 128,-1,59
 611 1020 611 1020 499 1020 c 0,60,61
 429 1020 429 1020 346.5 981 c 128,-1,62
 264 942 264 942 180 869 c 1,63,-1
 165 873 l 1,64,-1
 154 909 l 1,65,66
 241 985 241 985 331 1026 c 128,-1,67
 421 1067 421 1067 502 1067 c 0,27,28
722 516 m 1,68,-1
 334 425 l 2,69,70
 259 408 259 408 218.5 363 c 128,-1,71
 178 318 178 318 178 250 c 0,72,73
 178 148 178 148 234 91.5 c 128,-1,74
 290 35 290 35 392 35 c 0,75,76
 469 35 469 35 553 91 c 128,-1,77
 637 147 637 147 710 247 c 1,78,-1
 722 516 l 1,68,-1
EndSplineSet
Substitution2: "'case' Case-Sensitive Forms lookup 28 subtable" Atilde
Substitution2: "'aalt' Access All Alternates lookup 0 subtable" Atilde
EndChar

StartChar: adieresis
Encoding: 228 228 166
Width: 1031
GlyphClass: 2
Flags: W
AnchorPoint: "Anchor-1" 0 0 basechar 0
AnchorPoint: "Anchor-0" 492 1055 basechar 0
LayerCount: 2
Fore
SplineSet
329.5 1436 m 128,-1,1
 351 1436 351 1436 363.5 1423.5 c 128,-1,2
 376 1411 376 1411 376 1389.5 c 128,-1,3
 376 1368 376 1368 363.5 1355.5 c 128,-1,4
 351 1343 351 1343 329.5 1343 c 128,-1,5
 308 1343 308 1343 295.5 1355.5 c 128,-1,6
 283 1368 283 1368 283 1389.5 c 128,-1,7
 283 1411 283 1411 295.5 1423.5 c 128,-1,0
 308 1436 308 1436 329.5 1436 c 128,-1,1
655.5 1436 m 128,-1,9
 677 1436 677 1436 689.5 1423.5 c 128,-1,10
 702 1411 702 1411 702 1389.5 c 128,-1,11
 702 1368 702 1368 689.5 1355.5 c 128,-1,12
 677 1343 677 1343 655.5 1343 c 128,-1,13
 634 1343 634 1343 622 1355.5 c 128,-1,14
 610 1368 610 1368 610 1389.5 c 128,-1,15
 610 1411 610 1411 622 1423.5 c 128,-1,8
 634 1436 634 1436 655.5 1436 c 128,-1,9
502 1067 m 0,16,17
 635 1067 635 1067 706 998.5 c 128,-1,18
 777 930 777 930 777 804 c 0,19,20
 777 775 777 775 766 488 c 128,-1,21
 755 201 755 201 755 171 c 0,22,23
 755 103 755 103 774.5 71.5 c 128,-1,24
 794 40 794 40 838 40 c 0,25,26
 892 40 892 40 936 75 c 1,27,-1
 951 67 l 1,28,-1
 940 26 l 1,29,30
 891 -7 891 -7 836 -7 c 0,31,32
 771 -7 771 -7 740.5 34.5 c 128,-1,33
 710 76 710 76 708 171 c 1,34,-1
 700 171 l 1,35,36
 630 89 630 89 550 40.5 c 128,-1,37
 470 -8 470 -8 394 -11 c 1,38,39
 269 -11 269 -11 200 57.5 c 128,-1,40
 131 126 131 126 131 250 c 0,41,42
 131 334 131 334 182 392 c 128,-1,43
 233 450 233 450 323 472 c 1,44,-1
 724 565 l 1,45,-1
 731 793 l 1,46,47
 731 902 731 902 671 961 c 128,-1,48
 611 1020 611 1020 499 1020 c 0,49,50
 429 1020 429 1020 346.5 981 c 128,-1,51
 264 942 264 942 180 869 c 1,52,-1
 165 873 l 1,53,-1
 154 909 l 1,54,55
 241 985 241 985 331 1026 c 128,-1,56
 421 1067 421 1067 502 1067 c 0,16,17
722 516 m 1,57,-1
 334 425 l 2,58,59
 259 408 259 408 218.5 363 c 128,-1,60
 178 318 178 318 178 250 c 0,61,62
 178 148 178 148 234 91.5 c 128,-1,63
 290 35 290 35 392 35 c 0,64,65
 469 35 469 35 553 91 c 128,-1,66
 637 147 637 147 710 247 c 1,67,-1
 722 516 l 1,57,-1
EndSplineSet
Substitution2: "'case' Case-Sensitive Forms lookup 28 subtable" Adieresis
Substitution2: "'aalt' Access All Alternates lookup 0 subtable" Adieresis
EndChar

StartChar: aring
Encoding: 229 229 167
Width: 1031
GlyphClass: 2
Flags: W
AnchorPoint: "Anchor-1" 0 0 basechar 0
AnchorPoint: "Anchor-0" 492 1055 basechar 0
LayerCount: 2
Fore
SplineSet
488 1560 m 0,0,1
 564 1560 564 1560 608.5 1511 c 128,-1,2
 653 1462 653 1462 653 1396 c 0,3,4
 653 1323 653 1323 603.5 1279 c 128,-1,5
 554 1235 554 1235 488 1235 c 0,6,7
 423 1235 423 1235 374 1280 c 128,-1,8
 325 1325 325 1325 325 1399 c 0,9,10
 325 1468 325 1468 370 1514 c 128,-1,11
 415 1560 415 1560 488 1560 c 0,0,1
488 1513 m 0,12,13
 435 1513 435 1513 403.5 1481.5 c 128,-1,14
 372 1450 372 1450 372 1399 c 0,15,16
 372 1344 372 1344 405.5 1312.5 c 128,-1,17
 439 1281 439 1281 488 1281 c 0,18,19
 538 1281 538 1281 572 1312 c 128,-1,20
 606 1343 606 1343 606 1396 c 0,21,22
 606 1446 606 1446 575.5 1479.5 c 128,-1,23
 545 1513 545 1513 488 1513 c 0,12,13
502 1067 m 0,24,25
 635 1067 635 1067 706 998.5 c 128,-1,26
 777 930 777 930 777 804 c 0,27,28
 777 775 777 775 766 488 c 128,-1,29
 755 201 755 201 755 171 c 0,30,31
 755 103 755 103 774.5 71.5 c 128,-1,32
 794 40 794 40 838 40 c 0,33,34
 892 40 892 40 936 75 c 1,35,-1
 951 67 l 1,36,-1
 940 26 l 1,37,38
 891 -7 891 -7 836 -7 c 0,39,40
 771 -7 771 -7 740.5 34.5 c 128,-1,41
 710 76 710 76 708 171 c 1,42,-1
 700 171 l 1,43,44
 630 89 630 89 550 40.5 c 128,-1,45
 470 -8 470 -8 394 -11 c 1,46,47
 269 -11 269 -11 200 57.5 c 128,-1,48
 131 126 131 126 131 250 c 0,49,50
 131 334 131 334 182 392 c 128,-1,51
 233 450 233 450 323 472 c 1,52,-1
 724 565 l 1,53,-1
 731 793 l 1,54,55
 731 902 731 902 671 961 c 128,-1,56
 611 1020 611 1020 499 1020 c 0,57,58
 429 1020 429 1020 346.5 981 c 128,-1,59
 264 942 264 942 180 869 c 1,60,-1
 165 873 l 1,61,-1
 154 909 l 1,62,63
 241 985 241 985 331 1026 c 128,-1,64
 421 1067 421 1067 502 1067 c 0,24,25
722 516 m 1,65,-1
 334 425 l 2,66,67
 259 408 259 408 218.5 363 c 128,-1,68
 178 318 178 318 178 250 c 0,69,70
 178 148 178 148 234 91.5 c 128,-1,71
 290 35 290 35 392 35 c 0,72,73
 469 35 469 35 553 91 c 128,-1,74
 637 147 637 147 710 247 c 1,75,-1
 722 516 l 1,65,-1
EndSplineSet
Substitution2: "'case' Case-Sensitive Forms lookup 28 subtable" Aring
Substitution2: "'aalt' Access All Alternates lookup 0 subtable" Aring
EndChar

StartChar: ae
Encoding: 230 230 168
Width: 1544
GlyphClass: 2
Flags: W
AnchorPoint: "Anchor-1" 0 0 basechar 0
AnchorPoint: "Anchor-0" 786 1055 basechar 0
LayerCount: 2
Fore
SplineSet
1446 686 m 1,0,-1
 755 526 l 1,1,2
 758 293 758 293 850.5 164 c 128,-1,3
 943 35 943 35 1114 35 c 0,4,5
 1195 35 1195 35 1274 64 c 128,-1,6
 1353 93 1353 93 1410 142 c 1,7,-1
 1424 138 l 1,8,-1
 1417 91 l 1,9,10
 1273 -11 1273 -11 1109 -11 c 0,11,12
 981 -11 981 -11 890 55.5 c 128,-1,13
 799 122 799 122 751 247 c 1,14,15
 642 110 642 110 559 51 c 128,-1,16
 476 -8 476 -8 383 -11 c 1,17,18
 260 -11 260 -11 189.5 61.5 c 128,-1,19
 119 134 119 134 119 252 c 0,20,21
 119 345 119 345 167 397.5 c 128,-1,22
 215 450 215 450 310 472 c 2,23,-1
 710 563 l 1,24,-1
 710 793 l 2,25,26
 710 901 710 901 653 960.5 c 128,-1,27
 596 1020 596 1020 495 1020 c 0,28,29
 343 1020 343 1020 168 869 c 1,30,-1
 154 873 l 1,31,-1
 142 909 l 1,32,33
 326 1067 326 1067 499 1067 c 0,34,35
 620 1067 620 1067 686.5 1001 c 128,-1,36
 753 935 753 935 755 813 c 1,37,38
 821 943 821 943 910 1005 c 128,-1,39
 999 1067 999 1067 1116 1067 c 0,40,41
 1268 1067 1268 1067 1357.5 971 c 128,-1,42
 1447 875 1447 875 1457 702 c 1,43,-1
 1446 686 l 1,0,-1
1121 1020 m 0,44,45
 1019 1020 1019 1020 934.5 965 c 128,-1,46
 850 910 850 910 802.5 818 c 128,-1,47
 755 726 755 726 755 621 c 2,48,-1
 755 575 l 1,49,-1
 1406 726 l 1,50,51
 1394 862 1394 862 1317.5 941 c 128,-1,52
 1241 1020 1241 1020 1121 1020 c 0,44,45
381 35 m 0,53,54
 468 35 468 35 549.5 96 c 128,-1,55
 631 157 631 157 735 294 c 1,56,57
 710 420 710 420 710 514 c 1,58,-1
 323 425 l 1,59,60
 238 404 238 404 201.5 362.5 c 128,-1,61
 165 321 165 321 165 252 c 0,62,63
 165 157 165 157 223 96 c 128,-1,64
 281 35 281 35 381 35 c 0,53,54
EndSplineSet
Substitution2: "'case' Case-Sensitive Forms lookup 28 subtable" AE
Substitution2: "'aalt' Access All Alternates lookup 0 subtable" AE
EndChar

StartChar: ccedilla
Encoding: 231 231 169
Width: 900
GlyphClass: 2
Flags: W
AnchorPoint: "Anchor-1" 541 0 basechar 0
AnchorPoint: "Anchor-0" 543 1055 basechar 0
LayerCount: 2
Fore
SplineSet
855 131 m 1,0,-1
 849 89 l 1,1,2
 793 49 793 49 722 22.5 c 128,-1,3
 651 -4 651 -4 577 -9 c 1,4,-1
 539 -129 l 1,5,-1
 612 -176 l 2,6,7
 652 -201 652 -201 670.5 -228 c 128,-1,8
 689 -255 689 -255 689 -292 c 0,9,10
 689 -348 689 -348 648 -382 c 128,-1,11
 607 -416 607 -416 548 -416 c 0,12,13
 501 -416 501 -416 466 -393 c 128,-1,14
 431 -370 431 -370 410 -339 c 1,15,-1
 425 -296 l 1,16,-1
 434 -296 l 1,17,18
 459 -333 459 -333 483.5 -351 c 128,-1,19
 508 -369 508 -369 548 -369 c 0,20,21
 591 -369 591 -369 616.5 -348.5 c 128,-1,22
 642 -328 642 -328 642 -292 c 0,23,24
 642 -266 642 -266 629 -250 c 128,-1,25
 616 -234 616 -234 586 -214 c 2,26,-1
 483 -149 l 1,27,-1
 530 -11 l 1,28,29
 348 -6 348 -6 239.5 138.5 c 128,-1,30
 131 283 131 283 131 519 c 0,31,32
 131 769 131 769 243.5 918 c 128,-1,33
 356 1067 356 1067 544 1067 c 0,34,35
 623 1067 623 1067 704.5 1040 c 128,-1,36
 786 1013 786 1013 845 969 c 1,37,-1
 829 929 l 1,38,-1
 815 929 l 1,39,40
 763 968 763 968 689.5 994 c 128,-1,41
 616 1020 616 1020 544 1020 c 0,42,43
 377 1020 377 1020 277.5 884 c 128,-1,44
 178 748 178 748 178 519 c 0,45,46
 178 299 178 299 277 167 c 128,-1,47
 376 35 376 35 544 35 c 0,48,49
 620 35 620 35 700 62.5 c 128,-1,50
 780 90 780 90 840 136 c 1,51,-1
 855 131 l 1,0,-1
EndSplineSet
Substitution2: "'case' Case-Sensitive Forms lookup 28 subtable" Ccedilla
Substitution2: "'aalt' Access All Alternates lookup 0 subtable" Ccedilla
EndChar

StartChar: egrave
Encoding: 232 232 170
Width: 1010
GlyphClass: 2
Flags: W
AnchorPoint: "Anchor-1" 539 0 basechar 0
AnchorPoint: "Anchor-0" 536 1055 basechar 0
LayerCount: 2
Fore
SplineSet
700 1212 m 1,0,-1
 689 1210 l 1,1,2
 504 1372 504 1372 352 1524 c 1,3,-1
 350 1537 l 1,4,-1
 374 1560 l 1,5,-1
 385 1562 l 1,6,7
 560 1384 560 1384 726 1243 c 1,8,-1
 700 1212 l 1,0,-1
565 1067 m 0,9,10
 725 1067 725 1067 817 966.5 c 128,-1,11
 909 866 909 866 909 691 c 0,12,13
 909 665 909 665 904 628 c 1,14,-1
 889 612 l 1,15,-1
 180 588 l 1,16,17
 178 565 178 565 178 516 c 0,18,19
 178 297 178 297 278 166 c 128,-1,20
 378 35 378 35 555 35 c 0,21,22
 635 35 635 35 711 63 c 128,-1,23
 787 91 787 91 842 142 c 1,24,-1
 857 138 l 1,25,-1
 849 91 l 1,26,27
 715 -11 715 -11 551 -11 c 0,28,29
 356 -11 356 -11 243.5 132 c 128,-1,30
 131 275 131 275 131 516 c 0,31,32
 131 768 131 768 249.5 917.5 c 128,-1,33
 368 1067 368 1067 565 1067 c 0,9,10
860 659 m 1,34,-1
 862 691 l 1,35,36
 862 844 862 844 782 932 c 128,-1,37
 702 1020 702 1020 563 1020 c 0,38,39
 413 1020 413 1020 312.5 917 c 128,-1,40
 212 814 212 814 187 635 c 1,41,-1
 860 659 l 1,34,-1
EndSplineSet
Substitution2: "'case' Case-Sensitive Forms lookup 28 subtable" Egrave
Substitution2: "'aalt' Access All Alternates lookup 0 subtable" Egrave
EndChar

StartChar: eacute
Encoding: 233 233 171
Width: 1010
GlyphClass: 2
Flags: W
AnchorPoint: "Anchor-1" 539 0 basechar 0
AnchorPoint: "Anchor-0" 536 1055 basechar 0
LayerCount: 2
Fore
SplineSet
448 1212 m 1,0,-1
 423 1243 l 1,1,2
 589 1384 589 1384 764 1562 c 1,3,-1
 775 1560 l 1,4,-1
 798 1537 l 1,5,-1
 796 1524 l 1,6,7
 644 1372 644 1372 459 1210 c 1,8,-1
 448 1212 l 1,0,-1
565 1067 m 0,9,10
 725 1067 725 1067 817 966.5 c 128,-1,11
 909 866 909 866 909 691 c 0,12,13
 909 665 909 665 904 628 c 1,14,-1
 889 612 l 1,15,-1
 180 588 l 1,16,17
 178 565 178 565 178 516 c 0,18,19
 178 297 178 297 278 166 c 128,-1,20
 378 35 378 35 555 35 c 0,21,22
 635 35 635 35 711 63 c 128,-1,23
 787 91 787 91 842 142 c 1,24,-1
 857 138 l 1,25,-1
 849 91 l 1,26,27
 715 -11 715 -11 551 -11 c 0,28,29
 356 -11 356 -11 243.5 132 c 128,-1,30
 131 275 131 275 131 516 c 0,31,32
 131 768 131 768 249.5 917.5 c 128,-1,33
 368 1067 368 1067 565 1067 c 0,9,10
860 659 m 1,34,-1
 862 691 l 1,35,36
 862 844 862 844 782 932 c 128,-1,37
 702 1020 702 1020 563 1020 c 0,38,39
 413 1020 413 1020 312.5 917 c 128,-1,40
 212 814 212 814 187 635 c 1,41,-1
 860 659 l 1,34,-1
EndSplineSet
Substitution2: "'case' Case-Sensitive Forms lookup 28 subtable" Eacute
Substitution2: "'aalt' Access All Alternates lookup 0 subtable" Eacute
EndChar

StartChar: ecircumflex
Encoding: 234 234 172
Width: 1010
GlyphClass: 2
Flags: W
AnchorPoint: "Anchor-1" 539 0 basechar 0
AnchorPoint: "Anchor-0" 536 1055 basechar 0
LayerCount: 2
Fore
SplineSet
301 1214 m 1,0,-1
 280 1243 l 1,1,2
 363 1335 363 1335 516 1537 c 1,3,-1
 557 1537 l 1,4,5
 711 1335 711 1335 793 1243 c 1,6,-1
 773 1214 l 1,7,-1
 762 1214 l 1,8,9
 645 1343 645 1343 537 1488 c 1,10,11
 429 1343 429 1343 312 1214 c 1,12,-1
 301 1214 l 1,0,-1
565 1067 m 0,13,14
 725 1067 725 1067 817 966.5 c 128,-1,15
 909 866 909 866 909 691 c 0,16,17
 909 665 909 665 904 628 c 1,18,-1
 889 612 l 1,19,-1
 180 588 l 1,20,21
 178 565 178 565 178 516 c 0,22,23
 178 297 178 297 278 166 c 128,-1,24
 378 35 378 35 555 35 c 0,25,26
 635 35 635 35 711 63 c 128,-1,27
 787 91 787 91 842 142 c 1,28,-1
 857 138 l 1,29,-1
 849 91 l 1,30,31
 715 -11 715 -11 551 -11 c 0,32,33
 356 -11 356 -11 243.5 132 c 128,-1,34
 131 275 131 275 131 516 c 0,35,36
 131 768 131 768 249.5 917.5 c 128,-1,37
 368 1067 368 1067 565 1067 c 0,13,14
860 659 m 1,38,-1
 862 691 l 1,39,40
 862 844 862 844 782 932 c 128,-1,41
 702 1020 702 1020 563 1020 c 0,42,43
 413 1020 413 1020 312.5 917 c 128,-1,44
 212 814 212 814 187 635 c 1,45,-1
 860 659 l 1,38,-1
EndSplineSet
Substitution2: "'case' Case-Sensitive Forms lookup 28 subtable" Ecircumflex
Substitution2: "'aalt' Access All Alternates lookup 0 subtable" Ecircumflex
EndChar

StartChar: edieresis
Encoding: 235 235 173
Width: 1010
GlyphClass: 2
Flags: W
AnchorPoint: "Anchor-1" 539 0 basechar 0
AnchorPoint: "Anchor-0" 536 1055 basechar 0
LayerCount: 2
Fore
SplineSet
374 1343 m 128,-1,1
 353 1343 353 1343 340 1355.5 c 128,-1,2
 327 1368 327 1368 327 1389.5 c 128,-1,3
 327 1411 327 1411 340 1423.5 c 128,-1,4
 353 1436 353 1436 374 1436 c 128,-1,5
 395 1436 395 1436 408 1423.5 c 128,-1,6
 421 1411 421 1411 421 1389.5 c 128,-1,7
 421 1368 421 1368 408 1355.5 c 128,-1,0
 395 1343 395 1343 374 1343 c 128,-1,1
700 1343 m 128,-1,9
 679 1343 679 1343 666 1355.5 c 128,-1,10
 653 1368 653 1368 653 1389.5 c 128,-1,11
 653 1411 653 1411 666 1423.5 c 128,-1,12
 679 1436 679 1436 700 1436 c 128,-1,13
 721 1436 721 1436 734 1423.5 c 128,-1,14
 747 1411 747 1411 747 1389.5 c 128,-1,15
 747 1368 747 1368 734 1355.5 c 128,-1,8
 721 1343 721 1343 700 1343 c 128,-1,9
565 1067 m 0,16,17
 725 1067 725 1067 817 966.5 c 128,-1,18
 909 866 909 866 909 691 c 0,19,20
 909 665 909 665 904 628 c 1,21,-1
 889 612 l 1,22,-1
 180 588 l 1,23,24
 178 565 178 565 178 516 c 0,25,26
 178 297 178 297 278 166 c 128,-1,27
 378 35 378 35 555 35 c 0,28,29
 635 35 635 35 711 63 c 128,-1,30
 787 91 787 91 842 142 c 1,31,-1
 857 138 l 1,32,-1
 849 91 l 1,33,34
 715 -11 715 -11 551 -11 c 0,35,36
 356 -11 356 -11 243.5 132 c 128,-1,37
 131 275 131 275 131 516 c 0,38,39
 131 768 131 768 249.5 917.5 c 128,-1,40
 368 1067 368 1067 565 1067 c 0,16,17
860 659 m 1,41,-1
 862 691 l 1,42,43
 862 844 862 844 782 932 c 128,-1,44
 702 1020 702 1020 563 1020 c 0,45,46
 413 1020 413 1020 312.5 917 c 128,-1,47
 212 814 212 814 187 635 c 1,48,-1
 860 659 l 1,41,-1
EndSplineSet
Substitution2: "'case' Case-Sensitive Forms lookup 28 subtable" Edieresis
Substitution2: "'aalt' Access All Alternates lookup 0 subtable" Edieresis
EndChar

StartChar: igrave
Encoding: 236 236 174
Width: 517
GlyphClass: 2
Flags: W
AnchorPoint: "Anchor-1" 258 0 basechar 0
AnchorPoint: "Anchor-0" 258 1055 basechar 0
LayerCount: 2
Fore
SplineSet
93 1560 m 1,0,-1
 105 1562 l 1,1,2
 279 1384 279 1384 446 1243 c 1,3,-1
 421 1212 l 1,4,-1
 408 1210 l 1,5,6
 224 1372 224 1372 72 1524 c 1,7,-1
 70 1537 l 1,8,-1
 93 1560 l 1,0,-1
283 0 m 1,9,-1
 236 0 l 1,10,-1
 236 1049 l 1,11,-1
 283 1058 l 1,12,-1
 283 0 l 1,9,-1
EndSplineSet
Substitution2: "'case' Case-Sensitive Forms lookup 28 subtable" Igrave
Substitution2: "'aalt' Access All Alternates lookup 0 subtable" Igrave
EndChar

StartChar: iacute
Encoding: 237 237 175
Width: 517
GlyphClass: 2
Flags: W
AnchorPoint: "Anchor-1" 258 0 basechar 0
AnchorPoint: "Anchor-0" 258 1055 basechar 0
LayerCount: 2
Fore
SplineSet
497 1560 m 1,0,-1
 521 1537 l 1,1,-1
 519 1524 l 1,2,3
 367 1372 367 1372 182 1210 c 1,4,-1
 171 1212 l 1,5,-1
 145 1243 l 1,6,7
 311 1384 311 1384 486 1562 c 1,8,-1
 497 1560 l 1,0,-1
283 0 m 1,9,-1
 236 0 l 1,10,-1
 236 1049 l 1,11,-1
 283 1058 l 1,12,-1
 283 0 l 1,9,-1
EndSplineSet
Substitution2: "'case' Case-Sensitive Forms lookup 28 subtable" Iacute
Substitution2: "'aalt' Access All Alternates lookup 0 subtable" Iacute
EndChar

StartChar: icircumflex
Encoding: 238 238 176
Width: 517
GlyphClass: 2
Flags: W
AnchorPoint: "Anchor-1" 258 0 basechar 0
AnchorPoint: "Anchor-0" 258 1055 basechar 0
LayerCount: 2
Fore
SplineSet
23 1214 m 1,0,-1
 2 1243 l 1,1,2
 85 1335 85 1335 238 1537 c 1,3,-1
 280 1537 l 1,4,5
 434 1335 434 1335 516 1243 c 1,6,-1
 495 1214 l 1,7,-1
 483 1214 l 1,8,9
 367 1343 367 1343 259 1488 c 1,10,11
 145 1336 145 1336 35 1214 c 1,12,-1
 23 1214 l 1,0,-1
283 0 m 1,13,-1
 236 0 l 1,14,-1
 236 1049 l 1,15,-1
 283 1058 l 1,16,-1
 283 0 l 1,13,-1
EndSplineSet
Substitution2: "'case' Case-Sensitive Forms lookup 28 subtable" Icircumflex
Substitution2: "'aalt' Access All Alternates lookup 0 subtable" Icircumflex
EndChar

StartChar: idieresis
Encoding: 239 239 177
Width: 517
GlyphClass: 2
Flags: W
AnchorPoint: "Anchor-1" 258 0 basechar 0
AnchorPoint: "Anchor-0" 258 1055 basechar 0
LayerCount: 2
Fore
SplineSet
142.5 1436 m 128,-1,1
 164 1436 164 1436 176.5 1423.5 c 128,-1,2
 189 1411 189 1411 189 1389.5 c 128,-1,3
 189 1368 189 1368 176.5 1355.5 c 128,-1,4
 164 1343 164 1343 142.5 1343 c 128,-1,5
 121 1343 121 1343 108.5 1355.5 c 128,-1,6
 96 1368 96 1368 96 1389.5 c 128,-1,7
 96 1411 96 1411 108.5 1423.5 c 128,-1,0
 121 1436 121 1436 142.5 1436 c 128,-1,1
376.5 1436 m 128,-1,9
 398 1436 398 1436 410.5 1423.5 c 128,-1,10
 423 1411 423 1411 423 1389.5 c 128,-1,11
 423 1368 423 1368 410.5 1355.5 c 128,-1,12
 398 1343 398 1343 376.5 1343 c 128,-1,13
 355 1343 355 1343 342 1355.5 c 128,-1,14
 329 1368 329 1368 329 1389.5 c 128,-1,15
 329 1411 329 1411 342 1423.5 c 128,-1,8
 355 1436 355 1436 376.5 1436 c 128,-1,9
283 0 m 1,16,-1
 236 0 l 1,17,-1
 236 1049 l 1,18,-1
 283 1058 l 1,19,-1
 283 0 l 1,16,-1
EndSplineSet
Ligature2: "'liga' Standard Ligatures lookup 30 subtable" dieresis i
Substitution2: "'case' Case-Sensitive Forms lookup 28 subtable" Idieresis
Substitution2: "'aalt' Access All Alternates lookup 0 subtable" Idieresis
EndChar

StartChar: eth
Encoding: 240 240 178
Width: 1141
GlyphClass: 2
Flags: W
LayerCount: 2
Fore
SplineSet
938 1485 m 1,0,-1
 670 1370 l 1,1,2
 831 1213 831 1213 916.5 1008.5 c 128,-1,3
 1002 804 1002 804 1002 568 c 0,4,5
 1002 295 1002 295 889.5 142 c 128,-1,6
 777 -11 777 -11 570 -11 c 0,7,8
 367 -11 367 -11 249 131.5 c 128,-1,9
 131 274 131 274 131 523 c 0,10,11
 131 774 131 774 253 920.5 c 128,-1,12
 375 1067 375 1067 586 1067 c 0,13,14
 754 1067 754 1067 882 964 c 1,15,16
 798 1184 798 1184 621 1350 c 1,17,-1
 320 1221 l 1,18,-1
 310 1228 l 1,19,-1
 299 1265 l 1,20,-1
 579 1384 l 1,21,22
 422 1520 422 1520 205 1604 c 1,23,-1
 205 1615 l 1,24,-1
 227 1639 l 1,25,-1
 236 1639 l 1,26,27
 470 1550 470 1550 630 1406 c 1,28,-1
 918 1529 l 1,29,-1
 927 1522 l 1,30,-1
 938 1485 l 1,0,-1
570 35 m 0,31,32
 756 35 756 35 855.5 175 c 128,-1,33
 955 315 955 315 955 568 c 0,34,35
 955 741 955 741 911 882 c 1,36,37
 776 1020 776 1020 586 1020 c 256,38,39
 396 1020 396 1020 287 886.5 c 128,-1,40
 178 753 178 753 178 523 c 0,41,42
 178 296 178 296 284 165.5 c 128,-1,43
 390 35 390 35 570 35 c 0,31,32
EndSplineSet
Substitution2: "'case' Case-Sensitive Forms lookup 28 subtable" Eth
Substitution2: "'aalt' Access All Alternates lookup 0 subtable" Eth
EndChar

StartChar: ntilde
Encoding: 241 241 179
Width: 1171
GlyphClass: 2
Flags: W
AnchorPoint: "Anchor-1" 583 0 basechar 0
AnchorPoint: "Anchor-0" 614 1055 basechar 0
LayerCount: 2
Fore
SplineSet
310 1317 m 1,0,-1
 290 1343 l 1,1,-1
 290 1352 l 1,2,-1
 410 1461 l 1,3,-1
 425 1466 l 1,4,5
 468 1462 468 1462 613.5 1419.5 c 128,-1,6
 759 1377 759 1377 789 1377 c 0,7,8
 796 1377 796 1377 804.5 1381.5 c 128,-1,9
 813 1386 813 1386 824.5 1395.5 c 128,-1,10
 836 1405 836 1405 846.5 1415 c 128,-1,11
 857 1425 857 1425 875 1442 c 128,-1,12
 893 1459 893 1459 909 1473 c 1,13,-1
 918 1473 l 1,14,-1
 938 1448 l 1,15,-1
 938 1439 l 1,16,-1
 817 1328 l 1,17,-1
 804 1324 l 1,18,19
 761 1328 761 1328 614.5 1370 c 128,-1,20
 468 1412 468 1412 439 1412 c 0,21,22
 430 1412 430 1412 417.5 1404.5 c 128,-1,23
 405 1397 405 1397 394 1386.5 c 128,-1,24
 383 1376 383 1376 360.5 1354.5 c 128,-1,25
 338 1333 338 1333 320 1317 c 1,26,-1
 310 1317 l 1,0,-1
656 1067 m 0,27,28
 802 1067 802 1067 882 983.5 c 128,-1,29
 962 900 962 900 962 749 c 2,30,-1
 962 0 l 1,31,-1
 911 0 l 1,32,-1
 915 747 l 2,33,34
 915 876 915 876 846.5 948 c 128,-1,35
 778 1020 778 1020 656 1020 c 0,36,37
 566 1020 566 1020 468.5 961 c 128,-1,38
 371 902 371 902 283 796 c 1,39,-1
 283 0 l 1,40,-1
 236 0 l 1,41,-1
 236 1049 l 1,42,-1
 283 1058 l 1,43,-1
 283 873 l 1,44,-1
 292 873 l 1,45,46
 377 966 377 966 472.5 1016.5 c 128,-1,47
 568 1067 568 1067 656 1067 c 0,27,28
EndSplineSet
Substitution2: "'case' Case-Sensitive Forms lookup 28 subtable" Ntilde
Substitution2: "'aalt' Access All Alternates lookup 0 subtable" Ntilde
EndChar

StartChar: ograve
Encoding: 242 242 180
Width: 1136
GlyphClass: 2
Flags: W
AnchorPoint: "Anchor-1" 0 0 basechar 0
AnchorPoint: "Anchor-0" 567 1055 basechar 0
LayerCount: 2
Fore
SplineSet
404 1560 m 1,0,-1
 416 1562 l 1,1,2
 590 1384 590 1384 757 1243 c 1,3,-1
 731 1212 l 1,4,-1
 719 1210 l 1,5,6
 535 1372 535 1372 383 1524 c 1,7,-1
 381 1537 l 1,8,-1
 404 1560 l 1,0,-1
575 1067 m 0,9,10
 774 1067 774 1067 888 925.5 c 128,-1,11
 1002 784 1002 784 1002 537 c 0,12,13
 1002 281 1002 281 883 135 c 128,-1,14
 764 -11 764 -11 557 -11 c 0,15,16
 358 -11 358 -11 244.5 130 c 128,-1,17
 131 271 131 271 131 519 c 0,18,19
 131 774 131 774 249.5 920.5 c 128,-1,20
 368 1067 368 1067 575 1067 c 0,9,10
575 1020 m 0,21,22
 389 1020 389 1020 283.5 886.5 c 128,-1,23
 178 753 178 753 178 519 c 0,24,25
 178 293 178 293 279 164 c 128,-1,26
 380 35 380 35 557 35 c 0,27,28
 743 35 743 35 849 169 c 128,-1,29
 955 303 955 303 955 537 c 0,30,31
 955 762 955 762 853.5 891 c 128,-1,32
 752 1020 752 1020 575 1020 c 0,21,22
EndSplineSet
Substitution2: "'case' Case-Sensitive Forms lookup 28 subtable" Ograve
Substitution2: "'aalt' Access All Alternates lookup 0 subtable" Ograve
EndChar

StartChar: oacute
Encoding: 243 243 181
Width: 1136
GlyphClass: 2
Flags: W
AnchorPoint: "Anchor-1" 0 0 basechar 0
AnchorPoint: "Anchor-0" 567 1055 basechar 0
LayerCount: 2
Fore
SplineSet
806 1560 m 1,0,-1
 829 1537 l 1,1,-1
 826 1524 l 1,2,3
 674 1372 674 1372 490 1210 c 1,4,-1
 479 1212 l 1,5,-1
 453 1243 l 1,6,7
 619 1384 619 1384 793 1562 c 1,8,-1
 806 1560 l 1,0,-1
575 1067 m 0,9,10
 774 1067 774 1067 888 925.5 c 128,-1,11
 1002 784 1002 784 1002 537 c 0,12,13
 1002 281 1002 281 883 135 c 128,-1,14
 764 -11 764 -11 557 -11 c 0,15,16
 358 -11 358 -11 244.5 130 c 128,-1,17
 131 271 131 271 131 519 c 0,18,19
 131 774 131 774 249.5 920.5 c 128,-1,20
 368 1067 368 1067 575 1067 c 0,9,10
575 1020 m 0,21,22
 389 1020 389 1020 283.5 886.5 c 128,-1,23
 178 753 178 753 178 519 c 0,24,25
 178 293 178 293 279 164 c 128,-1,26
 380 35 380 35 557 35 c 0,27,28
 743 35 743 35 849 169 c 128,-1,29
 955 303 955 303 955 537 c 0,30,31
 955 762 955 762 853.5 891 c 128,-1,32
 752 1020 752 1020 575 1020 c 0,21,22
EndSplineSet
Substitution2: "'case' Case-Sensitive Forms lookup 28 subtable" Oacute
Substitution2: "'aalt' Access All Alternates lookup 0 subtable" Oacute
EndChar

StartChar: ocircumflex
Encoding: 244 244 182
Width: 1136
GlyphClass: 2
Flags: W
AnchorPoint: "Anchor-1" 0 0 basechar 0
AnchorPoint: "Anchor-0" 567 1055 basechar 0
LayerCount: 2
Fore
SplineSet
332 1214 m 1,0,-1
 310 1243 l 1,1,2
 393 1335 393 1335 546 1537 c 1,3,-1
 588 1537 l 1,4,5
 742 1335 742 1335 824 1243 c 1,6,-1
 804 1214 l 1,7,-1
 791 1214 l 1,8,9
 682 1336 682 1336 568 1488 c 1,10,11
 459 1343 459 1343 343 1214 c 1,12,-1
 332 1214 l 1,0,-1
575 1067 m 0,13,14
 774 1067 774 1067 888 925.5 c 128,-1,15
 1002 784 1002 784 1002 537 c 0,16,17
 1002 281 1002 281 883 135 c 128,-1,18
 764 -11 764 -11 557 -11 c 0,19,20
 358 -11 358 -11 244.5 130 c 128,-1,21
 131 271 131 271 131 519 c 0,22,23
 131 774 131 774 249.5 920.5 c 128,-1,24
 368 1067 368 1067 575 1067 c 0,13,14
575 1020 m 0,25,26
 389 1020 389 1020 283.5 886.5 c 128,-1,27
 178 753 178 753 178 519 c 0,28,29
 178 293 178 293 279 164 c 128,-1,30
 380 35 380 35 557 35 c 0,31,32
 743 35 743 35 849 169 c 128,-1,33
 955 303 955 303 955 537 c 0,34,35
 955 762 955 762 853.5 891 c 128,-1,36
 752 1020 752 1020 575 1020 c 0,25,26
EndSplineSet
Substitution2: "'case' Case-Sensitive Forms lookup 28 subtable" Ocircumflex
Substitution2: "'aalt' Access All Alternates lookup 0 subtable" Ocircumflex
EndChar

StartChar: otilde
Encoding: 245 245 183
Width: 1136
GlyphClass: 2
Flags: W
AnchorPoint: "Anchor-1" 0 0 basechar 0
AnchorPoint: "Anchor-0" 567 1055 basechar 0
LayerCount: 2
Fore
SplineSet
891 1448 m 1,0,-1
 891 1439 l 1,1,-1
 771 1328 l 1,2,-1
 757 1324 l 1,3,4
 714 1328 714 1328 568 1370 c 128,-1,5
 422 1412 422 1412 392 1412 c 0,6,7
 383 1412 383 1412 370.5 1404.5 c 128,-1,8
 358 1397 358 1397 347 1386.5 c 128,-1,9
 336 1376 336 1376 314 1354.5 c 128,-1,10
 292 1333 292 1333 274 1317 c 1,11,-1
 263 1317 l 1,12,-1
 243 1343 l 1,13,-1
 243 1352 l 1,14,-1
 364 1461 l 1,15,-1
 378 1466 l 1,16,17
 421 1462 421 1462 567 1419.5 c 128,-1,18
 713 1377 713 1377 742 1377 c 0,19,20
 750 1377 750 1377 758.5 1381.5 c 128,-1,21
 767 1386 767 1386 778 1395.5 c 128,-1,22
 789 1405 789 1405 799.5 1415 c 128,-1,23
 810 1425 810 1425 828 1442 c 128,-1,24
 846 1459 846 1459 862 1473 c 1,25,-1
 871 1473 l 1,26,-1
 891 1448 l 1,0,-1
575 1067 m 0,27,28
 774 1067 774 1067 888 925.5 c 128,-1,29
 1002 784 1002 784 1002 537 c 0,30,31
 1002 281 1002 281 883 135 c 128,-1,32
 764 -11 764 -11 557 -11 c 0,33,34
 358 -11 358 -11 244.5 130 c 128,-1,35
 131 271 131 271 131 519 c 0,36,37
 131 774 131 774 249.5 920.5 c 128,-1,38
 368 1067 368 1067 575 1067 c 0,27,28
575 1020 m 0,39,40
 389 1020 389 1020 283.5 886.5 c 128,-1,41
 178 753 178 753 178 519 c 0,42,43
 178 293 178 293 279 164 c 128,-1,44
 380 35 380 35 557 35 c 0,45,46
 743 35 743 35 849 169 c 128,-1,47
 955 303 955 303 955 537 c 0,48,49
 955 762 955 762 853.5 891 c 128,-1,50
 752 1020 752 1020 575 1020 c 0,39,40
EndSplineSet
Substitution2: "'case' Case-Sensitive Forms lookup 28 subtable" Otilde
Substitution2: "'aalt' Access All Alternates lookup 0 subtable" Otilde
EndChar

StartChar: odieresis
Encoding: 246 246 184
Width: 1136
GlyphClass: 2
Flags: W
AnchorPoint: "Anchor-1" 0 0 basechar 0
AnchorPoint: "Anchor-0" 567 1055 basechar 0
LayerCount: 2
Fore
SplineSet
403.5 1436 m 128,-1,1
 425 1436 425 1436 437.5 1423.5 c 128,-1,2
 450 1411 450 1411 450 1389.5 c 128,-1,3
 450 1368 450 1368 437.5 1355.5 c 128,-1,4
 425 1343 425 1343 403.5 1343 c 128,-1,5
 382 1343 382 1343 369.5 1355.5 c 128,-1,6
 357 1368 357 1368 357 1389.5 c 128,-1,7
 357 1411 357 1411 369.5 1423.5 c 128,-1,0
 382 1436 382 1436 403.5 1436 c 128,-1,1
730.5 1436 m 128,-1,9
 752 1436 752 1436 764.5 1423.5 c 128,-1,10
 777 1411 777 1411 777 1389.5 c 128,-1,11
 777 1368 777 1368 764.5 1355.5 c 128,-1,12
 752 1343 752 1343 730.5 1343 c 128,-1,13
 709 1343 709 1343 696.5 1355.5 c 128,-1,14
 684 1368 684 1368 684 1389.5 c 128,-1,15
 684 1411 684 1411 696.5 1423.5 c 128,-1,8
 709 1436 709 1436 730.5 1436 c 128,-1,9
575 1067 m 0,16,17
 774 1067 774 1067 888 925.5 c 128,-1,18
 1002 784 1002 784 1002 537 c 0,19,20
 1002 281 1002 281 883 135 c 128,-1,21
 764 -11 764 -11 557 -11 c 0,22,23
 358 -11 358 -11 244.5 130 c 128,-1,24
 131 271 131 271 131 519 c 0,25,26
 131 774 131 774 249.5 920.5 c 128,-1,27
 368 1067 368 1067 575 1067 c 0,16,17
575 1020 m 0,28,29
 389 1020 389 1020 283.5 886.5 c 128,-1,30
 178 753 178 753 178 519 c 0,31,32
 178 293 178 293 279 164 c 128,-1,33
 380 35 380 35 557 35 c 0,34,35
 743 35 743 35 849 169 c 128,-1,36
 955 303 955 303 955 537 c 0,37,38
 955 762 955 762 853.5 891 c 128,-1,39
 752 1020 752 1020 575 1020 c 0,28,29
EndSplineSet
Ligature2: "'liga' Standard Ligatures lookup 30 subtable" dieresis o
Substitution2: "'case' Case-Sensitive Forms lookup 28 subtable" Odieresis
Substitution2: "'aalt' Access All Alternates lookup 0 subtable" Odieresis
EndChar

StartChar: divide
Encoding: 247 247 185
Width: 1120
GlyphClass: 2
Flags: W
LayerCount: 2
Fore
SplineSet
616.5 1100 m 128,-1,1
 638 1100 638 1100 650.5 1087.5 c 128,-1,2
 663 1075 663 1075 663 1053.5 c 128,-1,3
 663 1032 663 1032 650.5 1019.5 c 128,-1,4
 638 1007 638 1007 616.5 1007 c 128,-1,5
 595 1007 595 1007 582.5 1019.5 c 128,-1,6
 570 1032 570 1032 570 1053.5 c 128,-1,7
 570 1075 570 1075 582.5 1087.5 c 128,-1,0
 595 1100 595 1100 616.5 1100 c 128,-1,1
1065 646 m 1,8,-1
 1060 606 l 1,9,-1
 133 606 l 1,10,-1
 127 614 l 1,11,-1
 131 653 l 1,12,-1
 1058 653 l 1,13,-1
 1065 646 l 1,8,-1
616.5 252 m 128,-1,15
 638 252 638 252 650.5 239.5 c 128,-1,16
 663 227 663 227 663 205.5 c 128,-1,17
 663 184 663 184 650.5 171 c 128,-1,18
 638 158 638 158 616.5 158 c 128,-1,19
 595 158 595 158 582.5 171 c 128,-1,20
 570 184 570 184 570 205.5 c 128,-1,21
 570 227 570 227 582.5 239.5 c 128,-1,14
 595 252 595 252 616.5 252 c 128,-1,15
EndSplineSet
EndChar

StartChar: oslash
Encoding: 248 248 186
Width: 1136
GlyphClass: 2
Flags: W
AnchorPoint: "Anchor-1" 0 0 basechar 0
AnchorPoint: "Anchor-0" 567 1055 basechar 0
LayerCount: 2
Fore
SplineSet
898 1221 m 1,0,-1
 804 1004 l 1,1,2
 899 941 899 941 950.5 821 c 128,-1,3
 1002 701 1002 701 1002 537 c 0,4,5
 1002 281 1002 281 883 135 c 128,-1,6
 764 -11 764 -11 557 -11 c 0,7,8
 453 -11 453 -11 372 28 c 1,9,-1
 247 -250 l 1,10,-1
 210 -243 l 1,11,-1
 205 -234 l 1,12,-1
 332 51 l 1,13,14
 235 113 235 113 183 233 c 128,-1,15
 131 353 131 353 131 519 c 0,16,17
 131 774 131 774 249.5 920.5 c 128,-1,18
 368 1067 368 1067 575 1067 c 0,19,20
 683 1067 683 1067 766 1025 c 1,21,-1
 860 1237 l 1,22,-1
 894 1232 l 1,23,-1
 898 1221 l 1,0,-1
178 519 m 0,24,25
 178 371 178 371 223 262.5 c 128,-1,26
 268 154 268 154 352 96 c 1,27,-1
 744 980 l 1,28,29
 670 1020 670 1020 575 1020 c 0,30,31
 389 1020 389 1020 283.5 886.5 c 128,-1,32
 178 753 178 753 178 519 c 0,24,25
557 35 m 0,33,34
 743 35 743 35 849 169 c 128,-1,35
 955 303 955 303 955 537 c 0,36,37
 955 684 955 684 910 792.5 c 128,-1,38
 865 901 865 901 782 960 c 1,39,-1
 390 72 l 1,40,41
 468 35 468 35 557 35 c 0,33,34
EndSplineSet
Substitution2: "'case' Case-Sensitive Forms lookup 28 subtable" Oslash
Substitution2: "'aalt' Access All Alternates lookup 0 subtable" Oslash
EndChar

StartChar: ugrave
Encoding: 249 249 187
Width: 1176
GlyphClass: 2
Flags: W
AnchorPoint: "Anchor-1" 0 0 basechar 0
AnchorPoint: "Anchor-0" 592 1055 basechar 0
LayerCount: 2
Fore
SplineSet
430 1560 m 1,0,-1
 441 1562 l 1,1,2
 616 1384 616 1384 782 1243 c 1,3,-1
 757 1212 l 1,4,-1
 744 1210 l 1,5,6
 560 1372 560 1372 408 1524 c 1,7,-1
 406 1537 l 1,8,-1
 430 1560 l 1,0,-1
915 1058 m 1,9,-1
 915 185 l 2,10,11
 915 110 915 110 935.5 75 c 128,-1,12
 956 40 956 40 1000 40 c 0,13,14
 1051 40 1051 40 1096 75 c 1,15,-1
 1109 67 l 1,16,-1
 1100 26 l 1,17,18
 1051 -7 1051 -7 994 -7 c 0,19,20
 931 -7 931 -7 900 38.5 c 128,-1,21
 869 84 869 84 869 185 c 1,22,-1
 860 185 l 1,23,24
 682 -9 682 -9 486 -9 c 0,25,26
 352 -9 352 -9 281 73 c 128,-1,27
 210 155 210 155 210 308 c 2,28,-1
 210 1049 l 1,29,-1
 256 1058 l 1,30,-1
 256 310 l 2,31,32
 256 179 256 179 317.5 108.5 c 128,-1,33
 379 38 379 38 492 38 c 0,34,35
 584 38 584 38 680 92 c 128,-1,36
 776 146 776 146 869 252 c 1,37,-1
 869 1049 l 1,38,-1
 915 1058 l 1,9,-1
EndSplineSet
Substitution2: "'case' Case-Sensitive Forms lookup 28 subtable" Ugrave
Substitution2: "'aalt' Access All Alternates lookup 0 subtable" Ugrave
EndChar

StartChar: uacute
Encoding: 250 250 188
Width: 1176
GlyphClass: 2
Flags: W
AnchorPoint: "Anchor-1" 0 0 basechar 0
AnchorPoint: "Anchor-0" 592 1055 basechar 0
LayerCount: 2
Fore
SplineSet
831 1560 m 1,0,-1
 855 1537 l 1,1,-1
 853 1524 l 1,2,3
 701 1372 701 1372 516 1210 c 1,4,-1
 504 1212 l 1,5,-1
 479 1243 l 1,6,7
 645 1384 645 1384 820 1562 c 1,8,-1
 831 1560 l 1,0,-1
915 1058 m 1,9,-1
 915 185 l 2,10,11
 915 110 915 110 935.5 75 c 128,-1,12
 956 40 956 40 1000 40 c 0,13,14
 1051 40 1051 40 1096 75 c 1,15,-1
 1109 67 l 1,16,-1
 1100 26 l 1,17,18
 1051 -7 1051 -7 994 -7 c 0,19,20
 931 -7 931 -7 900 38.5 c 128,-1,21
 869 84 869 84 869 185 c 1,22,-1
 860 185 l 1,23,24
 682 -9 682 -9 486 -9 c 0,25,26
 352 -9 352 -9 281 73 c 128,-1,27
 210 155 210 155 210 308 c 2,28,-1
 210 1049 l 1,29,-1
 256 1058 l 1,30,-1
 256 310 l 2,31,32
 256 179 256 179 317.5 108.5 c 128,-1,33
 379 38 379 38 492 38 c 0,34,35
 584 38 584 38 680 92 c 128,-1,36
 776 146 776 146 869 252 c 1,37,-1
 869 1049 l 1,38,-1
 915 1058 l 1,9,-1
EndSplineSet
Substitution2: "'case' Case-Sensitive Forms lookup 28 subtable" Uacute
Substitution2: "'aalt' Access All Alternates lookup 0 subtable" Uacute
EndChar

StartChar: ucircumflex
Encoding: 251 251 189
Width: 1176
GlyphClass: 2
Flags: W
AnchorPoint: "Anchor-1" 0 0 basechar 0
AnchorPoint: "Anchor-0" 592 1055 basechar 0
LayerCount: 2
Fore
SplineSet
357 1214 m 1,0,-1
 336 1243 l 1,1,2
 419 1335 419 1335 572 1537 c 1,3,-1
 614 1537 l 1,4,5
 774 1327 774 1327 849 1243 c 1,6,-1
 829 1214 l 1,7,-1
 817 1214 l 1,8,9
 701 1343 701 1343 593 1488 c 1,10,11
 479 1336 479 1336 369 1214 c 1,12,-1
 357 1214 l 1,0,-1
915 1058 m 1,13,-1
 915 185 l 2,14,15
 915 110 915 110 935.5 75 c 128,-1,16
 956 40 956 40 1000 40 c 0,17,18
 1051 40 1051 40 1096 75 c 1,19,-1
 1109 67 l 1,20,-1
 1100 26 l 1,21,22
 1051 -7 1051 -7 994 -7 c 0,23,24
 931 -7 931 -7 900 38.5 c 128,-1,25
 869 84 869 84 869 185 c 1,26,-1
 860 185 l 1,27,28
 682 -9 682 -9 486 -9 c 0,29,30
 352 -9 352 -9 281 73 c 128,-1,31
 210 155 210 155 210 308 c 2,32,-1
 210 1049 l 1,33,-1
 256 1058 l 1,34,-1
 256 310 l 2,35,36
 256 179 256 179 317.5 108.5 c 128,-1,37
 379 38 379 38 492 38 c 0,38,39
 584 38 584 38 680 92 c 128,-1,40
 776 146 776 146 869 252 c 1,41,-1
 869 1049 l 1,42,-1
 915 1058 l 1,13,-1
EndSplineSet
Substitution2: "'case' Case-Sensitive Forms lookup 28 subtable" Ucircumflex
Substitution2: "'aalt' Access All Alternates lookup 0 subtable" Ucircumflex
EndChar

StartChar: udieresis
Encoding: 252 252 190
Width: 1176
GlyphClass: 2
Flags: W
AnchorPoint: "Anchor-1" 0 0 basechar 0
AnchorPoint: "Anchor-0" 592 1055 basechar 0
LayerCount: 2
Fore
SplineSet
429.5 1436 m 128,-1,1
 451 1436 451 1436 464 1423.5 c 128,-1,2
 477 1411 477 1411 477 1389.5 c 128,-1,3
 477 1368 477 1368 464 1355.5 c 128,-1,4
 451 1343 451 1343 429.5 1343 c 128,-1,5
 408 1343 408 1343 395.5 1355.5 c 128,-1,6
 383 1368 383 1368 383 1389.5 c 128,-1,7
 383 1411 383 1411 395.5 1423.5 c 128,-1,0
 408 1436 408 1436 429.5 1436 c 128,-1,1
757 1436 m 128,-1,9
 778 1436 778 1436 791 1423.5 c 128,-1,10
 804 1411 804 1411 804 1389.5 c 128,-1,11
 804 1368 804 1368 791 1355.5 c 128,-1,12
 778 1343 778 1343 757 1343 c 128,-1,13
 736 1343 736 1343 723 1355.5 c 128,-1,14
 710 1368 710 1368 710 1389.5 c 128,-1,15
 710 1411 710 1411 723 1423.5 c 128,-1,8
 736 1436 736 1436 757 1436 c 128,-1,9
915 1058 m 1,16,-1
 915 185 l 2,17,18
 915 110 915 110 935.5 75 c 128,-1,19
 956 40 956 40 1000 40 c 0,20,21
 1051 40 1051 40 1096 75 c 1,22,-1
 1109 67 l 1,23,-1
 1100 26 l 1,24,25
 1051 -7 1051 -7 994 -7 c 0,26,27
 931 -7 931 -7 900 38.5 c 128,-1,28
 869 84 869 84 869 185 c 1,29,-1
 860 185 l 1,30,31
 682 -9 682 -9 486 -9 c 0,32,33
 352 -9 352 -9 281 73 c 128,-1,34
 210 155 210 155 210 308 c 2,35,-1
 210 1049 l 1,36,-1
 256 1058 l 1,37,-1
 256 310 l 2,38,39
 256 179 256 179 317.5 108.5 c 128,-1,40
 379 38 379 38 492 38 c 0,41,42
 584 38 584 38 680 92 c 128,-1,43
 776 146 776 146 869 252 c 1,44,-1
 869 1049 l 1,45,-1
 915 1058 l 1,16,-1
EndSplineSet
Substitution2: "'case' Case-Sensitive Forms lookup 28 subtable" Udieresis
Substitution2: "'aalt' Access All Alternates lookup 0 subtable" Udieresis
EndChar

StartChar: yacute
Encoding: 253 253 191
Width: 945
GlyphClass: 2
Flags: W
AnchorPoint: "Anchor-1" 0 0 basechar 0
AnchorPoint: "Anchor-0" 478 1055 basechar 0
LayerCount: 2
Fore
SplineSet
717 1560 m 1,0,-1
 740 1537 l 1,1,-1
 738 1524 l 1,2,3
 585 1372 585 1372 401 1210 c 1,4,-1
 390 1212 l 1,5,-1
 364 1243 l 1,6,7
 530 1384 530 1384 705 1562 c 1,8,-1
 717 1560 l 1,0,-1
127 955 m 1,9,-1
 453 84 l 1,10,-1
 465 84 l 1,11,-1
 806 955 l 1,12,-1
 840 1056 l 1,13,-1
 896 1056 l 1,14,-1
 483 0 l 2,15,16
 437 -118 437 -118 393 -193 c 128,-1,17
 349 -268 349 -268 290 -318.5 c 128,-1,18
 231 -369 231 -369 163 -396 c 128,-1,19
 95 -423 95 -423 -9 -443 c 1,20,-1
 -21 -443 l 1,21,22
 -32 -432 -32 -432 -40 -416 c 1,23,-1
 -40 -401 l 1,24,25
 65 -380 65 -380 132 -355 c 128,-1,26
 199 -330 199 -330 255.5 -284 c 128,-1,27
 312 -238 312 -238 352 -171.5 c 128,-1,28
 392 -105 392 -105 432 0 c 1,29,-1
 44 1051 l 1,30,-1
 93 1060 l 1,31,-1
 127 955 l 1,9,-1
EndSplineSet
Ligature2: "'liga' Standard Ligatures lookup 30 subtable" acute y
Substitution2: "'case' Case-Sensitive Forms lookup 28 subtable" Yacute
Substitution2: "'aalt' Access All Alternates lookup 0 subtable" Yacute
EndChar

StartChar: thorn
Encoding: 254 254 192
Width: 1169
GlyphClass: 2
Flags: W
LayerCount: 2
Fore
SplineSet
644 1065 m 0,0,1
 831 1065 831 1065 935 930.5 c 128,-1,2
 1039 796 1039 796 1039 553 c 0,3,4
 1039 283 1039 283 909.5 134.5 c 128,-1,5
 780 -14 780 -14 544 -14 c 0,6,7
 425 -14 425 -14 292 9 c 1,8,-1
 292 -432 l 1,9,-1
 245 -432 l 1,10,-1
 245 1630 l 1,11,-1
 292 1639 l 1,12,-1
 292 898 l 1,13,-1
 299 898 l 1,14,15
 367 977 367 977 457.5 1021 c 128,-1,16
 548 1065 548 1065 644 1065 c 0,0,1
544 33 m 0,17,18
 758 33 758 33 875 168.5 c 128,-1,19
 992 304 992 304 992 553 c 0,20,21
 992 775 992 775 901.5 896.5 c 128,-1,22
 811 1018 811 1018 644 1018 c 0,23,24
 546 1018 546 1018 455 968 c 128,-1,25
 364 918 364 918 292 824 c 1,26,-1
 292 60 l 1,27,28
 435 33 435 33 544 33 c 0,17,18
EndSplineSet
Substitution2: "'case' Case-Sensitive Forms lookup 28 subtable" Thorn
Substitution2: "'aalt' Access All Alternates lookup 0 subtable" Thorn
EndChar

